%TF.GenerationSoftware,KiCad,Pcbnew,(6.0.7)*%
%TF.CreationDate,2023-10-27T20:14:33+01:00*%
%TF.ProjectId,slide_tester,736c6964-655f-4746-9573-7465722e6b69,rev?*%
%TF.SameCoordinates,Original*%
%TF.FileFunction,Drillmap*%
%TF.FilePolarity,Positive*%
%FSLAX45Y45*%
G04 Gerber Fmt 4.5, Leading zero omitted, Abs format (unit mm)*
G04 Created by KiCad (PCBNEW (6.0.7)) date 2023-10-27 20:14:33*
%MOMM*%
%LPD*%
G01*
G04 APERTURE LIST*
%ADD10C,0.100000*%
%ADD11C,0.200000*%
%ADD12C,0.075000*%
%ADD13C,0.090000*%
%ADD14C,0.092000*%
%ADD15C,0.110000*%
%ADD16C,0.120000*%
%ADD17C,0.233000*%
G04 APERTURE END LIST*
D10*
X20000000Y-12000000D02*
X10000000Y-12000000D01*
X10000000Y-9250000D01*
X7000000Y-9250000D01*
X7000000Y-8850000D01*
X10000000Y-8850000D01*
X10000000Y-8150000D01*
X7000000Y-8150000D01*
X7000000Y-7750000D01*
X10000000Y-7750000D01*
X10000000Y-5000000D01*
X20000000Y-5000000D01*
X20000000Y-12000000D01*
D11*
D12*
X11508500Y-9862500D02*
X11583500Y-9937500D01*
X11583500Y-9862500D02*
X11508500Y-9937500D01*
X11635500Y-9735500D02*
X11710500Y-9810500D01*
X11710500Y-9735500D02*
X11635500Y-9810500D01*
X11762500Y-9862500D02*
X11837500Y-9937500D01*
X11837500Y-9862500D02*
X11762500Y-9937500D01*
X11862500Y-7212500D02*
X11937500Y-7287500D01*
X11937500Y-7212500D02*
X11862500Y-7287500D01*
X11989500Y-7085500D02*
X12064500Y-7160500D01*
X12064500Y-7085500D02*
X11989500Y-7160500D01*
X12116500Y-7212500D02*
X12191500Y-7287500D01*
X12191500Y-7212500D02*
X12116500Y-7287500D01*
X12308500Y-9862500D02*
X12383500Y-9937500D01*
X12383500Y-9862500D02*
X12308500Y-9937500D01*
X12435500Y-9735500D02*
X12510500Y-9810500D01*
X12510500Y-9735500D02*
X12435500Y-9810500D01*
X12562500Y-9862500D02*
X12637500Y-9937500D01*
X12637500Y-9862500D02*
X12562500Y-9937500D01*
D13*
X10345000Y-8372500D02*
G75*
G03*
X10345000Y-8372500I-45000J0D01*
G01*
X10345000Y-8626500D02*
G75*
G03*
X10345000Y-8626500I-45000J0D01*
G01*
X18945000Y-9663351D02*
G75*
G03*
X18945000Y-9663351I-45000J0D01*
G01*
X18945000Y-9917351D02*
G75*
G03*
X18945000Y-9917351I-45000J0D01*
G01*
D14*
X18342250Y-8329000D02*
X18342250Y-8421000D01*
X18296250Y-8375000D02*
X18388250Y-8375000D01*
X18342250Y-8579000D02*
X18342250Y-8671000D01*
X18296250Y-8625000D02*
X18388250Y-8625000D01*
X18542250Y-8329000D02*
X18542250Y-8421000D01*
X18496250Y-8375000D02*
X18588250Y-8375000D01*
X18542250Y-8579000D02*
X18542250Y-8671000D01*
X18496250Y-8625000D02*
X18588250Y-8625000D01*
D10*
X9285356Y-7985356D02*
X9285356Y-7914644D01*
X9214644Y-7914644D01*
X9214644Y-7985356D01*
X9285356Y-7985356D01*
X9285356Y-9085356D02*
X9285356Y-9014644D01*
X9214644Y-9014644D01*
X9214644Y-9085356D01*
X9285356Y-9085356D01*
X11035356Y-8085356D02*
X11035356Y-8014644D01*
X10964644Y-8014644D01*
X10964644Y-8085356D01*
X11035356Y-8085356D01*
X11035356Y-8985356D02*
X11035356Y-8914644D01*
X10964644Y-8914644D01*
X10964644Y-8985356D01*
X11035356Y-8985356D01*
X11635356Y-7935356D02*
X11635356Y-7864644D01*
X11564644Y-7864644D01*
X11564644Y-7935356D01*
X11635356Y-7935356D01*
X11635356Y-8585356D02*
X11635356Y-8514644D01*
X11564644Y-8514644D01*
X11564644Y-8585356D01*
X11635356Y-8585356D01*
X11635356Y-9235356D02*
X11635356Y-9164644D01*
X11564644Y-9164644D01*
X11564644Y-9235356D01*
X11635356Y-9235356D01*
X11635356Y-10535356D02*
X11635356Y-10464644D01*
X11564644Y-10464644D01*
X11564644Y-10535356D01*
X11635356Y-10535356D01*
X12535356Y-7935356D02*
X12535356Y-7864644D01*
X12464644Y-7864644D01*
X12464644Y-7935356D01*
X12535356Y-7935356D01*
X12535356Y-8585356D02*
X12535356Y-8514644D01*
X12464644Y-8514644D01*
X12464644Y-8585356D01*
X12535356Y-8585356D01*
X12535356Y-9235356D02*
X12535356Y-9164644D01*
X12464644Y-9164644D01*
X12464644Y-9235356D01*
X12535356Y-9235356D01*
X12535356Y-10535356D02*
X12535356Y-10464644D01*
X12464644Y-10464644D01*
X12464644Y-10535356D01*
X12535356Y-10535356D01*
X18385356Y-9785356D02*
X18385356Y-9714644D01*
X18314644Y-9714644D01*
X18314644Y-9785356D01*
X18385356Y-9785356D01*
X18385356Y-10685356D02*
X18385356Y-10614644D01*
X18314644Y-10614644D01*
X18314644Y-10685356D01*
X18385356Y-10685356D01*
D15*
X11500000Y-6389000D02*
X11555000Y-6334000D01*
X11500000Y-6279000D01*
X11445000Y-6334000D01*
X11500000Y-6389000D01*
X11500000Y-7405000D02*
X11555000Y-7350000D01*
X11500000Y-7295000D01*
X11445000Y-7350000D01*
X11500000Y-7405000D01*
X12600000Y-6389000D02*
X12655000Y-6334000D01*
X12600000Y-6279000D01*
X12545000Y-6334000D01*
X12600000Y-6389000D01*
X12600000Y-7405000D02*
X12655000Y-7350000D01*
X12600000Y-7295000D01*
X12545000Y-7350000D01*
X12600000Y-7405000D01*
D16*
X13890000Y-11095750D02*
X14010000Y-11215750D01*
X14010000Y-11095750D02*
X13890000Y-11215750D01*
X14010000Y-11155750D02*
G75*
G03*
X14010000Y-11155750I-60000J0D01*
G01*
X15170000Y-11095750D02*
X15290000Y-11215750D01*
X15290000Y-11095750D02*
X15170000Y-11215750D01*
X15290000Y-11155750D02*
G75*
G03*
X15290000Y-11155750I-60000J0D01*
G01*
D17*
X18696750Y-7781500D02*
X18929750Y-8014500D01*
X18929750Y-7781500D02*
X18696750Y-8014500D01*
X18813250Y-7781500D02*
X18813250Y-8014500D01*
X18696750Y-7898000D02*
X18929750Y-7898000D01*
X18696750Y-8985500D02*
X18929750Y-9218500D01*
X18929750Y-8985500D02*
X18696750Y-9218500D01*
X18813250Y-8985500D02*
X18813250Y-9218500D01*
X18696750Y-9102000D02*
X18929750Y-9102000D01*
D11*
X7252619Y-12315476D02*
X7252619Y-12115476D01*
X7300238Y-12115476D01*
X7328809Y-12125000D01*
X7347857Y-12144048D01*
X7357381Y-12163095D01*
X7366905Y-12201190D01*
X7366905Y-12229762D01*
X7357381Y-12267857D01*
X7347857Y-12286905D01*
X7328809Y-12305952D01*
X7300238Y-12315476D01*
X7252619Y-12315476D01*
X7452619Y-12315476D02*
X7452619Y-12182143D01*
X7452619Y-12220238D02*
X7462143Y-12201190D01*
X7471667Y-12191667D01*
X7490714Y-12182143D01*
X7509762Y-12182143D01*
X7576428Y-12315476D02*
X7576428Y-12182143D01*
X7576428Y-12115476D02*
X7566905Y-12125000D01*
X7576428Y-12134524D01*
X7585952Y-12125000D01*
X7576428Y-12115476D01*
X7576428Y-12134524D01*
X7700238Y-12315476D02*
X7681190Y-12305952D01*
X7671667Y-12286905D01*
X7671667Y-12115476D01*
X7805000Y-12315476D02*
X7785952Y-12305952D01*
X7776428Y-12286905D01*
X7776428Y-12115476D01*
X8033571Y-12315476D02*
X8033571Y-12115476D01*
X8100238Y-12258333D01*
X8166905Y-12115476D01*
X8166905Y-12315476D01*
X8347857Y-12315476D02*
X8347857Y-12210714D01*
X8338333Y-12191667D01*
X8319286Y-12182143D01*
X8281190Y-12182143D01*
X8262143Y-12191667D01*
X8347857Y-12305952D02*
X8328809Y-12315476D01*
X8281190Y-12315476D01*
X8262143Y-12305952D01*
X8252619Y-12286905D01*
X8252619Y-12267857D01*
X8262143Y-12248809D01*
X8281190Y-12239286D01*
X8328809Y-12239286D01*
X8347857Y-12229762D01*
X8443095Y-12182143D02*
X8443095Y-12382143D01*
X8443095Y-12191667D02*
X8462143Y-12182143D01*
X8500238Y-12182143D01*
X8519286Y-12191667D01*
X8528810Y-12201190D01*
X8538333Y-12220238D01*
X8538333Y-12277381D01*
X8528810Y-12296428D01*
X8519286Y-12305952D01*
X8500238Y-12315476D01*
X8462143Y-12315476D01*
X8443095Y-12305952D01*
X8624048Y-12296428D02*
X8633571Y-12305952D01*
X8624048Y-12315476D01*
X8614524Y-12305952D01*
X8624048Y-12296428D01*
X8624048Y-12315476D01*
X8624048Y-12191667D02*
X8633571Y-12201190D01*
X8624048Y-12210714D01*
X8614524Y-12201190D01*
X8624048Y-12191667D01*
X8624048Y-12210714D01*
D12*
X6920000Y-12607500D02*
X6995000Y-12682500D01*
X6995000Y-12607500D02*
X6920000Y-12682500D01*
D11*
X7290714Y-12535476D02*
X7309762Y-12535476D01*
X7328809Y-12545000D01*
X7338333Y-12554524D01*
X7347857Y-12573571D01*
X7357381Y-12611667D01*
X7357381Y-12659286D01*
X7347857Y-12697381D01*
X7338333Y-12716428D01*
X7328809Y-12725952D01*
X7309762Y-12735476D01*
X7290714Y-12735476D01*
X7271667Y-12725952D01*
X7262143Y-12716428D01*
X7252619Y-12697381D01*
X7243095Y-12659286D01*
X7243095Y-12611667D01*
X7252619Y-12573571D01*
X7262143Y-12554524D01*
X7271667Y-12545000D01*
X7290714Y-12535476D01*
X7443095Y-12716428D02*
X7452619Y-12725952D01*
X7443095Y-12735476D01*
X7433571Y-12725952D01*
X7443095Y-12716428D01*
X7443095Y-12735476D01*
X7519286Y-12535476D02*
X7652619Y-12535476D01*
X7566905Y-12735476D01*
X7824048Y-12535476D02*
X7728809Y-12535476D01*
X7719286Y-12630714D01*
X7728809Y-12621190D01*
X7747857Y-12611667D01*
X7795476Y-12611667D01*
X7814524Y-12621190D01*
X7824048Y-12630714D01*
X7833571Y-12649762D01*
X7833571Y-12697381D01*
X7824048Y-12716428D01*
X7814524Y-12725952D01*
X7795476Y-12735476D01*
X7747857Y-12735476D01*
X7728809Y-12725952D01*
X7719286Y-12716428D01*
X7957381Y-12535476D02*
X7976428Y-12535476D01*
X7995476Y-12545000D01*
X8005000Y-12554524D01*
X8014524Y-12573571D01*
X8024048Y-12611667D01*
X8024048Y-12659286D01*
X8014524Y-12697381D01*
X8005000Y-12716428D01*
X7995476Y-12725952D01*
X7976428Y-12735476D01*
X7957381Y-12735476D01*
X7938333Y-12725952D01*
X7928809Y-12716428D01*
X7919286Y-12697381D01*
X7909762Y-12659286D01*
X7909762Y-12611667D01*
X7919286Y-12573571D01*
X7928809Y-12554524D01*
X7938333Y-12545000D01*
X7957381Y-12535476D01*
X8109762Y-12735476D02*
X8109762Y-12602143D01*
X8109762Y-12621190D02*
X8119286Y-12611667D01*
X8138333Y-12602143D01*
X8166905Y-12602143D01*
X8185952Y-12611667D01*
X8195476Y-12630714D01*
X8195476Y-12735476D01*
X8195476Y-12630714D02*
X8205000Y-12611667D01*
X8224048Y-12602143D01*
X8252619Y-12602143D01*
X8271667Y-12611667D01*
X8281190Y-12630714D01*
X8281190Y-12735476D01*
X8376428Y-12735476D02*
X8376428Y-12602143D01*
X8376428Y-12621190D02*
X8385952Y-12611667D01*
X8405000Y-12602143D01*
X8433571Y-12602143D01*
X8452619Y-12611667D01*
X8462143Y-12630714D01*
X8462143Y-12735476D01*
X8462143Y-12630714D02*
X8471667Y-12611667D01*
X8490714Y-12602143D01*
X8519286Y-12602143D01*
X8538333Y-12611667D01*
X8547857Y-12630714D01*
X8547857Y-12735476D01*
X8938333Y-12525952D02*
X8766905Y-12783095D01*
X9195476Y-12535476D02*
X9214524Y-12535476D01*
X9233571Y-12545000D01*
X9243095Y-12554524D01*
X9252619Y-12573571D01*
X9262143Y-12611667D01*
X9262143Y-12659286D01*
X9252619Y-12697381D01*
X9243095Y-12716428D01*
X9233571Y-12725952D01*
X9214524Y-12735476D01*
X9195476Y-12735476D01*
X9176429Y-12725952D01*
X9166905Y-12716428D01*
X9157381Y-12697381D01*
X9147857Y-12659286D01*
X9147857Y-12611667D01*
X9157381Y-12573571D01*
X9166905Y-12554524D01*
X9176429Y-12545000D01*
X9195476Y-12535476D01*
X9347857Y-12716428D02*
X9357381Y-12725952D01*
X9347857Y-12735476D01*
X9338333Y-12725952D01*
X9347857Y-12716428D01*
X9347857Y-12735476D01*
X9481190Y-12535476D02*
X9500238Y-12535476D01*
X9519286Y-12545000D01*
X9528810Y-12554524D01*
X9538333Y-12573571D01*
X9547857Y-12611667D01*
X9547857Y-12659286D01*
X9538333Y-12697381D01*
X9528810Y-12716428D01*
X9519286Y-12725952D01*
X9500238Y-12735476D01*
X9481190Y-12735476D01*
X9462143Y-12725952D01*
X9452619Y-12716428D01*
X9443095Y-12697381D01*
X9433571Y-12659286D01*
X9433571Y-12611667D01*
X9443095Y-12573571D01*
X9452619Y-12554524D01*
X9462143Y-12545000D01*
X9481190Y-12535476D01*
X9624048Y-12554524D02*
X9633571Y-12545000D01*
X9652619Y-12535476D01*
X9700238Y-12535476D01*
X9719286Y-12545000D01*
X9728810Y-12554524D01*
X9738333Y-12573571D01*
X9738333Y-12592619D01*
X9728810Y-12621190D01*
X9614524Y-12735476D01*
X9738333Y-12735476D01*
X9833571Y-12735476D02*
X9871667Y-12735476D01*
X9890714Y-12725952D01*
X9900238Y-12716428D01*
X9919286Y-12687857D01*
X9928810Y-12649762D01*
X9928810Y-12573571D01*
X9919286Y-12554524D01*
X9909762Y-12545000D01*
X9890714Y-12535476D01*
X9852619Y-12535476D01*
X9833571Y-12545000D01*
X9824048Y-12554524D01*
X9814524Y-12573571D01*
X9814524Y-12621190D01*
X9824048Y-12640238D01*
X9833571Y-12649762D01*
X9852619Y-12659286D01*
X9890714Y-12659286D01*
X9909762Y-12649762D01*
X9919286Y-12640238D01*
X9928810Y-12621190D01*
X10109762Y-12535476D02*
X10014524Y-12535476D01*
X10005000Y-12630714D01*
X10014524Y-12621190D01*
X10033571Y-12611667D01*
X10081190Y-12611667D01*
X10100238Y-12621190D01*
X10109762Y-12630714D01*
X10119286Y-12649762D01*
X10119286Y-12697381D01*
X10109762Y-12716428D01*
X10100238Y-12725952D01*
X10081190Y-12735476D01*
X10033571Y-12735476D01*
X10014524Y-12725952D01*
X10005000Y-12716428D01*
X10195476Y-12535476D02*
X10195476Y-12573571D01*
X10271667Y-12535476D02*
X10271667Y-12573571D01*
X10566905Y-12811667D02*
X10557381Y-12802143D01*
X10538333Y-12773571D01*
X10528810Y-12754524D01*
X10519286Y-12725952D01*
X10509762Y-12678333D01*
X10509762Y-12640238D01*
X10519286Y-12592619D01*
X10528810Y-12564048D01*
X10538333Y-12545000D01*
X10557381Y-12516428D01*
X10566905Y-12506905D01*
X10652619Y-12735476D02*
X10690714Y-12735476D01*
X10709762Y-12725952D01*
X10719286Y-12716428D01*
X10738333Y-12687857D01*
X10747857Y-12649762D01*
X10747857Y-12573571D01*
X10738333Y-12554524D01*
X10728810Y-12545000D01*
X10709762Y-12535476D01*
X10671667Y-12535476D01*
X10652619Y-12545000D01*
X10643095Y-12554524D01*
X10633571Y-12573571D01*
X10633571Y-12621190D01*
X10643095Y-12640238D01*
X10652619Y-12649762D01*
X10671667Y-12659286D01*
X10709762Y-12659286D01*
X10728810Y-12649762D01*
X10738333Y-12640238D01*
X10747857Y-12621190D01*
X10985952Y-12735476D02*
X10985952Y-12535476D01*
X11071667Y-12735476D02*
X11071667Y-12630714D01*
X11062143Y-12611667D01*
X11043095Y-12602143D01*
X11014524Y-12602143D01*
X10995476Y-12611667D01*
X10985952Y-12621190D01*
X11195476Y-12735476D02*
X11176429Y-12725952D01*
X11166905Y-12716428D01*
X11157381Y-12697381D01*
X11157381Y-12640238D01*
X11166905Y-12621190D01*
X11176429Y-12611667D01*
X11195476Y-12602143D01*
X11224048Y-12602143D01*
X11243095Y-12611667D01*
X11252619Y-12621190D01*
X11262143Y-12640238D01*
X11262143Y-12697381D01*
X11252619Y-12716428D01*
X11243095Y-12725952D01*
X11224048Y-12735476D01*
X11195476Y-12735476D01*
X11376428Y-12735476D02*
X11357381Y-12725952D01*
X11347857Y-12706905D01*
X11347857Y-12535476D01*
X11528809Y-12725952D02*
X11509762Y-12735476D01*
X11471667Y-12735476D01*
X11452619Y-12725952D01*
X11443095Y-12706905D01*
X11443095Y-12630714D01*
X11452619Y-12611667D01*
X11471667Y-12602143D01*
X11509762Y-12602143D01*
X11528809Y-12611667D01*
X11538333Y-12630714D01*
X11538333Y-12649762D01*
X11443095Y-12668809D01*
X11614524Y-12725952D02*
X11633571Y-12735476D01*
X11671667Y-12735476D01*
X11690714Y-12725952D01*
X11700238Y-12706905D01*
X11700238Y-12697381D01*
X11690714Y-12678333D01*
X11671667Y-12668809D01*
X11643095Y-12668809D01*
X11624048Y-12659286D01*
X11614524Y-12640238D01*
X11614524Y-12630714D01*
X11624048Y-12611667D01*
X11643095Y-12602143D01*
X11671667Y-12602143D01*
X11690714Y-12611667D01*
X11766905Y-12811667D02*
X11776428Y-12802143D01*
X11795476Y-12773571D01*
X11805000Y-12754524D01*
X11814524Y-12725952D01*
X11824048Y-12678333D01*
X11824048Y-12640238D01*
X11814524Y-12592619D01*
X11805000Y-12564048D01*
X11795476Y-12545000D01*
X11776428Y-12516428D01*
X11766905Y-12506905D01*
D13*
X6995000Y-12909000D02*
G75*
G03*
X6995000Y-12909000I-45000J0D01*
G01*
D11*
X7290714Y-12799476D02*
X7309762Y-12799476D01*
X7328809Y-12809000D01*
X7338333Y-12818524D01*
X7347857Y-12837571D01*
X7357381Y-12875667D01*
X7357381Y-12923286D01*
X7347857Y-12961381D01*
X7338333Y-12980428D01*
X7328809Y-12989952D01*
X7309762Y-12999476D01*
X7290714Y-12999476D01*
X7271667Y-12989952D01*
X7262143Y-12980428D01*
X7252619Y-12961381D01*
X7243095Y-12923286D01*
X7243095Y-12875667D01*
X7252619Y-12837571D01*
X7262143Y-12818524D01*
X7271667Y-12809000D01*
X7290714Y-12799476D01*
X7443095Y-12980428D02*
X7452619Y-12989952D01*
X7443095Y-12999476D01*
X7433571Y-12989952D01*
X7443095Y-12980428D01*
X7443095Y-12999476D01*
X7547857Y-12999476D02*
X7585952Y-12999476D01*
X7605000Y-12989952D01*
X7614524Y-12980428D01*
X7633571Y-12951857D01*
X7643095Y-12913762D01*
X7643095Y-12837571D01*
X7633571Y-12818524D01*
X7624048Y-12809000D01*
X7605000Y-12799476D01*
X7566905Y-12799476D01*
X7547857Y-12809000D01*
X7538333Y-12818524D01*
X7528809Y-12837571D01*
X7528809Y-12885190D01*
X7538333Y-12904238D01*
X7547857Y-12913762D01*
X7566905Y-12923286D01*
X7605000Y-12923286D01*
X7624048Y-12913762D01*
X7633571Y-12904238D01*
X7643095Y-12885190D01*
X7766905Y-12799476D02*
X7785952Y-12799476D01*
X7805000Y-12809000D01*
X7814524Y-12818524D01*
X7824048Y-12837571D01*
X7833571Y-12875667D01*
X7833571Y-12923286D01*
X7824048Y-12961381D01*
X7814524Y-12980428D01*
X7805000Y-12989952D01*
X7785952Y-12999476D01*
X7766905Y-12999476D01*
X7747857Y-12989952D01*
X7738333Y-12980428D01*
X7728809Y-12961381D01*
X7719286Y-12923286D01*
X7719286Y-12875667D01*
X7728809Y-12837571D01*
X7738333Y-12818524D01*
X7747857Y-12809000D01*
X7766905Y-12799476D01*
X7957381Y-12799476D02*
X7976428Y-12799476D01*
X7995476Y-12809000D01*
X8005000Y-12818524D01*
X8014524Y-12837571D01*
X8024048Y-12875667D01*
X8024048Y-12923286D01*
X8014524Y-12961381D01*
X8005000Y-12980428D01*
X7995476Y-12989952D01*
X7976428Y-12999476D01*
X7957381Y-12999476D01*
X7938333Y-12989952D01*
X7928809Y-12980428D01*
X7919286Y-12961381D01*
X7909762Y-12923286D01*
X7909762Y-12875667D01*
X7919286Y-12837571D01*
X7928809Y-12818524D01*
X7938333Y-12809000D01*
X7957381Y-12799476D01*
X8109762Y-12999476D02*
X8109762Y-12866143D01*
X8109762Y-12885190D02*
X8119286Y-12875667D01*
X8138333Y-12866143D01*
X8166905Y-12866143D01*
X8185952Y-12875667D01*
X8195476Y-12894714D01*
X8195476Y-12999476D01*
X8195476Y-12894714D02*
X8205000Y-12875667D01*
X8224048Y-12866143D01*
X8252619Y-12866143D01*
X8271667Y-12875667D01*
X8281190Y-12894714D01*
X8281190Y-12999476D01*
X8376428Y-12999476D02*
X8376428Y-12866143D01*
X8376428Y-12885190D02*
X8385952Y-12875667D01*
X8405000Y-12866143D01*
X8433571Y-12866143D01*
X8452619Y-12875667D01*
X8462143Y-12894714D01*
X8462143Y-12999476D01*
X8462143Y-12894714D02*
X8471667Y-12875667D01*
X8490714Y-12866143D01*
X8519286Y-12866143D01*
X8538333Y-12875667D01*
X8547857Y-12894714D01*
X8547857Y-12999476D01*
X8938333Y-12789952D02*
X8766905Y-13047095D01*
X9195476Y-12799476D02*
X9214524Y-12799476D01*
X9233571Y-12809000D01*
X9243095Y-12818524D01*
X9252619Y-12837571D01*
X9262143Y-12875667D01*
X9262143Y-12923286D01*
X9252619Y-12961381D01*
X9243095Y-12980428D01*
X9233571Y-12989952D01*
X9214524Y-12999476D01*
X9195476Y-12999476D01*
X9176429Y-12989952D01*
X9166905Y-12980428D01*
X9157381Y-12961381D01*
X9147857Y-12923286D01*
X9147857Y-12875667D01*
X9157381Y-12837571D01*
X9166905Y-12818524D01*
X9176429Y-12809000D01*
X9195476Y-12799476D01*
X9347857Y-12980428D02*
X9357381Y-12989952D01*
X9347857Y-12999476D01*
X9338333Y-12989952D01*
X9347857Y-12980428D01*
X9347857Y-12999476D01*
X9481190Y-12799476D02*
X9500238Y-12799476D01*
X9519286Y-12809000D01*
X9528810Y-12818524D01*
X9538333Y-12837571D01*
X9547857Y-12875667D01*
X9547857Y-12923286D01*
X9538333Y-12961381D01*
X9528810Y-12980428D01*
X9519286Y-12989952D01*
X9500238Y-12999476D01*
X9481190Y-12999476D01*
X9462143Y-12989952D01*
X9452619Y-12980428D01*
X9443095Y-12961381D01*
X9433571Y-12923286D01*
X9433571Y-12875667D01*
X9443095Y-12837571D01*
X9452619Y-12818524D01*
X9462143Y-12809000D01*
X9481190Y-12799476D01*
X9614524Y-12799476D02*
X9738333Y-12799476D01*
X9671667Y-12875667D01*
X9700238Y-12875667D01*
X9719286Y-12885190D01*
X9728810Y-12894714D01*
X9738333Y-12913762D01*
X9738333Y-12961381D01*
X9728810Y-12980428D01*
X9719286Y-12989952D01*
X9700238Y-12999476D01*
X9643095Y-12999476D01*
X9624048Y-12989952D01*
X9614524Y-12980428D01*
X9919286Y-12799476D02*
X9824048Y-12799476D01*
X9814524Y-12894714D01*
X9824048Y-12885190D01*
X9843095Y-12875667D01*
X9890714Y-12875667D01*
X9909762Y-12885190D01*
X9919286Y-12894714D01*
X9928810Y-12913762D01*
X9928810Y-12961381D01*
X9919286Y-12980428D01*
X9909762Y-12989952D01*
X9890714Y-12999476D01*
X9843095Y-12999476D01*
X9824048Y-12989952D01*
X9814524Y-12980428D01*
X10100238Y-12866143D02*
X10100238Y-12999476D01*
X10052619Y-12789952D02*
X10005000Y-12932809D01*
X10128810Y-12932809D01*
X10195476Y-12799476D02*
X10195476Y-12837571D01*
X10271667Y-12799476D02*
X10271667Y-12837571D01*
X10566905Y-13075667D02*
X10557381Y-13066143D01*
X10538333Y-13037571D01*
X10528810Y-13018524D01*
X10519286Y-12989952D01*
X10509762Y-12942333D01*
X10509762Y-12904238D01*
X10519286Y-12856619D01*
X10528810Y-12828048D01*
X10538333Y-12809000D01*
X10557381Y-12780428D01*
X10566905Y-12770905D01*
X10728810Y-12866143D02*
X10728810Y-12999476D01*
X10681190Y-12789952D02*
X10633571Y-12932809D01*
X10757381Y-12932809D01*
X10985952Y-12999476D02*
X10985952Y-12799476D01*
X11071667Y-12999476D02*
X11071667Y-12894714D01*
X11062143Y-12875667D01*
X11043095Y-12866143D01*
X11014524Y-12866143D01*
X10995476Y-12875667D01*
X10985952Y-12885190D01*
X11195476Y-12999476D02*
X11176429Y-12989952D01*
X11166905Y-12980428D01*
X11157381Y-12961381D01*
X11157381Y-12904238D01*
X11166905Y-12885190D01*
X11176429Y-12875667D01*
X11195476Y-12866143D01*
X11224048Y-12866143D01*
X11243095Y-12875667D01*
X11252619Y-12885190D01*
X11262143Y-12904238D01*
X11262143Y-12961381D01*
X11252619Y-12980428D01*
X11243095Y-12989952D01*
X11224048Y-12999476D01*
X11195476Y-12999476D01*
X11376428Y-12999476D02*
X11357381Y-12989952D01*
X11347857Y-12970905D01*
X11347857Y-12799476D01*
X11528809Y-12989952D02*
X11509762Y-12999476D01*
X11471667Y-12999476D01*
X11452619Y-12989952D01*
X11443095Y-12970905D01*
X11443095Y-12894714D01*
X11452619Y-12875667D01*
X11471667Y-12866143D01*
X11509762Y-12866143D01*
X11528809Y-12875667D01*
X11538333Y-12894714D01*
X11538333Y-12913762D01*
X11443095Y-12932809D01*
X11614524Y-12989952D02*
X11633571Y-12999476D01*
X11671667Y-12999476D01*
X11690714Y-12989952D01*
X11700238Y-12970905D01*
X11700238Y-12961381D01*
X11690714Y-12942333D01*
X11671667Y-12932809D01*
X11643095Y-12932809D01*
X11624048Y-12923286D01*
X11614524Y-12904238D01*
X11614524Y-12894714D01*
X11624048Y-12875667D01*
X11643095Y-12866143D01*
X11671667Y-12866143D01*
X11690714Y-12875667D01*
X11766905Y-13075667D02*
X11776428Y-13066143D01*
X11795476Y-13037571D01*
X11805000Y-13018524D01*
X11814524Y-12989952D01*
X11824048Y-12942333D01*
X11824048Y-12904238D01*
X11814524Y-12856619D01*
X11805000Y-12828048D01*
X11795476Y-12809000D01*
X11776428Y-12780428D01*
X11766905Y-12770905D01*
D14*
X6949000Y-13127000D02*
X6949000Y-13219000D01*
X6903000Y-13173000D02*
X6995000Y-13173000D01*
D11*
X7290714Y-13063476D02*
X7309762Y-13063476D01*
X7328809Y-13073000D01*
X7338333Y-13082524D01*
X7347857Y-13101571D01*
X7357381Y-13139667D01*
X7357381Y-13187286D01*
X7347857Y-13225381D01*
X7338333Y-13244428D01*
X7328809Y-13253952D01*
X7309762Y-13263476D01*
X7290714Y-13263476D01*
X7271667Y-13253952D01*
X7262143Y-13244428D01*
X7252619Y-13225381D01*
X7243095Y-13187286D01*
X7243095Y-13139667D01*
X7252619Y-13101571D01*
X7262143Y-13082524D01*
X7271667Y-13073000D01*
X7290714Y-13063476D01*
X7443095Y-13244428D02*
X7452619Y-13253952D01*
X7443095Y-13263476D01*
X7433571Y-13253952D01*
X7443095Y-13244428D01*
X7443095Y-13263476D01*
X7547857Y-13263476D02*
X7585952Y-13263476D01*
X7605000Y-13253952D01*
X7614524Y-13244428D01*
X7633571Y-13215857D01*
X7643095Y-13177762D01*
X7643095Y-13101571D01*
X7633571Y-13082524D01*
X7624048Y-13073000D01*
X7605000Y-13063476D01*
X7566905Y-13063476D01*
X7547857Y-13073000D01*
X7538333Y-13082524D01*
X7528809Y-13101571D01*
X7528809Y-13149190D01*
X7538333Y-13168238D01*
X7547857Y-13177762D01*
X7566905Y-13187286D01*
X7605000Y-13187286D01*
X7624048Y-13177762D01*
X7633571Y-13168238D01*
X7643095Y-13149190D01*
X7719286Y-13082524D02*
X7728809Y-13073000D01*
X7747857Y-13063476D01*
X7795476Y-13063476D01*
X7814524Y-13073000D01*
X7824048Y-13082524D01*
X7833571Y-13101571D01*
X7833571Y-13120619D01*
X7824048Y-13149190D01*
X7709762Y-13263476D01*
X7833571Y-13263476D01*
X7957381Y-13063476D02*
X7976428Y-13063476D01*
X7995476Y-13073000D01*
X8005000Y-13082524D01*
X8014524Y-13101571D01*
X8024048Y-13139667D01*
X8024048Y-13187286D01*
X8014524Y-13225381D01*
X8005000Y-13244428D01*
X7995476Y-13253952D01*
X7976428Y-13263476D01*
X7957381Y-13263476D01*
X7938333Y-13253952D01*
X7928809Y-13244428D01*
X7919286Y-13225381D01*
X7909762Y-13187286D01*
X7909762Y-13139667D01*
X7919286Y-13101571D01*
X7928809Y-13082524D01*
X7938333Y-13073000D01*
X7957381Y-13063476D01*
X8109762Y-13263476D02*
X8109762Y-13130143D01*
X8109762Y-13149190D02*
X8119286Y-13139667D01*
X8138333Y-13130143D01*
X8166905Y-13130143D01*
X8185952Y-13139667D01*
X8195476Y-13158714D01*
X8195476Y-13263476D01*
X8195476Y-13158714D02*
X8205000Y-13139667D01*
X8224048Y-13130143D01*
X8252619Y-13130143D01*
X8271667Y-13139667D01*
X8281190Y-13158714D01*
X8281190Y-13263476D01*
X8376428Y-13263476D02*
X8376428Y-13130143D01*
X8376428Y-13149190D02*
X8385952Y-13139667D01*
X8405000Y-13130143D01*
X8433571Y-13130143D01*
X8452619Y-13139667D01*
X8462143Y-13158714D01*
X8462143Y-13263476D01*
X8462143Y-13158714D02*
X8471667Y-13139667D01*
X8490714Y-13130143D01*
X8519286Y-13130143D01*
X8538333Y-13139667D01*
X8547857Y-13158714D01*
X8547857Y-13263476D01*
X8938333Y-13053952D02*
X8766905Y-13311095D01*
X9195476Y-13063476D02*
X9214524Y-13063476D01*
X9233571Y-13073000D01*
X9243095Y-13082524D01*
X9252619Y-13101571D01*
X9262143Y-13139667D01*
X9262143Y-13187286D01*
X9252619Y-13225381D01*
X9243095Y-13244428D01*
X9233571Y-13253952D01*
X9214524Y-13263476D01*
X9195476Y-13263476D01*
X9176429Y-13253952D01*
X9166905Y-13244428D01*
X9157381Y-13225381D01*
X9147857Y-13187286D01*
X9147857Y-13139667D01*
X9157381Y-13101571D01*
X9166905Y-13082524D01*
X9176429Y-13073000D01*
X9195476Y-13063476D01*
X9347857Y-13244428D02*
X9357381Y-13253952D01*
X9347857Y-13263476D01*
X9338333Y-13253952D01*
X9347857Y-13244428D01*
X9347857Y-13263476D01*
X9481190Y-13063476D02*
X9500238Y-13063476D01*
X9519286Y-13073000D01*
X9528810Y-13082524D01*
X9538333Y-13101571D01*
X9547857Y-13139667D01*
X9547857Y-13187286D01*
X9538333Y-13225381D01*
X9528810Y-13244428D01*
X9519286Y-13253952D01*
X9500238Y-13263476D01*
X9481190Y-13263476D01*
X9462143Y-13253952D01*
X9452619Y-13244428D01*
X9443095Y-13225381D01*
X9433571Y-13187286D01*
X9433571Y-13139667D01*
X9443095Y-13101571D01*
X9452619Y-13082524D01*
X9462143Y-13073000D01*
X9481190Y-13063476D01*
X9614524Y-13063476D02*
X9738333Y-13063476D01*
X9671667Y-13139667D01*
X9700238Y-13139667D01*
X9719286Y-13149190D01*
X9728810Y-13158714D01*
X9738333Y-13177762D01*
X9738333Y-13225381D01*
X9728810Y-13244428D01*
X9719286Y-13253952D01*
X9700238Y-13263476D01*
X9643095Y-13263476D01*
X9624048Y-13253952D01*
X9614524Y-13244428D01*
X9909762Y-13063476D02*
X9871667Y-13063476D01*
X9852619Y-13073000D01*
X9843095Y-13082524D01*
X9824048Y-13111095D01*
X9814524Y-13149190D01*
X9814524Y-13225381D01*
X9824048Y-13244428D01*
X9833571Y-13253952D01*
X9852619Y-13263476D01*
X9890714Y-13263476D01*
X9909762Y-13253952D01*
X9919286Y-13244428D01*
X9928810Y-13225381D01*
X9928810Y-13177762D01*
X9919286Y-13158714D01*
X9909762Y-13149190D01*
X9890714Y-13139667D01*
X9852619Y-13139667D01*
X9833571Y-13149190D01*
X9824048Y-13158714D01*
X9814524Y-13177762D01*
X10005000Y-13082524D02*
X10014524Y-13073000D01*
X10033571Y-13063476D01*
X10081190Y-13063476D01*
X10100238Y-13073000D01*
X10109762Y-13082524D01*
X10119286Y-13101571D01*
X10119286Y-13120619D01*
X10109762Y-13149190D01*
X9995476Y-13263476D01*
X10119286Y-13263476D01*
X10195476Y-13063476D02*
X10195476Y-13101571D01*
X10271667Y-13063476D02*
X10271667Y-13101571D01*
X10566905Y-13339667D02*
X10557381Y-13330143D01*
X10538333Y-13301571D01*
X10528810Y-13282524D01*
X10519286Y-13253952D01*
X10509762Y-13206333D01*
X10509762Y-13168238D01*
X10519286Y-13120619D01*
X10528810Y-13092048D01*
X10538333Y-13073000D01*
X10557381Y-13044428D01*
X10566905Y-13034905D01*
X10728810Y-13130143D02*
X10728810Y-13263476D01*
X10681190Y-13053952D02*
X10633571Y-13196809D01*
X10757381Y-13196809D01*
X10985952Y-13263476D02*
X10985952Y-13063476D01*
X11071667Y-13263476D02*
X11071667Y-13158714D01*
X11062143Y-13139667D01*
X11043095Y-13130143D01*
X11014524Y-13130143D01*
X10995476Y-13139667D01*
X10985952Y-13149190D01*
X11195476Y-13263476D02*
X11176429Y-13253952D01*
X11166905Y-13244428D01*
X11157381Y-13225381D01*
X11157381Y-13168238D01*
X11166905Y-13149190D01*
X11176429Y-13139667D01*
X11195476Y-13130143D01*
X11224048Y-13130143D01*
X11243095Y-13139667D01*
X11252619Y-13149190D01*
X11262143Y-13168238D01*
X11262143Y-13225381D01*
X11252619Y-13244428D01*
X11243095Y-13253952D01*
X11224048Y-13263476D01*
X11195476Y-13263476D01*
X11376428Y-13263476D02*
X11357381Y-13253952D01*
X11347857Y-13234905D01*
X11347857Y-13063476D01*
X11528809Y-13253952D02*
X11509762Y-13263476D01*
X11471667Y-13263476D01*
X11452619Y-13253952D01*
X11443095Y-13234905D01*
X11443095Y-13158714D01*
X11452619Y-13139667D01*
X11471667Y-13130143D01*
X11509762Y-13130143D01*
X11528809Y-13139667D01*
X11538333Y-13158714D01*
X11538333Y-13177762D01*
X11443095Y-13196809D01*
X11614524Y-13253952D02*
X11633571Y-13263476D01*
X11671667Y-13263476D01*
X11690714Y-13253952D01*
X11700238Y-13234905D01*
X11700238Y-13225381D01*
X11690714Y-13206333D01*
X11671667Y-13196809D01*
X11643095Y-13196809D01*
X11624048Y-13187286D01*
X11614524Y-13168238D01*
X11614524Y-13158714D01*
X11624048Y-13139667D01*
X11643095Y-13130143D01*
X11671667Y-13130143D01*
X11690714Y-13139667D01*
X11766905Y-13339667D02*
X11776428Y-13330143D01*
X11795476Y-13301571D01*
X11805000Y-13282524D01*
X11814524Y-13253952D01*
X11824048Y-13206333D01*
X11824048Y-13168238D01*
X11814524Y-13120619D01*
X11805000Y-13092048D01*
X11795476Y-13073000D01*
X11776428Y-13044428D01*
X11766905Y-13034905D01*
D10*
X6980356Y-13472356D02*
X6980356Y-13401644D01*
X6909644Y-13401644D01*
X6909644Y-13472356D01*
X6980356Y-13472356D01*
D11*
X7357381Y-13527476D02*
X7243095Y-13527476D01*
X7300238Y-13527476D02*
X7300238Y-13327476D01*
X7281190Y-13356048D01*
X7262143Y-13375095D01*
X7243095Y-13384619D01*
X7443095Y-13508428D02*
X7452619Y-13517952D01*
X7443095Y-13527476D01*
X7433571Y-13517952D01*
X7443095Y-13508428D01*
X7443095Y-13527476D01*
X7576428Y-13327476D02*
X7595476Y-13327476D01*
X7614524Y-13337000D01*
X7624048Y-13346524D01*
X7633571Y-13365571D01*
X7643095Y-13403667D01*
X7643095Y-13451286D01*
X7633571Y-13489381D01*
X7624048Y-13508428D01*
X7614524Y-13517952D01*
X7595476Y-13527476D01*
X7576428Y-13527476D01*
X7557381Y-13517952D01*
X7547857Y-13508428D01*
X7538333Y-13489381D01*
X7528809Y-13451286D01*
X7528809Y-13403667D01*
X7538333Y-13365571D01*
X7547857Y-13346524D01*
X7557381Y-13337000D01*
X7576428Y-13327476D01*
X7766905Y-13327476D02*
X7785952Y-13327476D01*
X7805000Y-13337000D01*
X7814524Y-13346524D01*
X7824048Y-13365571D01*
X7833571Y-13403667D01*
X7833571Y-13451286D01*
X7824048Y-13489381D01*
X7814524Y-13508428D01*
X7805000Y-13517952D01*
X7785952Y-13527476D01*
X7766905Y-13527476D01*
X7747857Y-13517952D01*
X7738333Y-13508428D01*
X7728809Y-13489381D01*
X7719286Y-13451286D01*
X7719286Y-13403667D01*
X7728809Y-13365571D01*
X7738333Y-13346524D01*
X7747857Y-13337000D01*
X7766905Y-13327476D01*
X7957381Y-13327476D02*
X7976428Y-13327476D01*
X7995476Y-13337000D01*
X8005000Y-13346524D01*
X8014524Y-13365571D01*
X8024048Y-13403667D01*
X8024048Y-13451286D01*
X8014524Y-13489381D01*
X8005000Y-13508428D01*
X7995476Y-13517952D01*
X7976428Y-13527476D01*
X7957381Y-13527476D01*
X7938333Y-13517952D01*
X7928809Y-13508428D01*
X7919286Y-13489381D01*
X7909762Y-13451286D01*
X7909762Y-13403667D01*
X7919286Y-13365571D01*
X7928809Y-13346524D01*
X7938333Y-13337000D01*
X7957381Y-13327476D01*
X8109762Y-13527476D02*
X8109762Y-13394143D01*
X8109762Y-13413190D02*
X8119286Y-13403667D01*
X8138333Y-13394143D01*
X8166905Y-13394143D01*
X8185952Y-13403667D01*
X8195476Y-13422714D01*
X8195476Y-13527476D01*
X8195476Y-13422714D02*
X8205000Y-13403667D01*
X8224048Y-13394143D01*
X8252619Y-13394143D01*
X8271667Y-13403667D01*
X8281190Y-13422714D01*
X8281190Y-13527476D01*
X8376428Y-13527476D02*
X8376428Y-13394143D01*
X8376428Y-13413190D02*
X8385952Y-13403667D01*
X8405000Y-13394143D01*
X8433571Y-13394143D01*
X8452619Y-13403667D01*
X8462143Y-13422714D01*
X8462143Y-13527476D01*
X8462143Y-13422714D02*
X8471667Y-13403667D01*
X8490714Y-13394143D01*
X8519286Y-13394143D01*
X8538333Y-13403667D01*
X8547857Y-13422714D01*
X8547857Y-13527476D01*
X8938333Y-13317952D02*
X8766905Y-13575095D01*
X9195476Y-13327476D02*
X9214524Y-13327476D01*
X9233571Y-13337000D01*
X9243095Y-13346524D01*
X9252619Y-13365571D01*
X9262143Y-13403667D01*
X9262143Y-13451286D01*
X9252619Y-13489381D01*
X9243095Y-13508428D01*
X9233571Y-13517952D01*
X9214524Y-13527476D01*
X9195476Y-13527476D01*
X9176429Y-13517952D01*
X9166905Y-13508428D01*
X9157381Y-13489381D01*
X9147857Y-13451286D01*
X9147857Y-13403667D01*
X9157381Y-13365571D01*
X9166905Y-13346524D01*
X9176429Y-13337000D01*
X9195476Y-13327476D01*
X9347857Y-13508428D02*
X9357381Y-13517952D01*
X9347857Y-13527476D01*
X9338333Y-13517952D01*
X9347857Y-13508428D01*
X9347857Y-13527476D01*
X9481190Y-13327476D02*
X9500238Y-13327476D01*
X9519286Y-13337000D01*
X9528810Y-13346524D01*
X9538333Y-13365571D01*
X9547857Y-13403667D01*
X9547857Y-13451286D01*
X9538333Y-13489381D01*
X9528810Y-13508428D01*
X9519286Y-13517952D01*
X9500238Y-13527476D01*
X9481190Y-13527476D01*
X9462143Y-13517952D01*
X9452619Y-13508428D01*
X9443095Y-13489381D01*
X9433571Y-13451286D01*
X9433571Y-13403667D01*
X9443095Y-13365571D01*
X9452619Y-13346524D01*
X9462143Y-13337000D01*
X9481190Y-13327476D01*
X9614524Y-13327476D02*
X9738333Y-13327476D01*
X9671667Y-13403667D01*
X9700238Y-13403667D01*
X9719286Y-13413190D01*
X9728810Y-13422714D01*
X9738333Y-13441762D01*
X9738333Y-13489381D01*
X9728810Y-13508428D01*
X9719286Y-13517952D01*
X9700238Y-13527476D01*
X9643095Y-13527476D01*
X9624048Y-13517952D01*
X9614524Y-13508428D01*
X9833571Y-13527476D02*
X9871667Y-13527476D01*
X9890714Y-13517952D01*
X9900238Y-13508428D01*
X9919286Y-13479857D01*
X9928810Y-13441762D01*
X9928810Y-13365571D01*
X9919286Y-13346524D01*
X9909762Y-13337000D01*
X9890714Y-13327476D01*
X9852619Y-13327476D01*
X9833571Y-13337000D01*
X9824048Y-13346524D01*
X9814524Y-13365571D01*
X9814524Y-13413190D01*
X9824048Y-13432238D01*
X9833571Y-13441762D01*
X9852619Y-13451286D01*
X9890714Y-13451286D01*
X9909762Y-13441762D01*
X9919286Y-13432238D01*
X9928810Y-13413190D01*
X10100238Y-13394143D02*
X10100238Y-13527476D01*
X10052619Y-13317952D02*
X10005000Y-13460809D01*
X10128810Y-13460809D01*
X10195476Y-13327476D02*
X10195476Y-13365571D01*
X10271667Y-13327476D02*
X10271667Y-13365571D01*
X10566905Y-13603667D02*
X10557381Y-13594143D01*
X10538333Y-13565571D01*
X10528810Y-13546524D01*
X10519286Y-13517952D01*
X10509762Y-13470333D01*
X10509762Y-13432238D01*
X10519286Y-13384619D01*
X10528810Y-13356048D01*
X10538333Y-13337000D01*
X10557381Y-13308428D01*
X10566905Y-13298905D01*
X10747857Y-13527476D02*
X10633571Y-13527476D01*
X10690714Y-13527476D02*
X10690714Y-13327476D01*
X10671667Y-13356048D01*
X10652619Y-13375095D01*
X10633571Y-13384619D01*
X10919286Y-13394143D02*
X10919286Y-13527476D01*
X10871667Y-13317952D02*
X10824048Y-13460809D01*
X10947857Y-13460809D01*
X11176429Y-13527476D02*
X11176429Y-13327476D01*
X11262143Y-13527476D02*
X11262143Y-13422714D01*
X11252619Y-13403667D01*
X11233571Y-13394143D01*
X11205000Y-13394143D01*
X11185952Y-13403667D01*
X11176429Y-13413190D01*
X11385952Y-13527476D02*
X11366905Y-13517952D01*
X11357381Y-13508428D01*
X11347857Y-13489381D01*
X11347857Y-13432238D01*
X11357381Y-13413190D01*
X11366905Y-13403667D01*
X11385952Y-13394143D01*
X11414524Y-13394143D01*
X11433571Y-13403667D01*
X11443095Y-13413190D01*
X11452619Y-13432238D01*
X11452619Y-13489381D01*
X11443095Y-13508428D01*
X11433571Y-13517952D01*
X11414524Y-13527476D01*
X11385952Y-13527476D01*
X11566905Y-13527476D02*
X11547857Y-13517952D01*
X11538333Y-13498905D01*
X11538333Y-13327476D01*
X11719286Y-13517952D02*
X11700238Y-13527476D01*
X11662143Y-13527476D01*
X11643095Y-13517952D01*
X11633571Y-13498905D01*
X11633571Y-13422714D01*
X11643095Y-13403667D01*
X11662143Y-13394143D01*
X11700238Y-13394143D01*
X11719286Y-13403667D01*
X11728809Y-13422714D01*
X11728809Y-13441762D01*
X11633571Y-13460809D01*
X11805000Y-13517952D02*
X11824048Y-13527476D01*
X11862143Y-13527476D01*
X11881190Y-13517952D01*
X11890714Y-13498905D01*
X11890714Y-13489381D01*
X11881190Y-13470333D01*
X11862143Y-13460809D01*
X11833571Y-13460809D01*
X11814524Y-13451286D01*
X11805000Y-13432238D01*
X11805000Y-13422714D01*
X11814524Y-13403667D01*
X11833571Y-13394143D01*
X11862143Y-13394143D01*
X11881190Y-13403667D01*
X11957381Y-13603667D02*
X11966905Y-13594143D01*
X11985952Y-13565571D01*
X11995476Y-13546524D01*
X12005000Y-13517952D01*
X12014524Y-13470333D01*
X12014524Y-13432238D01*
X12005000Y-13384619D01*
X11995476Y-13356048D01*
X11985952Y-13337000D01*
X11966905Y-13308428D01*
X11957381Y-13298905D01*
D15*
X6940000Y-13756000D02*
X6995000Y-13701000D01*
X6940000Y-13646000D01*
X6885000Y-13701000D01*
X6940000Y-13756000D01*
D11*
X7357381Y-13791476D02*
X7243095Y-13791476D01*
X7300238Y-13791476D02*
X7300238Y-13591476D01*
X7281190Y-13620048D01*
X7262143Y-13639095D01*
X7243095Y-13648619D01*
X7443095Y-13772428D02*
X7452619Y-13781952D01*
X7443095Y-13791476D01*
X7433571Y-13781952D01*
X7443095Y-13772428D01*
X7443095Y-13791476D01*
X7643095Y-13791476D02*
X7528809Y-13791476D01*
X7585952Y-13791476D02*
X7585952Y-13591476D01*
X7566905Y-13620048D01*
X7547857Y-13639095D01*
X7528809Y-13648619D01*
X7766905Y-13591476D02*
X7785952Y-13591476D01*
X7805000Y-13601000D01*
X7814524Y-13610524D01*
X7824048Y-13629571D01*
X7833571Y-13667667D01*
X7833571Y-13715286D01*
X7824048Y-13753381D01*
X7814524Y-13772428D01*
X7805000Y-13781952D01*
X7785952Y-13791476D01*
X7766905Y-13791476D01*
X7747857Y-13781952D01*
X7738333Y-13772428D01*
X7728809Y-13753381D01*
X7719286Y-13715286D01*
X7719286Y-13667667D01*
X7728809Y-13629571D01*
X7738333Y-13610524D01*
X7747857Y-13601000D01*
X7766905Y-13591476D01*
X7957381Y-13591476D02*
X7976428Y-13591476D01*
X7995476Y-13601000D01*
X8005000Y-13610524D01*
X8014524Y-13629571D01*
X8024048Y-13667667D01*
X8024048Y-13715286D01*
X8014524Y-13753381D01*
X8005000Y-13772428D01*
X7995476Y-13781952D01*
X7976428Y-13791476D01*
X7957381Y-13791476D01*
X7938333Y-13781952D01*
X7928809Y-13772428D01*
X7919286Y-13753381D01*
X7909762Y-13715286D01*
X7909762Y-13667667D01*
X7919286Y-13629571D01*
X7928809Y-13610524D01*
X7938333Y-13601000D01*
X7957381Y-13591476D01*
X8109762Y-13791476D02*
X8109762Y-13658143D01*
X8109762Y-13677190D02*
X8119286Y-13667667D01*
X8138333Y-13658143D01*
X8166905Y-13658143D01*
X8185952Y-13667667D01*
X8195476Y-13686714D01*
X8195476Y-13791476D01*
X8195476Y-13686714D02*
X8205000Y-13667667D01*
X8224048Y-13658143D01*
X8252619Y-13658143D01*
X8271667Y-13667667D01*
X8281190Y-13686714D01*
X8281190Y-13791476D01*
X8376428Y-13791476D02*
X8376428Y-13658143D01*
X8376428Y-13677190D02*
X8385952Y-13667667D01*
X8405000Y-13658143D01*
X8433571Y-13658143D01*
X8452619Y-13667667D01*
X8462143Y-13686714D01*
X8462143Y-13791476D01*
X8462143Y-13686714D02*
X8471667Y-13667667D01*
X8490714Y-13658143D01*
X8519286Y-13658143D01*
X8538333Y-13667667D01*
X8547857Y-13686714D01*
X8547857Y-13791476D01*
X8938333Y-13581952D02*
X8766905Y-13839095D01*
X9195476Y-13591476D02*
X9214524Y-13591476D01*
X9233571Y-13601000D01*
X9243095Y-13610524D01*
X9252619Y-13629571D01*
X9262143Y-13667667D01*
X9262143Y-13715286D01*
X9252619Y-13753381D01*
X9243095Y-13772428D01*
X9233571Y-13781952D01*
X9214524Y-13791476D01*
X9195476Y-13791476D01*
X9176429Y-13781952D01*
X9166905Y-13772428D01*
X9157381Y-13753381D01*
X9147857Y-13715286D01*
X9147857Y-13667667D01*
X9157381Y-13629571D01*
X9166905Y-13610524D01*
X9176429Y-13601000D01*
X9195476Y-13591476D01*
X9347857Y-13772428D02*
X9357381Y-13781952D01*
X9347857Y-13791476D01*
X9338333Y-13781952D01*
X9347857Y-13772428D01*
X9347857Y-13791476D01*
X9481190Y-13591476D02*
X9500238Y-13591476D01*
X9519286Y-13601000D01*
X9528810Y-13610524D01*
X9538333Y-13629571D01*
X9547857Y-13667667D01*
X9547857Y-13715286D01*
X9538333Y-13753381D01*
X9528810Y-13772428D01*
X9519286Y-13781952D01*
X9500238Y-13791476D01*
X9481190Y-13791476D01*
X9462143Y-13781952D01*
X9452619Y-13772428D01*
X9443095Y-13753381D01*
X9433571Y-13715286D01*
X9433571Y-13667667D01*
X9443095Y-13629571D01*
X9452619Y-13610524D01*
X9462143Y-13601000D01*
X9481190Y-13591476D01*
X9719286Y-13658143D02*
X9719286Y-13791476D01*
X9671667Y-13581952D02*
X9624048Y-13724809D01*
X9747857Y-13724809D01*
X9805000Y-13591476D02*
X9928810Y-13591476D01*
X9862143Y-13667667D01*
X9890714Y-13667667D01*
X9909762Y-13677190D01*
X9919286Y-13686714D01*
X9928810Y-13705762D01*
X9928810Y-13753381D01*
X9919286Y-13772428D01*
X9909762Y-13781952D01*
X9890714Y-13791476D01*
X9833571Y-13791476D01*
X9814524Y-13781952D01*
X9805000Y-13772428D01*
X9995476Y-13591476D02*
X10119286Y-13591476D01*
X10052619Y-13667667D01*
X10081190Y-13667667D01*
X10100238Y-13677190D01*
X10109762Y-13686714D01*
X10119286Y-13705762D01*
X10119286Y-13753381D01*
X10109762Y-13772428D01*
X10100238Y-13781952D01*
X10081190Y-13791476D01*
X10024048Y-13791476D01*
X10005000Y-13781952D01*
X9995476Y-13772428D01*
X10195476Y-13591476D02*
X10195476Y-13629571D01*
X10271667Y-13591476D02*
X10271667Y-13629571D01*
X10566905Y-13867667D02*
X10557381Y-13858143D01*
X10538333Y-13829571D01*
X10528810Y-13810524D01*
X10519286Y-13781952D01*
X10509762Y-13734333D01*
X10509762Y-13696238D01*
X10519286Y-13648619D01*
X10528810Y-13620048D01*
X10538333Y-13601000D01*
X10557381Y-13572428D01*
X10566905Y-13562905D01*
X10728810Y-13658143D02*
X10728810Y-13791476D01*
X10681190Y-13581952D02*
X10633571Y-13724809D01*
X10757381Y-13724809D01*
X10985952Y-13791476D02*
X10985952Y-13591476D01*
X11071667Y-13791476D02*
X11071667Y-13686714D01*
X11062143Y-13667667D01*
X11043095Y-13658143D01*
X11014524Y-13658143D01*
X10995476Y-13667667D01*
X10985952Y-13677190D01*
X11195476Y-13791476D02*
X11176429Y-13781952D01*
X11166905Y-13772428D01*
X11157381Y-13753381D01*
X11157381Y-13696238D01*
X11166905Y-13677190D01*
X11176429Y-13667667D01*
X11195476Y-13658143D01*
X11224048Y-13658143D01*
X11243095Y-13667667D01*
X11252619Y-13677190D01*
X11262143Y-13696238D01*
X11262143Y-13753381D01*
X11252619Y-13772428D01*
X11243095Y-13781952D01*
X11224048Y-13791476D01*
X11195476Y-13791476D01*
X11376428Y-13791476D02*
X11357381Y-13781952D01*
X11347857Y-13762905D01*
X11347857Y-13591476D01*
X11528809Y-13781952D02*
X11509762Y-13791476D01*
X11471667Y-13791476D01*
X11452619Y-13781952D01*
X11443095Y-13762905D01*
X11443095Y-13686714D01*
X11452619Y-13667667D01*
X11471667Y-13658143D01*
X11509762Y-13658143D01*
X11528809Y-13667667D01*
X11538333Y-13686714D01*
X11538333Y-13705762D01*
X11443095Y-13724809D01*
X11614524Y-13781952D02*
X11633571Y-13791476D01*
X11671667Y-13791476D01*
X11690714Y-13781952D01*
X11700238Y-13762905D01*
X11700238Y-13753381D01*
X11690714Y-13734333D01*
X11671667Y-13724809D01*
X11643095Y-13724809D01*
X11624048Y-13715286D01*
X11614524Y-13696238D01*
X11614524Y-13686714D01*
X11624048Y-13667667D01*
X11643095Y-13658143D01*
X11671667Y-13658143D01*
X11690714Y-13667667D01*
X11766905Y-13867667D02*
X11776428Y-13858143D01*
X11795476Y-13829571D01*
X11805000Y-13810524D01*
X11814524Y-13781952D01*
X11824048Y-13734333D01*
X11824048Y-13696238D01*
X11814524Y-13648619D01*
X11805000Y-13620048D01*
X11795476Y-13601000D01*
X11776428Y-13572428D01*
X11766905Y-13562905D01*
D16*
X6875000Y-13905000D02*
X6995000Y-14025000D01*
X6995000Y-13905000D02*
X6875000Y-14025000D01*
X6995000Y-13965000D02*
G75*
G03*
X6995000Y-13965000I-60000J0D01*
G01*
D11*
X7357381Y-14055476D02*
X7243095Y-14055476D01*
X7300238Y-14055476D02*
X7300238Y-13855476D01*
X7281190Y-13884048D01*
X7262143Y-13903095D01*
X7243095Y-13912619D01*
X7443095Y-14036428D02*
X7452619Y-14045952D01*
X7443095Y-14055476D01*
X7433571Y-14045952D01*
X7443095Y-14036428D01*
X7443095Y-14055476D01*
X7528809Y-13874524D02*
X7538333Y-13865000D01*
X7557381Y-13855476D01*
X7605000Y-13855476D01*
X7624048Y-13865000D01*
X7633571Y-13874524D01*
X7643095Y-13893571D01*
X7643095Y-13912619D01*
X7633571Y-13941190D01*
X7519286Y-14055476D01*
X7643095Y-14055476D01*
X7766905Y-13855476D02*
X7785952Y-13855476D01*
X7805000Y-13865000D01*
X7814524Y-13874524D01*
X7824048Y-13893571D01*
X7833571Y-13931667D01*
X7833571Y-13979286D01*
X7824048Y-14017381D01*
X7814524Y-14036428D01*
X7805000Y-14045952D01*
X7785952Y-14055476D01*
X7766905Y-14055476D01*
X7747857Y-14045952D01*
X7738333Y-14036428D01*
X7728809Y-14017381D01*
X7719286Y-13979286D01*
X7719286Y-13931667D01*
X7728809Y-13893571D01*
X7738333Y-13874524D01*
X7747857Y-13865000D01*
X7766905Y-13855476D01*
X7957381Y-13855476D02*
X7976428Y-13855476D01*
X7995476Y-13865000D01*
X8005000Y-13874524D01*
X8014524Y-13893571D01*
X8024048Y-13931667D01*
X8024048Y-13979286D01*
X8014524Y-14017381D01*
X8005000Y-14036428D01*
X7995476Y-14045952D01*
X7976428Y-14055476D01*
X7957381Y-14055476D01*
X7938333Y-14045952D01*
X7928809Y-14036428D01*
X7919286Y-14017381D01*
X7909762Y-13979286D01*
X7909762Y-13931667D01*
X7919286Y-13893571D01*
X7928809Y-13874524D01*
X7938333Y-13865000D01*
X7957381Y-13855476D01*
X8109762Y-14055476D02*
X8109762Y-13922143D01*
X8109762Y-13941190D02*
X8119286Y-13931667D01*
X8138333Y-13922143D01*
X8166905Y-13922143D01*
X8185952Y-13931667D01*
X8195476Y-13950714D01*
X8195476Y-14055476D01*
X8195476Y-13950714D02*
X8205000Y-13931667D01*
X8224048Y-13922143D01*
X8252619Y-13922143D01*
X8271667Y-13931667D01*
X8281190Y-13950714D01*
X8281190Y-14055476D01*
X8376428Y-14055476D02*
X8376428Y-13922143D01*
X8376428Y-13941190D02*
X8385952Y-13931667D01*
X8405000Y-13922143D01*
X8433571Y-13922143D01*
X8452619Y-13931667D01*
X8462143Y-13950714D01*
X8462143Y-14055476D01*
X8462143Y-13950714D02*
X8471667Y-13931667D01*
X8490714Y-13922143D01*
X8519286Y-13922143D01*
X8538333Y-13931667D01*
X8547857Y-13950714D01*
X8547857Y-14055476D01*
X8938333Y-13845952D02*
X8766905Y-14103095D01*
X9195476Y-13855476D02*
X9214524Y-13855476D01*
X9233571Y-13865000D01*
X9243095Y-13874524D01*
X9252619Y-13893571D01*
X9262143Y-13931667D01*
X9262143Y-13979286D01*
X9252619Y-14017381D01*
X9243095Y-14036428D01*
X9233571Y-14045952D01*
X9214524Y-14055476D01*
X9195476Y-14055476D01*
X9176429Y-14045952D01*
X9166905Y-14036428D01*
X9157381Y-14017381D01*
X9147857Y-13979286D01*
X9147857Y-13931667D01*
X9157381Y-13893571D01*
X9166905Y-13874524D01*
X9176429Y-13865000D01*
X9195476Y-13855476D01*
X9347857Y-14036428D02*
X9357381Y-14045952D01*
X9347857Y-14055476D01*
X9338333Y-14045952D01*
X9347857Y-14036428D01*
X9347857Y-14055476D01*
X9481190Y-13855476D02*
X9500238Y-13855476D01*
X9519286Y-13865000D01*
X9528810Y-13874524D01*
X9538333Y-13893571D01*
X9547857Y-13931667D01*
X9547857Y-13979286D01*
X9538333Y-14017381D01*
X9528810Y-14036428D01*
X9519286Y-14045952D01*
X9500238Y-14055476D01*
X9481190Y-14055476D01*
X9462143Y-14045952D01*
X9452619Y-14036428D01*
X9443095Y-14017381D01*
X9433571Y-13979286D01*
X9433571Y-13931667D01*
X9443095Y-13893571D01*
X9452619Y-13874524D01*
X9462143Y-13865000D01*
X9481190Y-13855476D01*
X9719286Y-13922143D02*
X9719286Y-14055476D01*
X9671667Y-13845952D02*
X9624048Y-13988809D01*
X9747857Y-13988809D01*
X9805000Y-13855476D02*
X9938333Y-13855476D01*
X9852619Y-14055476D01*
X10005000Y-13874524D02*
X10014524Y-13865000D01*
X10033571Y-13855476D01*
X10081190Y-13855476D01*
X10100238Y-13865000D01*
X10109762Y-13874524D01*
X10119286Y-13893571D01*
X10119286Y-13912619D01*
X10109762Y-13941190D01*
X9995476Y-14055476D01*
X10119286Y-14055476D01*
X10195476Y-13855476D02*
X10195476Y-13893571D01*
X10271667Y-13855476D02*
X10271667Y-13893571D01*
X10566905Y-14131667D02*
X10557381Y-14122143D01*
X10538333Y-14093571D01*
X10528810Y-14074524D01*
X10519286Y-14045952D01*
X10509762Y-13998333D01*
X10509762Y-13960238D01*
X10519286Y-13912619D01*
X10528810Y-13884048D01*
X10538333Y-13865000D01*
X10557381Y-13836428D01*
X10566905Y-13826905D01*
X10633571Y-13874524D02*
X10643095Y-13865000D01*
X10662143Y-13855476D01*
X10709762Y-13855476D01*
X10728810Y-13865000D01*
X10738333Y-13874524D01*
X10747857Y-13893571D01*
X10747857Y-13912619D01*
X10738333Y-13941190D01*
X10624048Y-14055476D01*
X10747857Y-14055476D01*
X10985952Y-14055476D02*
X10985952Y-13855476D01*
X11071667Y-14055476D02*
X11071667Y-13950714D01*
X11062143Y-13931667D01*
X11043095Y-13922143D01*
X11014524Y-13922143D01*
X10995476Y-13931667D01*
X10985952Y-13941190D01*
X11195476Y-14055476D02*
X11176429Y-14045952D01*
X11166905Y-14036428D01*
X11157381Y-14017381D01*
X11157381Y-13960238D01*
X11166905Y-13941190D01*
X11176429Y-13931667D01*
X11195476Y-13922143D01*
X11224048Y-13922143D01*
X11243095Y-13931667D01*
X11252619Y-13941190D01*
X11262143Y-13960238D01*
X11262143Y-14017381D01*
X11252619Y-14036428D01*
X11243095Y-14045952D01*
X11224048Y-14055476D01*
X11195476Y-14055476D01*
X11376428Y-14055476D02*
X11357381Y-14045952D01*
X11347857Y-14026905D01*
X11347857Y-13855476D01*
X11528809Y-14045952D02*
X11509762Y-14055476D01*
X11471667Y-14055476D01*
X11452619Y-14045952D01*
X11443095Y-14026905D01*
X11443095Y-13950714D01*
X11452619Y-13931667D01*
X11471667Y-13922143D01*
X11509762Y-13922143D01*
X11528809Y-13931667D01*
X11538333Y-13950714D01*
X11538333Y-13969762D01*
X11443095Y-13988809D01*
X11614524Y-14045952D02*
X11633571Y-14055476D01*
X11671667Y-14055476D01*
X11690714Y-14045952D01*
X11700238Y-14026905D01*
X11700238Y-14017381D01*
X11690714Y-13998333D01*
X11671667Y-13988809D01*
X11643095Y-13988809D01*
X11624048Y-13979286D01*
X11614524Y-13960238D01*
X11614524Y-13950714D01*
X11624048Y-13931667D01*
X11643095Y-13922143D01*
X11671667Y-13922143D01*
X11690714Y-13931667D01*
X11766905Y-14131667D02*
X11776428Y-14122143D01*
X11795476Y-14093571D01*
X11805000Y-14074524D01*
X11814524Y-14045952D01*
X11824048Y-13998333D01*
X11824048Y-13960238D01*
X11814524Y-13912619D01*
X11805000Y-13884048D01*
X11795476Y-13865000D01*
X11776428Y-13836428D01*
X11766905Y-13826905D01*
X6795000Y-14129000D02*
X6995000Y-14329000D01*
X6995000Y-14129000D02*
X6795000Y-14329000D01*
X6895000Y-14129000D02*
X6895000Y-14329000D01*
X6795000Y-14229000D02*
X6995000Y-14229000D01*
X7243095Y-14138524D02*
X7252619Y-14129000D01*
X7271667Y-14119476D01*
X7319286Y-14119476D01*
X7338333Y-14129000D01*
X7347857Y-14138524D01*
X7357381Y-14157571D01*
X7357381Y-14176619D01*
X7347857Y-14205190D01*
X7233571Y-14319476D01*
X7357381Y-14319476D01*
X7443095Y-14300428D02*
X7452619Y-14309952D01*
X7443095Y-14319476D01*
X7433571Y-14309952D01*
X7443095Y-14300428D01*
X7443095Y-14319476D01*
X7519286Y-14119476D02*
X7643095Y-14119476D01*
X7576428Y-14195667D01*
X7605000Y-14195667D01*
X7624048Y-14205190D01*
X7633571Y-14214714D01*
X7643095Y-14233762D01*
X7643095Y-14281381D01*
X7633571Y-14300428D01*
X7624048Y-14309952D01*
X7605000Y-14319476D01*
X7547857Y-14319476D01*
X7528809Y-14309952D01*
X7519286Y-14300428D01*
X7709762Y-14119476D02*
X7833571Y-14119476D01*
X7766905Y-14195667D01*
X7795476Y-14195667D01*
X7814524Y-14205190D01*
X7824048Y-14214714D01*
X7833571Y-14233762D01*
X7833571Y-14281381D01*
X7824048Y-14300428D01*
X7814524Y-14309952D01*
X7795476Y-14319476D01*
X7738333Y-14319476D01*
X7719286Y-14309952D01*
X7709762Y-14300428D01*
X7957381Y-14119476D02*
X7976428Y-14119476D01*
X7995476Y-14129000D01*
X8005000Y-14138524D01*
X8014524Y-14157571D01*
X8024048Y-14195667D01*
X8024048Y-14243286D01*
X8014524Y-14281381D01*
X8005000Y-14300428D01*
X7995476Y-14309952D01*
X7976428Y-14319476D01*
X7957381Y-14319476D01*
X7938333Y-14309952D01*
X7928809Y-14300428D01*
X7919286Y-14281381D01*
X7909762Y-14243286D01*
X7909762Y-14195667D01*
X7919286Y-14157571D01*
X7928809Y-14138524D01*
X7938333Y-14129000D01*
X7957381Y-14119476D01*
X8109762Y-14319476D02*
X8109762Y-14186143D01*
X8109762Y-14205190D02*
X8119286Y-14195667D01*
X8138333Y-14186143D01*
X8166905Y-14186143D01*
X8185952Y-14195667D01*
X8195476Y-14214714D01*
X8195476Y-14319476D01*
X8195476Y-14214714D02*
X8205000Y-14195667D01*
X8224048Y-14186143D01*
X8252619Y-14186143D01*
X8271667Y-14195667D01*
X8281190Y-14214714D01*
X8281190Y-14319476D01*
X8376428Y-14319476D02*
X8376428Y-14186143D01*
X8376428Y-14205190D02*
X8385952Y-14195667D01*
X8405000Y-14186143D01*
X8433571Y-14186143D01*
X8452619Y-14195667D01*
X8462143Y-14214714D01*
X8462143Y-14319476D01*
X8462143Y-14214714D02*
X8471667Y-14195667D01*
X8490714Y-14186143D01*
X8519286Y-14186143D01*
X8538333Y-14195667D01*
X8547857Y-14214714D01*
X8547857Y-14319476D01*
X8938333Y-14109952D02*
X8766905Y-14367095D01*
X9195476Y-14119476D02*
X9214524Y-14119476D01*
X9233571Y-14129000D01*
X9243095Y-14138524D01*
X9252619Y-14157571D01*
X9262143Y-14195667D01*
X9262143Y-14243286D01*
X9252619Y-14281381D01*
X9243095Y-14300428D01*
X9233571Y-14309952D01*
X9214524Y-14319476D01*
X9195476Y-14319476D01*
X9176429Y-14309952D01*
X9166905Y-14300428D01*
X9157381Y-14281381D01*
X9147857Y-14243286D01*
X9147857Y-14195667D01*
X9157381Y-14157571D01*
X9166905Y-14138524D01*
X9176429Y-14129000D01*
X9195476Y-14119476D01*
X9347857Y-14300428D02*
X9357381Y-14309952D01*
X9347857Y-14319476D01*
X9338333Y-14309952D01*
X9347857Y-14300428D01*
X9347857Y-14319476D01*
X9481190Y-14119476D02*
X9500238Y-14119476D01*
X9519286Y-14129000D01*
X9528810Y-14138524D01*
X9538333Y-14157571D01*
X9547857Y-14195667D01*
X9547857Y-14243286D01*
X9538333Y-14281381D01*
X9528810Y-14300428D01*
X9519286Y-14309952D01*
X9500238Y-14319476D01*
X9481190Y-14319476D01*
X9462143Y-14309952D01*
X9452619Y-14300428D01*
X9443095Y-14281381D01*
X9433571Y-14243286D01*
X9433571Y-14195667D01*
X9443095Y-14157571D01*
X9452619Y-14138524D01*
X9462143Y-14129000D01*
X9481190Y-14119476D01*
X9643095Y-14319476D02*
X9681190Y-14319476D01*
X9700238Y-14309952D01*
X9709762Y-14300428D01*
X9728810Y-14271857D01*
X9738333Y-14233762D01*
X9738333Y-14157571D01*
X9728810Y-14138524D01*
X9719286Y-14129000D01*
X9700238Y-14119476D01*
X9662143Y-14119476D01*
X9643095Y-14129000D01*
X9633571Y-14138524D01*
X9624048Y-14157571D01*
X9624048Y-14205190D01*
X9633571Y-14224238D01*
X9643095Y-14233762D01*
X9662143Y-14243286D01*
X9700238Y-14243286D01*
X9719286Y-14233762D01*
X9728810Y-14224238D01*
X9738333Y-14205190D01*
X9928810Y-14319476D02*
X9814524Y-14319476D01*
X9871667Y-14319476D02*
X9871667Y-14119476D01*
X9852619Y-14148048D01*
X9833571Y-14167095D01*
X9814524Y-14176619D01*
X9995476Y-14119476D02*
X10128810Y-14119476D01*
X10043095Y-14319476D01*
X10195476Y-14119476D02*
X10195476Y-14157571D01*
X10271667Y-14119476D02*
X10271667Y-14157571D01*
X10566905Y-14395667D02*
X10557381Y-14386143D01*
X10538333Y-14357571D01*
X10528810Y-14338524D01*
X10519286Y-14309952D01*
X10509762Y-14262333D01*
X10509762Y-14224238D01*
X10519286Y-14176619D01*
X10528810Y-14148048D01*
X10538333Y-14129000D01*
X10557381Y-14100428D01*
X10566905Y-14090905D01*
X10633571Y-14138524D02*
X10643095Y-14129000D01*
X10662143Y-14119476D01*
X10709762Y-14119476D01*
X10728810Y-14129000D01*
X10738333Y-14138524D01*
X10747857Y-14157571D01*
X10747857Y-14176619D01*
X10738333Y-14205190D01*
X10624048Y-14319476D01*
X10747857Y-14319476D01*
X10985952Y-14319476D02*
X10985952Y-14119476D01*
X11071667Y-14319476D02*
X11071667Y-14214714D01*
X11062143Y-14195667D01*
X11043095Y-14186143D01*
X11014524Y-14186143D01*
X10995476Y-14195667D01*
X10985952Y-14205190D01*
X11195476Y-14319476D02*
X11176429Y-14309952D01*
X11166905Y-14300428D01*
X11157381Y-14281381D01*
X11157381Y-14224238D01*
X11166905Y-14205190D01*
X11176429Y-14195667D01*
X11195476Y-14186143D01*
X11224048Y-14186143D01*
X11243095Y-14195667D01*
X11252619Y-14205190D01*
X11262143Y-14224238D01*
X11262143Y-14281381D01*
X11252619Y-14300428D01*
X11243095Y-14309952D01*
X11224048Y-14319476D01*
X11195476Y-14319476D01*
X11376428Y-14319476D02*
X11357381Y-14309952D01*
X11347857Y-14290905D01*
X11347857Y-14119476D01*
X11528809Y-14309952D02*
X11509762Y-14319476D01*
X11471667Y-14319476D01*
X11452619Y-14309952D01*
X11443095Y-14290905D01*
X11443095Y-14214714D01*
X11452619Y-14195667D01*
X11471667Y-14186143D01*
X11509762Y-14186143D01*
X11528809Y-14195667D01*
X11538333Y-14214714D01*
X11538333Y-14233762D01*
X11443095Y-14252809D01*
X11614524Y-14309952D02*
X11633571Y-14319476D01*
X11671667Y-14319476D01*
X11690714Y-14309952D01*
X11700238Y-14290905D01*
X11700238Y-14281381D01*
X11690714Y-14262333D01*
X11671667Y-14252809D01*
X11643095Y-14252809D01*
X11624048Y-14243286D01*
X11614524Y-14224238D01*
X11614524Y-14214714D01*
X11624048Y-14195667D01*
X11643095Y-14186143D01*
X11671667Y-14186143D01*
X11690714Y-14195667D01*
X11766905Y-14395667D02*
X11776428Y-14386143D01*
X11795476Y-14357571D01*
X11805000Y-14338524D01*
X11814524Y-14309952D01*
X11824048Y-14262333D01*
X11824048Y-14224238D01*
X11814524Y-14176619D01*
X11805000Y-14148048D01*
X11795476Y-14129000D01*
X11776428Y-14100428D01*
X11766905Y-14090905D01*
M02*
