%TF.GenerationSoftware,KiCad,Pcbnew,(6.0.7)*%
%TF.CreationDate,2023-10-27T20:15:12+01:00*%
%TF.ProjectId,slide_tester,736c6964-655f-4746-9573-7465722e6b69,rev?*%
%TF.SameCoordinates,Original*%
%TF.FileFunction,Soldermask,Bot*%
%TF.FilePolarity,Negative*%
%FSLAX46Y46*%
G04 Gerber Fmt 4.6, Leading zero omitted, Abs format (unit mm)*
G04 Created by KiCad (PCBNEW (6.0.7)) date 2023-10-27 20:15:12*
%MOMM*%
%LPD*%
G01*
G04 APERTURE LIST*
%ADD10C,2.000000*%
%ADD11R,1.300000X1.300000*%
%ADD12C,1.300000*%
%ADD13C,3.000000*%
%ADD14C,3.200000*%
%ADD15R,1.800000X1.800000*%
%ADD16C,1.800000*%
%ADD17C,3.500000*%
%ADD18R,3.000000X3.000000*%
%ADD19R,1.700000X1.700000*%
%ADD20C,1.700000*%
%ADD21R,2.200000X2.200000*%
%ADD22O,2.200000X2.200000*%
G04 APERTURE END LIST*
D10*
%TO.C,R6*%
X116000000Y-79000000D03*
X125000000Y-79000000D03*
%TD*%
%TO.C,R3*%
X125000000Y-85500000D03*
X116000000Y-85500000D03*
%TD*%
D11*
%TO.C,Q2*%
X115460000Y-99000000D03*
D12*
X116730000Y-97730000D03*
X118000000Y-99000000D03*
%TD*%
D11*
%TO.C,Q3*%
X119000000Y-72500000D03*
D12*
X120270000Y-71230000D03*
X121540000Y-72500000D03*
%TD*%
D13*
%TO.C,J2*%
X103000000Y-79500000D03*
%TD*%
D14*
%TO.C,REF\u002A\u002A*%
X196000000Y-116000000D03*
%TD*%
%TO.C,REF\u002A\u002A*%
X104000000Y-54000000D03*
%TD*%
%TO.C,REF\u002A\u002A*%
X104000000Y-116000000D03*
%TD*%
D13*
%TO.C,J3*%
X103000000Y-90500000D03*
%TD*%
D10*
%TO.C,R2*%
X125000000Y-92000000D03*
X116000000Y-92000000D03*
%TD*%
%TO.C,R4*%
X110000000Y-89500000D03*
X110000000Y-80500000D03*
%TD*%
%TO.C,R1*%
X184000000Y-97000000D03*
X184000000Y-106000000D03*
%TD*%
D14*
%TO.C,REF\u002A\u002A*%
X196000000Y-54000000D03*
%TD*%
D15*
%TO.C,D1*%
X190000000Y-96460000D03*
D16*
X190000000Y-99000000D03*
%TD*%
D17*
%TO.C,BT1*%
X139500000Y-84857500D03*
X169500000Y-84857500D03*
D18*
X139500000Y-111557500D03*
D13*
X152300000Y-111557500D03*
%TD*%
D10*
%TO.C,R5*%
X125000000Y-105000000D03*
X116000000Y-105000000D03*
%TD*%
D19*
%TO.C,J1*%
X183620000Y-83750000D03*
D20*
X183620000Y-86250000D03*
X185620000Y-86250000D03*
X185620000Y-83750000D03*
D17*
X188330000Y-91020000D03*
X188330000Y-78980000D03*
%TD*%
D21*
%TO.C,D3*%
X115000000Y-73500000D03*
D22*
X115000000Y-63340000D03*
%TD*%
D21*
%TO.C,D2*%
X126000000Y-73500000D03*
D22*
X126000000Y-63340000D03*
%TD*%
D15*
%TO.C,D4*%
X103000000Y-83725000D03*
D16*
X103000000Y-86265000D03*
%TD*%
D11*
%TO.C,Q1*%
X123460000Y-99000000D03*
D12*
X124730000Y-97730000D03*
X126000000Y-99000000D03*
%TD*%
M02*
