%TF.GenerationSoftware,KiCad,Pcbnew,(6.0.7)*%
%TF.CreationDate,2023-10-27T20:15:12+01:00*%
%TF.ProjectId,slide_tester,736c6964-655f-4746-9573-7465722e6b69,rev?*%
%TF.SameCoordinates,Original*%
%TF.FileFunction,Copper,L2,Bot*%
%TF.FilePolarity,Positive*%
%FSLAX46Y46*%
G04 Gerber Fmt 4.6, Leading zero omitted, Abs format (unit mm)*
G04 Created by KiCad (PCBNEW (6.0.7)) date 2023-10-27 20:15:12*
%MOMM*%
%LPD*%
G01*
G04 APERTURE LIST*
%TA.AperFunction,ComponentPad*%
%ADD10C,2.000000*%
%TD*%
%TA.AperFunction,ComponentPad*%
%ADD11R,1.300000X1.300000*%
%TD*%
%TA.AperFunction,ComponentPad*%
%ADD12C,1.300000*%
%TD*%
%TA.AperFunction,ComponentPad*%
%ADD13C,3.000000*%
%TD*%
%TA.AperFunction,ComponentPad*%
%ADD14R,1.800000X1.800000*%
%TD*%
%TA.AperFunction,ComponentPad*%
%ADD15C,1.800000*%
%TD*%
%TA.AperFunction,ComponentPad*%
%ADD16R,3.000000X3.000000*%
%TD*%
%TA.AperFunction,ComponentPad*%
%ADD17R,1.700000X1.700000*%
%TD*%
%TA.AperFunction,ComponentPad*%
%ADD18C,1.700000*%
%TD*%
%TA.AperFunction,ComponentPad*%
%ADD19C,3.500000*%
%TD*%
%TA.AperFunction,ComponentPad*%
%ADD20R,2.200000X2.200000*%
%TD*%
%TA.AperFunction,ComponentPad*%
%ADD21O,2.200000X2.200000*%
%TD*%
G04 APERTURE END LIST*
D10*
%TO.P,R6,1*%
%TO.N,Net-(D2-Pad1)*%
X116000000Y-79000000D03*
%TO.P,R6,2*%
%TO.N,Net-(Q3-Pad2)*%
X125000000Y-79000000D03*
%TD*%
%TO.P,R3,1*%
%TO.N,Net-(D2-Pad1)*%
X125000000Y-85500000D03*
%TO.P,R3,2*%
%TO.N,GND*%
X116000000Y-85500000D03*
%TD*%
D11*
%TO.P,Q2,1,C*%
%TO.N,Net-(BT1-Pad1)*%
X115460000Y-99000000D03*
D12*
%TO.P,Q2,2,B*%
%TO.N,Net-(Q1-Pad1)*%
X116730000Y-97730000D03*
%TO.P,Q2,3,E*%
%TO.N,Net-(Q1-Pad2)*%
X118000000Y-99000000D03*
%TD*%
D11*
%TO.P,Q3,1,C*%
%TO.N,Net-(D3-Pad1)*%
X119000000Y-72500000D03*
D12*
%TO.P,Q3,2,B*%
%TO.N,Net-(Q3-Pad2)*%
X120270000Y-71230000D03*
%TO.P,Q3,3,E*%
%TO.N,Net-(BT1-Pad1)*%
X121540000Y-72500000D03*
%TD*%
D13*
%TO.P,J2,1,Pin_1*%
%TO.N,Net-(D3-Pad1)*%
X103000000Y-79500000D03*
%TD*%
%TO.P,J3,1,Pin_1*%
%TO.N,Net-(J3-Pad1)*%
X103000000Y-90500000D03*
%TD*%
D10*
%TO.P,R2,1*%
%TO.N,Net-(D2-Pad1)*%
X125000000Y-92000000D03*
%TO.P,R2,2*%
%TO.N,Net-(Q1-Pad2)*%
X116000000Y-92000000D03*
%TD*%
%TO.P,R4,1*%
%TO.N,Net-(J3-Pad1)*%
X110000000Y-89500000D03*
%TO.P,R4,2*%
%TO.N,Net-(D4-Pad2)*%
X110000000Y-80500000D03*
%TD*%
%TO.P,R1,1*%
%TO.N,Net-(D2-Pad2)*%
X184000000Y-97000000D03*
%TO.P,R1,2*%
%TO.N,Net-(D1-Pad2)*%
X184000000Y-106000000D03*
%TD*%
D14*
%TO.P,D1,1,K*%
%TO.N,GND*%
X190000000Y-96460000D03*
D15*
%TO.P,D1,2,A*%
%TO.N,Net-(D1-Pad2)*%
X190000000Y-99000000D03*
%TD*%
D16*
%TO.P,BT1,1,+*%
%TO.N,Net-(BT1-Pad1)*%
X139500000Y-111557500D03*
D13*
%TO.P,BT1,2,-*%
%TO.N,GND*%
X152300000Y-111557500D03*
%TD*%
D10*
%TO.P,R5,1*%
%TO.N,Net-(Q1-Pad1)*%
X125000000Y-105000000D03*
%TO.P,R5,2*%
%TO.N,GND*%
X116000000Y-105000000D03*
%TD*%
D17*
%TO.P,J1,1,VBUS*%
%TO.N,Net-(D2-Pad2)*%
X183620000Y-83750000D03*
D18*
%TO.P,J1,2,D-*%
%TO.N,Net-(J1-Pad2)*%
X183620000Y-86250000D03*
%TO.P,J1,3,D+*%
X185620000Y-86250000D03*
%TO.P,J1,4,GND*%
%TO.N,GND*%
X185620000Y-83750000D03*
D19*
%TO.P,J1,5,Shield*%
X188330000Y-91020000D03*
X188330000Y-78980000D03*
%TD*%
D20*
%TO.P,D3,1,K*%
%TO.N,Net-(D3-Pad1)*%
X115000000Y-73500000D03*
D21*
%TO.P,D3,2,A*%
%TO.N,Net-(D2-Pad1)*%
X115000000Y-63340000D03*
%TD*%
D20*
%TO.P,D2,1,K*%
%TO.N,Net-(D2-Pad1)*%
X126000000Y-73500000D03*
D21*
%TO.P,D2,2,A*%
%TO.N,Net-(D2-Pad2)*%
X126000000Y-63340000D03*
%TD*%
D14*
%TO.P,D4,1,K*%
%TO.N,GND*%
X103000000Y-83725000D03*
D15*
%TO.P,D4,2,A*%
%TO.N,Net-(D4-Pad2)*%
X103000000Y-86265000D03*
%TD*%
D11*
%TO.P,Q1,1,C*%
%TO.N,Net-(Q1-Pad1)*%
X123460000Y-99000000D03*
D12*
%TO.P,Q1,2,B*%
%TO.N,Net-(Q1-Pad2)*%
X124730000Y-97730000D03*
%TO.P,Q1,3,E*%
%TO.N,Net-(D2-Pad1)*%
X126000000Y-99000000D03*
%TD*%
%TA.AperFunction,Conductor*%
%TO.N,GND*%
G36*
X198942121Y-51020002D02*
G01*
X198988614Y-51073658D01*
X199000000Y-51126000D01*
X199000000Y-118874000D01*
X198979998Y-118942121D01*
X198926342Y-118988614D01*
X198874000Y-119000000D01*
X101126000Y-119000000D01*
X101057879Y-118979998D01*
X101011386Y-118926342D01*
X101000000Y-118874000D01*
X101000000Y-116132703D01*
X101890743Y-116132703D01*
X101928268Y-116417734D01*
X102004129Y-116695036D01*
X102116923Y-116959476D01*
X102264561Y-117206161D01*
X102444313Y-117430528D01*
X102652851Y-117628423D01*
X102886317Y-117796186D01*
X102890112Y-117798195D01*
X102890113Y-117798196D01*
X102911869Y-117809715D01*
X103140392Y-117930712D01*
X103410373Y-118029511D01*
X103691264Y-118090755D01*
X103719841Y-118093004D01*
X103914282Y-118108307D01*
X103914291Y-118108307D01*
X103916739Y-118108500D01*
X104072271Y-118108500D01*
X104074407Y-118108354D01*
X104074418Y-118108354D01*
X104282548Y-118094165D01*
X104282554Y-118094164D01*
X104286825Y-118093873D01*
X104291020Y-118093004D01*
X104291022Y-118093004D01*
X104427583Y-118064724D01*
X104568342Y-118035574D01*
X104839343Y-117939607D01*
X105094812Y-117807750D01*
X105098313Y-117805289D01*
X105098317Y-117805287D01*
X105212418Y-117725095D01*
X105330023Y-117642441D01*
X105540622Y-117446740D01*
X105722713Y-117224268D01*
X105872927Y-116979142D01*
X105988483Y-116715898D01*
X106067244Y-116439406D01*
X106107751Y-116154784D01*
X106107845Y-116136951D01*
X106107867Y-116132703D01*
X193890743Y-116132703D01*
X193928268Y-116417734D01*
X194004129Y-116695036D01*
X194116923Y-116959476D01*
X194264561Y-117206161D01*
X194444313Y-117430528D01*
X194652851Y-117628423D01*
X194886317Y-117796186D01*
X194890112Y-117798195D01*
X194890113Y-117798196D01*
X194911869Y-117809715D01*
X195140392Y-117930712D01*
X195410373Y-118029511D01*
X195691264Y-118090755D01*
X195719841Y-118093004D01*
X195914282Y-118108307D01*
X195914291Y-118108307D01*
X195916739Y-118108500D01*
X196072271Y-118108500D01*
X196074407Y-118108354D01*
X196074418Y-118108354D01*
X196282548Y-118094165D01*
X196282554Y-118094164D01*
X196286825Y-118093873D01*
X196291020Y-118093004D01*
X196291022Y-118093004D01*
X196427583Y-118064724D01*
X196568342Y-118035574D01*
X196839343Y-117939607D01*
X197094812Y-117807750D01*
X197098313Y-117805289D01*
X197098317Y-117805287D01*
X197212418Y-117725095D01*
X197330023Y-117642441D01*
X197540622Y-117446740D01*
X197722713Y-117224268D01*
X197872927Y-116979142D01*
X197988483Y-116715898D01*
X198067244Y-116439406D01*
X198107751Y-116154784D01*
X198107845Y-116136951D01*
X198109235Y-115871583D01*
X198109235Y-115871576D01*
X198109257Y-115867297D01*
X198071732Y-115582266D01*
X197995871Y-115304964D01*
X197883077Y-115040524D01*
X197735439Y-114793839D01*
X197555687Y-114569472D01*
X197347149Y-114371577D01*
X197113683Y-114203814D01*
X197091843Y-114192250D01*
X197068654Y-114179972D01*
X196859608Y-114069288D01*
X196589627Y-113970489D01*
X196308736Y-113909245D01*
X196277685Y-113906801D01*
X196085718Y-113891693D01*
X196085709Y-113891693D01*
X196083261Y-113891500D01*
X195927729Y-113891500D01*
X195925593Y-113891646D01*
X195925582Y-113891646D01*
X195717452Y-113905835D01*
X195717446Y-113905836D01*
X195713175Y-113906127D01*
X195708980Y-113906996D01*
X195708978Y-113906996D01*
X195572417Y-113935276D01*
X195431658Y-113964426D01*
X195160657Y-114060393D01*
X194905188Y-114192250D01*
X194901687Y-114194711D01*
X194901683Y-114194713D01*
X194891594Y-114201804D01*
X194669977Y-114357559D01*
X194459378Y-114553260D01*
X194277287Y-114775732D01*
X194127073Y-115020858D01*
X194011517Y-115284102D01*
X193932756Y-115560594D01*
X193892249Y-115845216D01*
X193892227Y-115849505D01*
X193892226Y-115849512D01*
X193890765Y-116128417D01*
X193890743Y-116132703D01*
X106107867Y-116132703D01*
X106109235Y-115871583D01*
X106109235Y-115871576D01*
X106109257Y-115867297D01*
X106071732Y-115582266D01*
X105995871Y-115304964D01*
X105883077Y-115040524D01*
X105735439Y-114793839D01*
X105555687Y-114569472D01*
X105347149Y-114371577D01*
X105113683Y-114203814D01*
X105091843Y-114192250D01*
X105068654Y-114179972D01*
X104859608Y-114069288D01*
X104589627Y-113970489D01*
X104308736Y-113909245D01*
X104277685Y-113906801D01*
X104085718Y-113891693D01*
X104085709Y-113891693D01*
X104083261Y-113891500D01*
X103927729Y-113891500D01*
X103925593Y-113891646D01*
X103925582Y-113891646D01*
X103717452Y-113905835D01*
X103717446Y-113905836D01*
X103713175Y-113906127D01*
X103708980Y-113906996D01*
X103708978Y-113906996D01*
X103572417Y-113935276D01*
X103431658Y-113964426D01*
X103160657Y-114060393D01*
X102905188Y-114192250D01*
X102901687Y-114194711D01*
X102901683Y-114194713D01*
X102891594Y-114201804D01*
X102669977Y-114357559D01*
X102459378Y-114553260D01*
X102277287Y-114775732D01*
X102127073Y-115020858D01*
X102011517Y-115284102D01*
X101932756Y-115560594D01*
X101892249Y-115845216D01*
X101892227Y-115849505D01*
X101892226Y-115849512D01*
X101890765Y-116128417D01*
X101890743Y-116132703D01*
X101000000Y-116132703D01*
X101000000Y-113105634D01*
X137491500Y-113105634D01*
X137498255Y-113167816D01*
X137549385Y-113304205D01*
X137636739Y-113420761D01*
X137753295Y-113508115D01*
X137889684Y-113559245D01*
X137951866Y-113566000D01*
X141048134Y-113566000D01*
X141110316Y-113559245D01*
X141246705Y-113508115D01*
X141363261Y-113420761D01*
X141450615Y-113304205D01*
X141501745Y-113167816D01*
X141503990Y-113147154D01*
X151075618Y-113147154D01*
X151082673Y-113157127D01*
X151113679Y-113183051D01*
X151120598Y-113188079D01*
X151345272Y-113329015D01*
X151352807Y-113333056D01*
X151594520Y-113442194D01*
X151602551Y-113445180D01*
X151856832Y-113520502D01*
X151865184Y-113522369D01*
X152127340Y-113562484D01*
X152135874Y-113563200D01*
X152401045Y-113567367D01*
X152409596Y-113566918D01*
X152672883Y-113535057D01*
X152681284Y-113533455D01*
X152937824Y-113466153D01*
X152945926Y-113463426D01*
X153190949Y-113361934D01*
X153198617Y-113358128D01*
X153427598Y-113224322D01*
X153434679Y-113219509D01*
X153514655Y-113156801D01*
X153523125Y-113144942D01*
X153516608Y-113133318D01*
X152312812Y-111929522D01*
X152298868Y-111921908D01*
X152297035Y-111922039D01*
X152290420Y-111926290D01*
X151082910Y-113133800D01*
X151075618Y-113147154D01*
X141503990Y-113147154D01*
X141508500Y-113105634D01*
X141508500Y-111540704D01*
X150287665Y-111540704D01*
X150302932Y-111805469D01*
X150304005Y-111813970D01*
X150355065Y-112074222D01*
X150357276Y-112082474D01*
X150443184Y-112333394D01*
X150446499Y-112341279D01*
X150565664Y-112578213D01*
X150570020Y-112585579D01*
X150699347Y-112773750D01*
X150709601Y-112782094D01*
X150723342Y-112774948D01*
X151927978Y-111570312D01*
X151934356Y-111558632D01*
X152664408Y-111558632D01*
X152664539Y-111560465D01*
X152668790Y-111567080D01*
X153875730Y-112774020D01*
X153887939Y-112780687D01*
X153899439Y-112771997D01*
X153996831Y-112639413D01*
X154001418Y-112632185D01*
X154127962Y-112399121D01*
X154131530Y-112391327D01*
X154225271Y-112143250D01*
X154227748Y-112135044D01*
X154286954Y-111876538D01*
X154288294Y-111868077D01*
X154312031Y-111602116D01*
X154312277Y-111597177D01*
X154312666Y-111559985D01*
X154312523Y-111555019D01*
X154294362Y-111288623D01*
X154293201Y-111280149D01*
X154239419Y-111020444D01*
X154237120Y-111012209D01*
X154148588Y-110762205D01*
X154145191Y-110754354D01*
X154023550Y-110518678D01*
X154019122Y-110511366D01*
X153900031Y-110341917D01*
X153889509Y-110333537D01*
X153876121Y-110340589D01*
X152672022Y-111544688D01*
X152664408Y-111558632D01*
X151934356Y-111558632D01*
X151935592Y-111556368D01*
X151935461Y-111554535D01*
X151931210Y-111547920D01*
X150723814Y-110340524D01*
X150711804Y-110333966D01*
X150700064Y-110342934D01*
X150591935Y-110493411D01*
X150587418Y-110500696D01*
X150463325Y-110735067D01*
X150459839Y-110742895D01*
X150368700Y-110991946D01*
X150366311Y-111000170D01*
X150309812Y-111259295D01*
X150308563Y-111267750D01*
X150287754Y-111532153D01*
X150287665Y-111540704D01*
X141508500Y-111540704D01*
X141508500Y-110009366D01*
X141504224Y-109970000D01*
X151076584Y-109970000D01*
X151082980Y-109981270D01*
X152287188Y-111185478D01*
X152301132Y-111193092D01*
X152302965Y-111192961D01*
X152309580Y-111188710D01*
X153516604Y-109981686D01*
X153523795Y-109968517D01*
X153516473Y-109958280D01*
X153469233Y-109919615D01*
X153462261Y-109914660D01*
X153236122Y-109776082D01*
X153228552Y-109772124D01*
X152985704Y-109665522D01*
X152977644Y-109662620D01*
X152722592Y-109589967D01*
X152714214Y-109588185D01*
X152451656Y-109550818D01*
X152443111Y-109550191D01*
X152177908Y-109548802D01*
X152169374Y-109549339D01*
X151906433Y-109583956D01*
X151898035Y-109585649D01*
X151642238Y-109655627D01*
X151634143Y-109658446D01*
X151390199Y-109762497D01*
X151382577Y-109766381D01*
X151155013Y-109902575D01*
X151147981Y-109907462D01*
X151085053Y-109957877D01*
X151076584Y-109970000D01*
X141504224Y-109970000D01*
X141501745Y-109947184D01*
X141450615Y-109810795D01*
X141363261Y-109694239D01*
X141246705Y-109606885D01*
X141110316Y-109555755D01*
X141048134Y-109549000D01*
X137951866Y-109549000D01*
X137889684Y-109555755D01*
X137753295Y-109606885D01*
X137636739Y-109694239D01*
X137549385Y-109810795D01*
X137498255Y-109947184D01*
X137491500Y-110009366D01*
X137491500Y-113105634D01*
X101000000Y-113105634D01*
X101000000Y-106232670D01*
X115132160Y-106232670D01*
X115137887Y-106240320D01*
X115309042Y-106345205D01*
X115317837Y-106349687D01*
X115527988Y-106436734D01*
X115537373Y-106439783D01*
X115758554Y-106492885D01*
X115768301Y-106494428D01*
X115995070Y-106512275D01*
X116004930Y-106512275D01*
X116231699Y-106494428D01*
X116241446Y-106492885D01*
X116462627Y-106439783D01*
X116472012Y-106436734D01*
X116682163Y-106349687D01*
X116690958Y-106345205D01*
X116858445Y-106242568D01*
X116867907Y-106232110D01*
X116864124Y-106223334D01*
X116012812Y-105372022D01*
X115998868Y-105364408D01*
X115997035Y-105364539D01*
X115990420Y-105368790D01*
X115138920Y-106220290D01*
X115132160Y-106232670D01*
X101000000Y-106232670D01*
X101000000Y-105004930D01*
X114487725Y-105004930D01*
X114505572Y-105231699D01*
X114507115Y-105241446D01*
X114560217Y-105462627D01*
X114563266Y-105472012D01*
X114650313Y-105682163D01*
X114654795Y-105690958D01*
X114757432Y-105858445D01*
X114767890Y-105867907D01*
X114776666Y-105864124D01*
X115627978Y-105012812D01*
X115634356Y-105001132D01*
X116364408Y-105001132D01*
X116364539Y-105002965D01*
X116368790Y-105009580D01*
X117220290Y-105861080D01*
X117232670Y-105867840D01*
X117240320Y-105862113D01*
X117345205Y-105690958D01*
X117349687Y-105682163D01*
X117436734Y-105472012D01*
X117439783Y-105462627D01*
X117492885Y-105241446D01*
X117494428Y-105231699D01*
X117512275Y-105004930D01*
X117512275Y-105000000D01*
X123486835Y-105000000D01*
X123505465Y-105236711D01*
X123560895Y-105467594D01*
X123562788Y-105472165D01*
X123562789Y-105472167D01*
X123649772Y-105682163D01*
X123651760Y-105686963D01*
X123654346Y-105691183D01*
X123773241Y-105885202D01*
X123773245Y-105885208D01*
X123775824Y-105889416D01*
X123930031Y-106069969D01*
X124110584Y-106224176D01*
X124114792Y-106226755D01*
X124114798Y-106226759D01*
X124308084Y-106345205D01*
X124313037Y-106348240D01*
X124317607Y-106350133D01*
X124317611Y-106350135D01*
X124527833Y-106437211D01*
X124532406Y-106439105D01*
X124612609Y-106458360D01*
X124758476Y-106493380D01*
X124758482Y-106493381D01*
X124763289Y-106494535D01*
X125000000Y-106513165D01*
X125236711Y-106494535D01*
X125241518Y-106493381D01*
X125241524Y-106493380D01*
X125387391Y-106458360D01*
X125467594Y-106439105D01*
X125472167Y-106437211D01*
X125682389Y-106350135D01*
X125682393Y-106350133D01*
X125686963Y-106348240D01*
X125691916Y-106345205D01*
X125885202Y-106226759D01*
X125885208Y-106226755D01*
X125889416Y-106224176D01*
X126069969Y-106069969D01*
X126129728Y-106000000D01*
X182486835Y-106000000D01*
X182505465Y-106236711D01*
X182560895Y-106467594D01*
X182651760Y-106686963D01*
X182654346Y-106691183D01*
X182773241Y-106885202D01*
X182773245Y-106885208D01*
X182775824Y-106889416D01*
X182930031Y-107069969D01*
X183110584Y-107224176D01*
X183114792Y-107226755D01*
X183114798Y-107226759D01*
X183308817Y-107345654D01*
X183313037Y-107348240D01*
X183317607Y-107350133D01*
X183317611Y-107350135D01*
X183527833Y-107437211D01*
X183532406Y-107439105D01*
X183612609Y-107458360D01*
X183758476Y-107493380D01*
X183758482Y-107493381D01*
X183763289Y-107494535D01*
X184000000Y-107513165D01*
X184236711Y-107494535D01*
X184241518Y-107493381D01*
X184241524Y-107493380D01*
X184387391Y-107458360D01*
X184467594Y-107439105D01*
X184472167Y-107437211D01*
X184682389Y-107350135D01*
X184682393Y-107350133D01*
X184686963Y-107348240D01*
X184691183Y-107345654D01*
X184885202Y-107226759D01*
X184885208Y-107226755D01*
X184889416Y-107224176D01*
X185069969Y-107069969D01*
X185224176Y-106889416D01*
X185226755Y-106885208D01*
X185226759Y-106885202D01*
X185345654Y-106691183D01*
X185348240Y-106686963D01*
X185439105Y-106467594D01*
X185494535Y-106236711D01*
X185513165Y-106000000D01*
X185494535Y-105763289D01*
X185475059Y-105682163D01*
X185440260Y-105537218D01*
X185439105Y-105532406D01*
X185437211Y-105527833D01*
X185350135Y-105317611D01*
X185350133Y-105317607D01*
X185348240Y-105313037D01*
X185298396Y-105231699D01*
X185226759Y-105114798D01*
X185226755Y-105114792D01*
X185224176Y-105110584D01*
X185069969Y-104930031D01*
X184889416Y-104775824D01*
X184885208Y-104773245D01*
X184885202Y-104773241D01*
X184691183Y-104654346D01*
X184686963Y-104651760D01*
X184682393Y-104649867D01*
X184682389Y-104649865D01*
X184472167Y-104562789D01*
X184472165Y-104562788D01*
X184467594Y-104560895D01*
X184348929Y-104532406D01*
X184241524Y-104506620D01*
X184241518Y-104506619D01*
X184236711Y-104505465D01*
X184000000Y-104486835D01*
X183763289Y-104505465D01*
X183758482Y-104506619D01*
X183758476Y-104506620D01*
X183651071Y-104532406D01*
X183532406Y-104560895D01*
X183527835Y-104562788D01*
X183527833Y-104562789D01*
X183317611Y-104649865D01*
X183317607Y-104649867D01*
X183313037Y-104651760D01*
X183308817Y-104654346D01*
X183114798Y-104773241D01*
X183114792Y-104773245D01*
X183110584Y-104775824D01*
X182930031Y-104930031D01*
X182775824Y-105110584D01*
X182773245Y-105114792D01*
X182773241Y-105114798D01*
X182701604Y-105231699D01*
X182651760Y-105313037D01*
X182649867Y-105317607D01*
X182649865Y-105317611D01*
X182562789Y-105527833D01*
X182560895Y-105532406D01*
X182559740Y-105537218D01*
X182524942Y-105682163D01*
X182505465Y-105763289D01*
X182486835Y-106000000D01*
X126129728Y-106000000D01*
X126224176Y-105889416D01*
X126226755Y-105885208D01*
X126226759Y-105885202D01*
X126345654Y-105691183D01*
X126348240Y-105686963D01*
X126350229Y-105682163D01*
X126437211Y-105472167D01*
X126437212Y-105472165D01*
X126439105Y-105467594D01*
X126494535Y-105236711D01*
X126513165Y-105000000D01*
X126494535Y-104763289D01*
X126439105Y-104532406D01*
X126420229Y-104486835D01*
X126350135Y-104317611D01*
X126350133Y-104317607D01*
X126348240Y-104313037D01*
X126345654Y-104308817D01*
X126226759Y-104114798D01*
X126226755Y-104114792D01*
X126224176Y-104110584D01*
X126069969Y-103930031D01*
X125889416Y-103775824D01*
X125885208Y-103773245D01*
X125885202Y-103773241D01*
X125691183Y-103654346D01*
X125686963Y-103651760D01*
X125682393Y-103649867D01*
X125682389Y-103649865D01*
X125472167Y-103562789D01*
X125472165Y-103562788D01*
X125467594Y-103560895D01*
X125387391Y-103541640D01*
X125241524Y-103506620D01*
X125241518Y-103506619D01*
X125236711Y-103505465D01*
X125000000Y-103486835D01*
X124763289Y-103505465D01*
X124758482Y-103506619D01*
X124758476Y-103506620D01*
X124612609Y-103541640D01*
X124532406Y-103560895D01*
X124527835Y-103562788D01*
X124527833Y-103562789D01*
X124317611Y-103649865D01*
X124317607Y-103649867D01*
X124313037Y-103651760D01*
X124308817Y-103654346D01*
X124114798Y-103773241D01*
X124114792Y-103773245D01*
X124110584Y-103775824D01*
X123930031Y-103930031D01*
X123775824Y-104110584D01*
X123773245Y-104114792D01*
X123773241Y-104114798D01*
X123654346Y-104308817D01*
X123651760Y-104313037D01*
X123649867Y-104317607D01*
X123649865Y-104317611D01*
X123579771Y-104486835D01*
X123560895Y-104532406D01*
X123505465Y-104763289D01*
X123486835Y-105000000D01*
X117512275Y-105000000D01*
X117512275Y-104995070D01*
X117494428Y-104768301D01*
X117492885Y-104758554D01*
X117439783Y-104537373D01*
X117436734Y-104527988D01*
X117349687Y-104317837D01*
X117345205Y-104309042D01*
X117242568Y-104141555D01*
X117232110Y-104132093D01*
X117223334Y-104135876D01*
X116372022Y-104987188D01*
X116364408Y-105001132D01*
X115634356Y-105001132D01*
X115635592Y-104998868D01*
X115635461Y-104997035D01*
X115631210Y-104990420D01*
X114779710Y-104138920D01*
X114767330Y-104132160D01*
X114759680Y-104137887D01*
X114654795Y-104309042D01*
X114650313Y-104317837D01*
X114563266Y-104527988D01*
X114560217Y-104537373D01*
X114507115Y-104758554D01*
X114505572Y-104768301D01*
X114487725Y-104995070D01*
X114487725Y-105004930D01*
X101000000Y-105004930D01*
X101000000Y-103767890D01*
X115132093Y-103767890D01*
X115135876Y-103776666D01*
X115987188Y-104627978D01*
X116001132Y-104635592D01*
X116002965Y-104635461D01*
X116009580Y-104631210D01*
X116861080Y-103779710D01*
X116867840Y-103767330D01*
X116862113Y-103759680D01*
X116690958Y-103654795D01*
X116682163Y-103650313D01*
X116472012Y-103563266D01*
X116462627Y-103560217D01*
X116241446Y-103507115D01*
X116231699Y-103505572D01*
X116004930Y-103487725D01*
X115995070Y-103487725D01*
X115768301Y-103505572D01*
X115758554Y-103507115D01*
X115537373Y-103560217D01*
X115527988Y-103563266D01*
X115317837Y-103650313D01*
X115309042Y-103654795D01*
X115141555Y-103757432D01*
X115132093Y-103767890D01*
X101000000Y-103767890D01*
X101000000Y-99698134D01*
X114301500Y-99698134D01*
X114308255Y-99760316D01*
X114359385Y-99896705D01*
X114446739Y-100013261D01*
X114563295Y-100100615D01*
X114699684Y-100151745D01*
X114761866Y-100158500D01*
X116158134Y-100158500D01*
X116220316Y-100151745D01*
X116356705Y-100100615D01*
X116473261Y-100013261D01*
X116560615Y-99896705D01*
X116611745Y-99760316D01*
X116618500Y-99698134D01*
X116618500Y-99275084D01*
X116638502Y-99206963D01*
X116692158Y-99160470D01*
X116762432Y-99150366D01*
X116827012Y-99179860D01*
X116866623Y-99244068D01*
X116903272Y-99388372D01*
X116905689Y-99393615D01*
X116961800Y-99515329D01*
X116992411Y-99581731D01*
X117115296Y-99755609D01*
X117267809Y-99904181D01*
X117272605Y-99907386D01*
X117272608Y-99907388D01*
X117344088Y-99955149D01*
X117444843Y-100022471D01*
X117450146Y-100024749D01*
X117450149Y-100024751D01*
X117635163Y-100104239D01*
X117640470Y-100106519D01*
X117716316Y-100123681D01*
X117842501Y-100152234D01*
X117842506Y-100152235D01*
X117848138Y-100153509D01*
X117853909Y-100153736D01*
X117853911Y-100153736D01*
X117915252Y-100156146D01*
X118060891Y-100161869D01*
X118066600Y-100161041D01*
X118066604Y-100161041D01*
X118265890Y-100132145D01*
X118265894Y-100132144D01*
X118271605Y-100131316D01*
X118473223Y-100062876D01*
X118658993Y-99958840D01*
X118822693Y-99822693D01*
X118926287Y-99698134D01*
X122301500Y-99698134D01*
X122308255Y-99760316D01*
X122359385Y-99896705D01*
X122446739Y-100013261D01*
X122563295Y-100100615D01*
X122699684Y-100151745D01*
X122761866Y-100158500D01*
X124158134Y-100158500D01*
X124220316Y-100151745D01*
X124356705Y-100100615D01*
X124473261Y-100013261D01*
X124560615Y-99896705D01*
X124611745Y-99760316D01*
X124618500Y-99698134D01*
X124618500Y-99275084D01*
X124638502Y-99206963D01*
X124692158Y-99160470D01*
X124762432Y-99150366D01*
X124827012Y-99179860D01*
X124866623Y-99244068D01*
X124903272Y-99388372D01*
X124905689Y-99393615D01*
X124961800Y-99515329D01*
X124992411Y-99581731D01*
X125115296Y-99755609D01*
X125267809Y-99904181D01*
X125272605Y-99907386D01*
X125272608Y-99907388D01*
X125344088Y-99955149D01*
X125444843Y-100022471D01*
X125450146Y-100024749D01*
X125450149Y-100024751D01*
X125635163Y-100104239D01*
X125640470Y-100106519D01*
X125716316Y-100123681D01*
X125842501Y-100152234D01*
X125842506Y-100152235D01*
X125848138Y-100153509D01*
X125853909Y-100153736D01*
X125853911Y-100153736D01*
X125915252Y-100156146D01*
X126060891Y-100161869D01*
X126066600Y-100161041D01*
X126066604Y-100161041D01*
X126265890Y-100132145D01*
X126265894Y-100132144D01*
X126271605Y-100131316D01*
X126473223Y-100062876D01*
X126658993Y-99958840D01*
X126822693Y-99822693D01*
X126958840Y-99658993D01*
X127062876Y-99473223D01*
X127131316Y-99271605D01*
X127142178Y-99196697D01*
X127161337Y-99064561D01*
X127161337Y-99064559D01*
X127161869Y-99060891D01*
X127163463Y-99000000D01*
X127160290Y-98965469D01*
X188587095Y-98965469D01*
X188587392Y-98970622D01*
X188587392Y-98970625D01*
X188593067Y-99069041D01*
X188600427Y-99196697D01*
X188601564Y-99201743D01*
X188601565Y-99201749D01*
X188633741Y-99344523D01*
X188651346Y-99422642D01*
X188653288Y-99427424D01*
X188653289Y-99427428D01*
X188715945Y-99581731D01*
X188738484Y-99637237D01*
X188859501Y-99834719D01*
X189011147Y-100009784D01*
X189189349Y-100157730D01*
X189389322Y-100274584D01*
X189605694Y-100357209D01*
X189610760Y-100358240D01*
X189610761Y-100358240D01*
X189663846Y-100369040D01*
X189832656Y-100403385D01*
X189963324Y-100408176D01*
X190058949Y-100411683D01*
X190058953Y-100411683D01*
X190064113Y-100411872D01*
X190069233Y-100411216D01*
X190069235Y-100411216D01*
X190142270Y-100401860D01*
X190293847Y-100382442D01*
X190298795Y-100380957D01*
X190298802Y-100380956D01*
X190510747Y-100317369D01*
X190515690Y-100315886D01*
X190596236Y-100276427D01*
X190719049Y-100216262D01*
X190719052Y-100216260D01*
X190723684Y-100213991D01*
X190912243Y-100079494D01*
X191076303Y-99916005D01*
X191084800Y-99904181D01*
X191140702Y-99826384D01*
X191211458Y-99727917D01*
X191227867Y-99694717D01*
X191311784Y-99524922D01*
X191311785Y-99524920D01*
X191314078Y-99520280D01*
X191381408Y-99298671D01*
X191411640Y-99069041D01*
X191411722Y-99065691D01*
X191413245Y-99003365D01*
X191413245Y-99003361D01*
X191413327Y-99000000D01*
X191403767Y-98883720D01*
X191394773Y-98774318D01*
X191394772Y-98774312D01*
X191394349Y-98769167D01*
X191348997Y-98588611D01*
X191339184Y-98549544D01*
X191339183Y-98549540D01*
X191337925Y-98544533D01*
X191335866Y-98539797D01*
X191247630Y-98336868D01*
X191247628Y-98336865D01*
X191245570Y-98332131D01*
X191119764Y-98137665D01*
X191096141Y-98111703D01*
X191068101Y-98080888D01*
X191029486Y-98038450D01*
X190998434Y-97974605D01*
X191006829Y-97904106D01*
X191052005Y-97849338D01*
X191078449Y-97835669D01*
X191138054Y-97813324D01*
X191153649Y-97804786D01*
X191255724Y-97728285D01*
X191268285Y-97715724D01*
X191344786Y-97613649D01*
X191353324Y-97598054D01*
X191398478Y-97477606D01*
X191402105Y-97462351D01*
X191407631Y-97411486D01*
X191408000Y-97404672D01*
X191408000Y-96732115D01*
X191403525Y-96716876D01*
X191402135Y-96715671D01*
X191394452Y-96714000D01*
X188610116Y-96714000D01*
X188594877Y-96718475D01*
X188593672Y-96719865D01*
X188592001Y-96727548D01*
X188592001Y-97404669D01*
X188592371Y-97411490D01*
X188597895Y-97462352D01*
X188601521Y-97477604D01*
X188646676Y-97598054D01*
X188655214Y-97613649D01*
X188731715Y-97715724D01*
X188744276Y-97728285D01*
X188846351Y-97804786D01*
X188861946Y-97813324D01*
X188921540Y-97835665D01*
X188978304Y-97878307D01*
X189003004Y-97944868D01*
X188987796Y-98014217D01*
X188968404Y-98040698D01*
X188901639Y-98110564D01*
X188898725Y-98114836D01*
X188898724Y-98114837D01*
X188883152Y-98137665D01*
X188771119Y-98301899D01*
X188673602Y-98511981D01*
X188611707Y-98735169D01*
X188587095Y-98965469D01*
X127160290Y-98965469D01*
X127143981Y-98787976D01*
X127086186Y-98583052D01*
X127051531Y-98512777D01*
X126994570Y-98397273D01*
X126992015Y-98392092D01*
X126864622Y-98221491D01*
X126708271Y-98076963D01*
X126528201Y-97963347D01*
X126330441Y-97884449D01*
X126324781Y-97883323D01*
X126324777Y-97883322D01*
X126127282Y-97844038D01*
X126127280Y-97844038D01*
X126121615Y-97842911D01*
X126115840Y-97842835D01*
X126115836Y-97842835D01*
X126059458Y-97842097D01*
X126017016Y-97841542D01*
X125949164Y-97820650D01*
X125903377Y-97766391D01*
X125893195Y-97727082D01*
X125874510Y-97523730D01*
X125874509Y-97523727D01*
X125873981Y-97517976D01*
X125863998Y-97482579D01*
X125817754Y-97318611D01*
X125817753Y-97318609D01*
X125816186Y-97313052D01*
X125780913Y-97241524D01*
X125724570Y-97127273D01*
X125722015Y-97122092D01*
X125630845Y-97000000D01*
X182486835Y-97000000D01*
X182505465Y-97236711D01*
X182560895Y-97467594D01*
X182562788Y-97472165D01*
X182562789Y-97472167D01*
X182629641Y-97633562D01*
X182651760Y-97686963D01*
X182654346Y-97691183D01*
X182773241Y-97885202D01*
X182773245Y-97885208D01*
X182775824Y-97889416D01*
X182930031Y-98069969D01*
X183110584Y-98224176D01*
X183114792Y-98226755D01*
X183114798Y-98226759D01*
X183294480Y-98336868D01*
X183313037Y-98348240D01*
X183317607Y-98350133D01*
X183317611Y-98350135D01*
X183527833Y-98437211D01*
X183532406Y-98439105D01*
X183612609Y-98458360D01*
X183758476Y-98493380D01*
X183758482Y-98493381D01*
X183763289Y-98494535D01*
X184000000Y-98513165D01*
X184236711Y-98494535D01*
X184241518Y-98493381D01*
X184241524Y-98493380D01*
X184387391Y-98458360D01*
X184467594Y-98439105D01*
X184472167Y-98437211D01*
X184682389Y-98350135D01*
X184682393Y-98350133D01*
X184686963Y-98348240D01*
X184705520Y-98336868D01*
X184885202Y-98226759D01*
X184885208Y-98226755D01*
X184889416Y-98224176D01*
X185069969Y-98069969D01*
X185224176Y-97889416D01*
X185226755Y-97885208D01*
X185226759Y-97885202D01*
X185345654Y-97691183D01*
X185348240Y-97686963D01*
X185370360Y-97633562D01*
X185437211Y-97472167D01*
X185437212Y-97472165D01*
X185439105Y-97467594D01*
X185494535Y-97236711D01*
X185513165Y-97000000D01*
X185494535Y-96763289D01*
X185485955Y-96727548D01*
X185448395Y-96571103D01*
X185439105Y-96532406D01*
X185348240Y-96313037D01*
X185345654Y-96308817D01*
X185271547Y-96187885D01*
X188592000Y-96187885D01*
X188596475Y-96203124D01*
X188597865Y-96204329D01*
X188605548Y-96206000D01*
X189727885Y-96206000D01*
X189743124Y-96201525D01*
X189744329Y-96200135D01*
X189746000Y-96192452D01*
X189746000Y-96187885D01*
X190254000Y-96187885D01*
X190258475Y-96203124D01*
X190259865Y-96204329D01*
X190267548Y-96206000D01*
X191389884Y-96206000D01*
X191405123Y-96201525D01*
X191406328Y-96200135D01*
X191407999Y-96192452D01*
X191407999Y-95515331D01*
X191407629Y-95508510D01*
X191402105Y-95457648D01*
X191398479Y-95442396D01*
X191353324Y-95321946D01*
X191344786Y-95306351D01*
X191268285Y-95204276D01*
X191255724Y-95191715D01*
X191153649Y-95115214D01*
X191138054Y-95106676D01*
X191017606Y-95061522D01*
X191002351Y-95057895D01*
X190951486Y-95052369D01*
X190944672Y-95052000D01*
X190272115Y-95052000D01*
X190256876Y-95056475D01*
X190255671Y-95057865D01*
X190254000Y-95065548D01*
X190254000Y-96187885D01*
X189746000Y-96187885D01*
X189746000Y-95070116D01*
X189741525Y-95054877D01*
X189740135Y-95053672D01*
X189732452Y-95052001D01*
X189055331Y-95052001D01*
X189048510Y-95052371D01*
X188997648Y-95057895D01*
X188982396Y-95061521D01*
X188861946Y-95106676D01*
X188846351Y-95115214D01*
X188744276Y-95191715D01*
X188731715Y-95204276D01*
X188655214Y-95306351D01*
X188646676Y-95321946D01*
X188601522Y-95442394D01*
X188597895Y-95457649D01*
X188592369Y-95508514D01*
X188592000Y-95515328D01*
X188592000Y-96187885D01*
X185271547Y-96187885D01*
X185226759Y-96114798D01*
X185226755Y-96114792D01*
X185224176Y-96110584D01*
X185069969Y-95930031D01*
X184889416Y-95775824D01*
X184885208Y-95773245D01*
X184885202Y-95773241D01*
X184691183Y-95654346D01*
X184686963Y-95651760D01*
X184682393Y-95649867D01*
X184682389Y-95649865D01*
X184472167Y-95562789D01*
X184472165Y-95562788D01*
X184467594Y-95560895D01*
X184387391Y-95541640D01*
X184241524Y-95506620D01*
X184241518Y-95506619D01*
X184236711Y-95505465D01*
X184000000Y-95486835D01*
X183763289Y-95505465D01*
X183758482Y-95506619D01*
X183758476Y-95506620D01*
X183612609Y-95541640D01*
X183532406Y-95560895D01*
X183527835Y-95562788D01*
X183527833Y-95562789D01*
X183317611Y-95649865D01*
X183317607Y-95649867D01*
X183313037Y-95651760D01*
X183308817Y-95654346D01*
X183114798Y-95773241D01*
X183114792Y-95773245D01*
X183110584Y-95775824D01*
X182930031Y-95930031D01*
X182775824Y-96110584D01*
X182773245Y-96114792D01*
X182773241Y-96114798D01*
X182654346Y-96308817D01*
X182651760Y-96313037D01*
X182560895Y-96532406D01*
X182551605Y-96571103D01*
X182514046Y-96727548D01*
X182505465Y-96763289D01*
X182486835Y-97000000D01*
X125630845Y-97000000D01*
X125594622Y-96951491D01*
X125438271Y-96806963D01*
X125258201Y-96693347D01*
X125060441Y-96614449D01*
X125054781Y-96613323D01*
X125054777Y-96613322D01*
X124857282Y-96574038D01*
X124857280Y-96574038D01*
X124851615Y-96572911D01*
X124845840Y-96572835D01*
X124845836Y-96572835D01*
X124739161Y-96571439D01*
X124638716Y-96570124D01*
X124633019Y-96571103D01*
X124633018Y-96571103D01*
X124434564Y-96605203D01*
X124434561Y-96605204D01*
X124428874Y-96606181D01*
X124229116Y-96679875D01*
X124046134Y-96788739D01*
X123886054Y-96929125D01*
X123754238Y-97096333D01*
X123751549Y-97101444D01*
X123751547Y-97101447D01*
X123697085Y-97204961D01*
X123655100Y-97284762D01*
X123653386Y-97290283D01*
X123653384Y-97290287D01*
X123617868Y-97404669D01*
X123591961Y-97488102D01*
X123566936Y-97699544D01*
X123567441Y-97707256D01*
X123567239Y-97708160D01*
X123567163Y-97711080D01*
X123566589Y-97711065D01*
X123551941Y-97776538D01*
X123501443Y-97826442D01*
X123441712Y-97841500D01*
X122761866Y-97841500D01*
X122699684Y-97848255D01*
X122563295Y-97899385D01*
X122446739Y-97986739D01*
X122359385Y-98103295D01*
X122308255Y-98239684D01*
X122301500Y-98301866D01*
X122301500Y-99698134D01*
X118926287Y-99698134D01*
X118958840Y-99658993D01*
X119062876Y-99473223D01*
X119131316Y-99271605D01*
X119142178Y-99196697D01*
X119161337Y-99064561D01*
X119161337Y-99064559D01*
X119161869Y-99060891D01*
X119163463Y-99000000D01*
X119143981Y-98787976D01*
X119086186Y-98583052D01*
X119051531Y-98512777D01*
X118994570Y-98397273D01*
X118992015Y-98392092D01*
X118864622Y-98221491D01*
X118708271Y-98076963D01*
X118528201Y-97963347D01*
X118330441Y-97884449D01*
X118324781Y-97883323D01*
X118324777Y-97883322D01*
X118127282Y-97844038D01*
X118127280Y-97844038D01*
X118121615Y-97842911D01*
X118115840Y-97842835D01*
X118115836Y-97842835D01*
X118059458Y-97842097D01*
X118017016Y-97841542D01*
X117949164Y-97820650D01*
X117903377Y-97766391D01*
X117893195Y-97727082D01*
X117874510Y-97523730D01*
X117874509Y-97523727D01*
X117873981Y-97517976D01*
X117863998Y-97482579D01*
X117817754Y-97318611D01*
X117817753Y-97318609D01*
X117816186Y-97313052D01*
X117780913Y-97241524D01*
X117724570Y-97127273D01*
X117722015Y-97122092D01*
X117594622Y-96951491D01*
X117438271Y-96806963D01*
X117258201Y-96693347D01*
X117060441Y-96614449D01*
X117054781Y-96613323D01*
X117054777Y-96613322D01*
X116857282Y-96574038D01*
X116857280Y-96574038D01*
X116851615Y-96572911D01*
X116845840Y-96572835D01*
X116845836Y-96572835D01*
X116739161Y-96571439D01*
X116638716Y-96570124D01*
X116633019Y-96571103D01*
X116633018Y-96571103D01*
X116434564Y-96605203D01*
X116434561Y-96605204D01*
X116428874Y-96606181D01*
X116229116Y-96679875D01*
X116046134Y-96788739D01*
X115886054Y-96929125D01*
X115754238Y-97096333D01*
X115751549Y-97101444D01*
X115751547Y-97101447D01*
X115697085Y-97204961D01*
X115655100Y-97284762D01*
X115653386Y-97290283D01*
X115653384Y-97290287D01*
X115617868Y-97404669D01*
X115591961Y-97488102D01*
X115566936Y-97699544D01*
X115567441Y-97707256D01*
X115567239Y-97708160D01*
X115567163Y-97711080D01*
X115566589Y-97711065D01*
X115551941Y-97776538D01*
X115501443Y-97826442D01*
X115441712Y-97841500D01*
X114761866Y-97841500D01*
X114699684Y-97848255D01*
X114563295Y-97899385D01*
X114446739Y-97986739D01*
X114359385Y-98103295D01*
X114308255Y-98239684D01*
X114301500Y-98301866D01*
X114301500Y-99698134D01*
X101000000Y-99698134D01*
X101000000Y-91524558D01*
X101020002Y-91456437D01*
X101073658Y-91409944D01*
X101143932Y-91399840D01*
X101208512Y-91429334D01*
X101238565Y-91467944D01*
X101267160Y-91524799D01*
X101269586Y-91528328D01*
X101269589Y-91528334D01*
X101419843Y-91746953D01*
X101422274Y-91750490D01*
X101606582Y-91953043D01*
X101609877Y-91955798D01*
X101609878Y-91955799D01*
X101711628Y-92040875D01*
X101816675Y-92128707D01*
X101820316Y-92130991D01*
X102045024Y-92271951D01*
X102045028Y-92271953D01*
X102048664Y-92274234D01*
X102116544Y-92304883D01*
X102294345Y-92385164D01*
X102294349Y-92385166D01*
X102298257Y-92386930D01*
X102302377Y-92388150D01*
X102302376Y-92388150D01*
X102556723Y-92463491D01*
X102556727Y-92463492D01*
X102560836Y-92464709D01*
X102565070Y-92465357D01*
X102565075Y-92465358D01*
X102827298Y-92505483D01*
X102827300Y-92505483D01*
X102831540Y-92506132D01*
X102970912Y-92508322D01*
X103101071Y-92510367D01*
X103101077Y-92510367D01*
X103105362Y-92510434D01*
X103377235Y-92477534D01*
X103642127Y-92408041D01*
X103646087Y-92406401D01*
X103646092Y-92406399D01*
X103768631Y-92355641D01*
X103895136Y-92303241D01*
X104131582Y-92165073D01*
X104342107Y-92000000D01*
X114486835Y-92000000D01*
X114505465Y-92236711D01*
X114506619Y-92241518D01*
X114506620Y-92241524D01*
X114541105Y-92385164D01*
X114560895Y-92467594D01*
X114562788Y-92472165D01*
X114562789Y-92472167D01*
X114576886Y-92506199D01*
X114651760Y-92686963D01*
X114654346Y-92691183D01*
X114773241Y-92885202D01*
X114773245Y-92885208D01*
X114775824Y-92889416D01*
X114930031Y-93069969D01*
X115110584Y-93224176D01*
X115114792Y-93226755D01*
X115114798Y-93226759D01*
X115308817Y-93345654D01*
X115313037Y-93348240D01*
X115317607Y-93350133D01*
X115317611Y-93350135D01*
X115527833Y-93437211D01*
X115532406Y-93439105D01*
X115612609Y-93458360D01*
X115758476Y-93493380D01*
X115758482Y-93493381D01*
X115763289Y-93494535D01*
X116000000Y-93513165D01*
X116236711Y-93494535D01*
X116241518Y-93493381D01*
X116241524Y-93493380D01*
X116387391Y-93458360D01*
X116467594Y-93439105D01*
X116472167Y-93437211D01*
X116682389Y-93350135D01*
X116682393Y-93350133D01*
X116686963Y-93348240D01*
X116691183Y-93345654D01*
X116885202Y-93226759D01*
X116885208Y-93226755D01*
X116889416Y-93224176D01*
X117069969Y-93069969D01*
X117224176Y-92889416D01*
X117226755Y-92885208D01*
X117226759Y-92885202D01*
X117345654Y-92691183D01*
X117348240Y-92686963D01*
X117423115Y-92506199D01*
X117437211Y-92472167D01*
X117437212Y-92472165D01*
X117439105Y-92467594D01*
X117458895Y-92385164D01*
X117493380Y-92241524D01*
X117493381Y-92241518D01*
X117494535Y-92236711D01*
X117513165Y-92000000D01*
X123486835Y-92000000D01*
X123505465Y-92236711D01*
X123506619Y-92241518D01*
X123506620Y-92241524D01*
X123541105Y-92385164D01*
X123560895Y-92467594D01*
X123562788Y-92472165D01*
X123562789Y-92472167D01*
X123576886Y-92506199D01*
X123651760Y-92686963D01*
X123654346Y-92691183D01*
X123773241Y-92885202D01*
X123773245Y-92885208D01*
X123775824Y-92889416D01*
X123930031Y-93069969D01*
X124110584Y-93224176D01*
X124114792Y-93226755D01*
X124114798Y-93226759D01*
X124308817Y-93345654D01*
X124313037Y-93348240D01*
X124317607Y-93350133D01*
X124317611Y-93350135D01*
X124527833Y-93437211D01*
X124532406Y-93439105D01*
X124612609Y-93458360D01*
X124758476Y-93493380D01*
X124758482Y-93493381D01*
X124763289Y-93494535D01*
X125000000Y-93513165D01*
X125236711Y-93494535D01*
X125241518Y-93493381D01*
X125241524Y-93493380D01*
X125387391Y-93458360D01*
X125467594Y-93439105D01*
X125472167Y-93437211D01*
X125682389Y-93350135D01*
X125682393Y-93350133D01*
X125686963Y-93348240D01*
X125691183Y-93345654D01*
X125885202Y-93226759D01*
X125885208Y-93226755D01*
X125889416Y-93224176D01*
X126069969Y-93069969D01*
X126224176Y-92889416D01*
X126226755Y-92885208D01*
X126226759Y-92885202D01*
X126285800Y-92788856D01*
X186926601Y-92788856D01*
X186933059Y-92798216D01*
X186949361Y-92812512D01*
X186955901Y-92817530D01*
X187195144Y-92977387D01*
X187202281Y-92981508D01*
X187460349Y-93108772D01*
X187467953Y-93111922D01*
X187740420Y-93204412D01*
X187748383Y-93206546D01*
X188030600Y-93262683D01*
X188038751Y-93263756D01*
X188325881Y-93282575D01*
X188334119Y-93282575D01*
X188621249Y-93263756D01*
X188629400Y-93262683D01*
X188911617Y-93206546D01*
X188919580Y-93204412D01*
X189192047Y-93111922D01*
X189199651Y-93108772D01*
X189457719Y-92981508D01*
X189464856Y-92977387D01*
X189704099Y-92817530D01*
X189710639Y-92812512D01*
X189725074Y-92799853D01*
X189733472Y-92786614D01*
X189727638Y-92776849D01*
X188342810Y-91392020D01*
X188328869Y-91384408D01*
X188327034Y-91384539D01*
X188320420Y-91388790D01*
X186934116Y-92775095D01*
X186926601Y-92788856D01*
X126285800Y-92788856D01*
X126345654Y-92691183D01*
X126348240Y-92686963D01*
X126423115Y-92506199D01*
X126437211Y-92472167D01*
X126437212Y-92472165D01*
X126439105Y-92467594D01*
X126458895Y-92385164D01*
X126493380Y-92241524D01*
X126493381Y-92241518D01*
X126494535Y-92236711D01*
X126513165Y-92000000D01*
X126494535Y-91763289D01*
X126492225Y-91753664D01*
X126440260Y-91537218D01*
X126439105Y-91532406D01*
X126407638Y-91456437D01*
X126350135Y-91317611D01*
X126350133Y-91317607D01*
X126348240Y-91313037D01*
X126328083Y-91280144D01*
X126226759Y-91114798D01*
X126226755Y-91114792D01*
X126224176Y-91110584D01*
X126150328Y-91024119D01*
X186067425Y-91024119D01*
X186086244Y-91311249D01*
X186087317Y-91319400D01*
X186143454Y-91601617D01*
X186145588Y-91609580D01*
X186238078Y-91882047D01*
X186241228Y-91889651D01*
X186368492Y-92147718D01*
X186372613Y-92154855D01*
X186532470Y-92394099D01*
X186537488Y-92400639D01*
X186550147Y-92415074D01*
X186563386Y-92423472D01*
X186573151Y-92417638D01*
X187957980Y-91032810D01*
X187964357Y-91021131D01*
X188694408Y-91021131D01*
X188694539Y-91022966D01*
X188698790Y-91029580D01*
X190085095Y-92415884D01*
X190098856Y-92423399D01*
X190108216Y-92416941D01*
X190122512Y-92400639D01*
X190127530Y-92394099D01*
X190287387Y-92154855D01*
X190291508Y-92147718D01*
X190418772Y-91889651D01*
X190421922Y-91882047D01*
X190514412Y-91609580D01*
X190516546Y-91601617D01*
X190572683Y-91319400D01*
X190573756Y-91311249D01*
X190592575Y-91024119D01*
X190592575Y-91015881D01*
X190573756Y-90728751D01*
X190572683Y-90720600D01*
X190516544Y-90438376D01*
X190514412Y-90430420D01*
X190421922Y-90157953D01*
X190418772Y-90150349D01*
X190291508Y-89892282D01*
X190287387Y-89885145D01*
X190127530Y-89645901D01*
X190122512Y-89639361D01*
X190109853Y-89624926D01*
X190096614Y-89616528D01*
X190086849Y-89622362D01*
X188702020Y-91007190D01*
X188694408Y-91021131D01*
X187964357Y-91021131D01*
X187965592Y-91018869D01*
X187965461Y-91017034D01*
X187961210Y-91010420D01*
X186574905Y-89624116D01*
X186561144Y-89616601D01*
X186551784Y-89623059D01*
X186537488Y-89639361D01*
X186532470Y-89645901D01*
X186372613Y-89885145D01*
X186368492Y-89892282D01*
X186241228Y-90150349D01*
X186238078Y-90157953D01*
X186145588Y-90430420D01*
X186143456Y-90438376D01*
X186087317Y-90720600D01*
X186086244Y-90728751D01*
X186067425Y-91015881D01*
X186067425Y-91024119D01*
X126150328Y-91024119D01*
X126069969Y-90930031D01*
X125889416Y-90775824D01*
X125885208Y-90773245D01*
X125885202Y-90773241D01*
X125691183Y-90654346D01*
X125686963Y-90651760D01*
X125682393Y-90649867D01*
X125682389Y-90649865D01*
X125472167Y-90562789D01*
X125472165Y-90562788D01*
X125467594Y-90560895D01*
X125379252Y-90539686D01*
X125241524Y-90506620D01*
X125241518Y-90506619D01*
X125236711Y-90505465D01*
X125000000Y-90486835D01*
X124763289Y-90505465D01*
X124758482Y-90506619D01*
X124758476Y-90506620D01*
X124620748Y-90539686D01*
X124532406Y-90560895D01*
X124527835Y-90562788D01*
X124527833Y-90562789D01*
X124317611Y-90649865D01*
X124317607Y-90649867D01*
X124313037Y-90651760D01*
X124308817Y-90654346D01*
X124114798Y-90773241D01*
X124114792Y-90773245D01*
X124110584Y-90775824D01*
X123930031Y-90930031D01*
X123775824Y-91110584D01*
X123773245Y-91114792D01*
X123773241Y-91114798D01*
X123671917Y-91280144D01*
X123651760Y-91313037D01*
X123649867Y-91317607D01*
X123649865Y-91317611D01*
X123592362Y-91456437D01*
X123560895Y-91532406D01*
X123559740Y-91537218D01*
X123507776Y-91753664D01*
X123505465Y-91763289D01*
X123486835Y-92000000D01*
X117513165Y-92000000D01*
X117494535Y-91763289D01*
X117492225Y-91753664D01*
X117440260Y-91537218D01*
X117439105Y-91532406D01*
X117407638Y-91456437D01*
X117350135Y-91317611D01*
X117350133Y-91317607D01*
X117348240Y-91313037D01*
X117328083Y-91280144D01*
X117226759Y-91114798D01*
X117226755Y-91114792D01*
X117224176Y-91110584D01*
X117069969Y-90930031D01*
X116889416Y-90775824D01*
X116885208Y-90773245D01*
X116885202Y-90773241D01*
X116691183Y-90654346D01*
X116686963Y-90651760D01*
X116682393Y-90649867D01*
X116682389Y-90649865D01*
X116472167Y-90562789D01*
X116472165Y-90562788D01*
X116467594Y-90560895D01*
X116379252Y-90539686D01*
X116241524Y-90506620D01*
X116241518Y-90506619D01*
X116236711Y-90505465D01*
X116000000Y-90486835D01*
X115763289Y-90505465D01*
X115758482Y-90506619D01*
X115758476Y-90506620D01*
X115620748Y-90539686D01*
X115532406Y-90560895D01*
X115527835Y-90562788D01*
X115527833Y-90562789D01*
X115317611Y-90649865D01*
X115317607Y-90649867D01*
X115313037Y-90651760D01*
X115308817Y-90654346D01*
X115114798Y-90773241D01*
X115114792Y-90773245D01*
X115110584Y-90775824D01*
X114930031Y-90930031D01*
X114775824Y-91110584D01*
X114773245Y-91114792D01*
X114773241Y-91114798D01*
X114671917Y-91280144D01*
X114651760Y-91313037D01*
X114649867Y-91317607D01*
X114649865Y-91317611D01*
X114592362Y-91456437D01*
X114560895Y-91532406D01*
X114559740Y-91537218D01*
X114507776Y-91753664D01*
X114505465Y-91763289D01*
X114486835Y-92000000D01*
X104342107Y-92000000D01*
X104347089Y-91996094D01*
X104388809Y-91953043D01*
X104534686Y-91802509D01*
X104537669Y-91799431D01*
X104540202Y-91795983D01*
X104540206Y-91795978D01*
X104697257Y-91582178D01*
X104699795Y-91578723D01*
X104701841Y-91574955D01*
X104828418Y-91341830D01*
X104828419Y-91341828D01*
X104830468Y-91338054D01*
X104927269Y-91081877D01*
X104988407Y-90814933D01*
X104991898Y-90775824D01*
X105012531Y-90544627D01*
X105012531Y-90544625D01*
X105012751Y-90542161D01*
X105013193Y-90500000D01*
X105005911Y-90393175D01*
X104994859Y-90231055D01*
X104994858Y-90231049D01*
X104994567Y-90226778D01*
X104985375Y-90182389D01*
X104939901Y-89962809D01*
X104939032Y-89958612D01*
X104847617Y-89700465D01*
X104744149Y-89500000D01*
X108486835Y-89500000D01*
X108505465Y-89736711D01*
X108560895Y-89967594D01*
X108562788Y-89972165D01*
X108562789Y-89972167D01*
X108639744Y-90157953D01*
X108651760Y-90186963D01*
X108654346Y-90191183D01*
X108773241Y-90385202D01*
X108773245Y-90385208D01*
X108775824Y-90389416D01*
X108930031Y-90569969D01*
X109110584Y-90724176D01*
X109114792Y-90726755D01*
X109114798Y-90726759D01*
X109190650Y-90773241D01*
X109313037Y-90848240D01*
X109317607Y-90850133D01*
X109317611Y-90850135D01*
X109502754Y-90926823D01*
X109532406Y-90939105D01*
X109612609Y-90958360D01*
X109758476Y-90993380D01*
X109758482Y-90993381D01*
X109763289Y-90994535D01*
X110000000Y-91013165D01*
X110236711Y-90994535D01*
X110241518Y-90993381D01*
X110241524Y-90993380D01*
X110387391Y-90958360D01*
X110467594Y-90939105D01*
X110497246Y-90926823D01*
X110682389Y-90850135D01*
X110682393Y-90850133D01*
X110686963Y-90848240D01*
X110809350Y-90773241D01*
X110885202Y-90726759D01*
X110885208Y-90726755D01*
X110889416Y-90724176D01*
X111069969Y-90569969D01*
X111224176Y-90389416D01*
X111226755Y-90385208D01*
X111226759Y-90385202D01*
X111345654Y-90191183D01*
X111348240Y-90186963D01*
X111360257Y-90157953D01*
X111437211Y-89972167D01*
X111437212Y-89972165D01*
X111439105Y-89967594D01*
X111494535Y-89736711D01*
X111513165Y-89500000D01*
X111494535Y-89263289D01*
X111492158Y-89253386D01*
X186926528Y-89253386D01*
X186932362Y-89263151D01*
X188317190Y-90647980D01*
X188331131Y-90655592D01*
X188332966Y-90655461D01*
X188339580Y-90651210D01*
X189725884Y-89264905D01*
X189733399Y-89251144D01*
X189726941Y-89241784D01*
X189710639Y-89227488D01*
X189704099Y-89222470D01*
X189464856Y-89062613D01*
X189457719Y-89058492D01*
X189199651Y-88931228D01*
X189192047Y-88928078D01*
X188919580Y-88835588D01*
X188911617Y-88833454D01*
X188629400Y-88777317D01*
X188621249Y-88776244D01*
X188334119Y-88757425D01*
X188325881Y-88757425D01*
X188038751Y-88776244D01*
X188030600Y-88777317D01*
X187748383Y-88833454D01*
X187740420Y-88835588D01*
X187467953Y-88928078D01*
X187460349Y-88931228D01*
X187202282Y-89058492D01*
X187195145Y-89062613D01*
X186955901Y-89222470D01*
X186949361Y-89227488D01*
X186934926Y-89240147D01*
X186926528Y-89253386D01*
X111492158Y-89253386D01*
X111491620Y-89251144D01*
X111446357Y-89062613D01*
X111439105Y-89032406D01*
X111437211Y-89027833D01*
X111350135Y-88817611D01*
X111350133Y-88817607D01*
X111348240Y-88813037D01*
X111284142Y-88708439D01*
X111226759Y-88614798D01*
X111226755Y-88614792D01*
X111224176Y-88610584D01*
X111069969Y-88430031D01*
X110889416Y-88275824D01*
X110885208Y-88273245D01*
X110885202Y-88273241D01*
X110691183Y-88154346D01*
X110686963Y-88151760D01*
X110682393Y-88149867D01*
X110682389Y-88149865D01*
X110472167Y-88062789D01*
X110472165Y-88062788D01*
X110467594Y-88060895D01*
X110387391Y-88041640D01*
X110241524Y-88006620D01*
X110241518Y-88006619D01*
X110236711Y-88005465D01*
X110000000Y-87986835D01*
X109763289Y-88005465D01*
X109758482Y-88006619D01*
X109758476Y-88006620D01*
X109612609Y-88041640D01*
X109532406Y-88060895D01*
X109527835Y-88062788D01*
X109527833Y-88062789D01*
X109317611Y-88149865D01*
X109317607Y-88149867D01*
X109313037Y-88151760D01*
X109308817Y-88154346D01*
X109114798Y-88273241D01*
X109114792Y-88273245D01*
X109110584Y-88275824D01*
X108930031Y-88430031D01*
X108775824Y-88610584D01*
X108773245Y-88614792D01*
X108773241Y-88614798D01*
X108715858Y-88708439D01*
X108651760Y-88813037D01*
X108649867Y-88817607D01*
X108649865Y-88817611D01*
X108562789Y-89027833D01*
X108560895Y-89032406D01*
X108553643Y-89062613D01*
X108508381Y-89251144D01*
X108505465Y-89263289D01*
X108486835Y-89500000D01*
X104744149Y-89500000D01*
X104722013Y-89457112D01*
X104712040Y-89442921D01*
X104585695Y-89263151D01*
X104564545Y-89233057D01*
X104406159Y-89062613D01*
X104381046Y-89035588D01*
X104381043Y-89035585D01*
X104378125Y-89032445D01*
X104374810Y-89029731D01*
X104374806Y-89029728D01*
X104169523Y-88861706D01*
X104166205Y-88858990D01*
X103932704Y-88715901D01*
X103928768Y-88714173D01*
X103685873Y-88607549D01*
X103685869Y-88607548D01*
X103681945Y-88605825D01*
X103418566Y-88530800D01*
X103414324Y-88530196D01*
X103414318Y-88530195D01*
X103213834Y-88501662D01*
X103147443Y-88492213D01*
X103003589Y-88491460D01*
X102877877Y-88490802D01*
X102877871Y-88490802D01*
X102873591Y-88490780D01*
X102869347Y-88491339D01*
X102869343Y-88491339D01*
X102750302Y-88507011D01*
X102602078Y-88526525D01*
X102597938Y-88527658D01*
X102597936Y-88527658D01*
X102525008Y-88547609D01*
X102337928Y-88598788D01*
X102333980Y-88600472D01*
X102089982Y-88704546D01*
X102089978Y-88704548D01*
X102086030Y-88706232D01*
X102066125Y-88718145D01*
X101854725Y-88844664D01*
X101854721Y-88844667D01*
X101851043Y-88846868D01*
X101637318Y-89018094D01*
X101448808Y-89216742D01*
X101289002Y-89439136D01*
X101286998Y-89442921D01*
X101237355Y-89536681D01*
X101187802Y-89587524D01*
X101118628Y-89603506D01*
X101051794Y-89579553D01*
X101008520Y-89523268D01*
X101000000Y-89477722D01*
X101000000Y-86230469D01*
X101587095Y-86230469D01*
X101587392Y-86235622D01*
X101587392Y-86235625D01*
X101593067Y-86334041D01*
X101600427Y-86461697D01*
X101601564Y-86466743D01*
X101601565Y-86466749D01*
X101624827Y-86569969D01*
X101651346Y-86687642D01*
X101653288Y-86692424D01*
X101653289Y-86692428D01*
X101724996Y-86869020D01*
X101738484Y-86902237D01*
X101859501Y-87099719D01*
X102011147Y-87274784D01*
X102163785Y-87401507D01*
X102183522Y-87417892D01*
X102189349Y-87422730D01*
X102389322Y-87539584D01*
X102605694Y-87622209D01*
X102610760Y-87623240D01*
X102610761Y-87623240D01*
X102663846Y-87634040D01*
X102832656Y-87668385D01*
X102963324Y-87673176D01*
X103058949Y-87676683D01*
X103058953Y-87676683D01*
X103064113Y-87676872D01*
X103069233Y-87676216D01*
X103069235Y-87676216D01*
X103142270Y-87666860D01*
X103293847Y-87647442D01*
X103298795Y-87645957D01*
X103298802Y-87645956D01*
X103510747Y-87582369D01*
X103515690Y-87580886D01*
X103520324Y-87578616D01*
X103719049Y-87481262D01*
X103719052Y-87481260D01*
X103723684Y-87478991D01*
X103912243Y-87344494D01*
X104076303Y-87181005D01*
X104211458Y-86992917D01*
X104219141Y-86977373D01*
X104311784Y-86789922D01*
X104311785Y-86789920D01*
X104314078Y-86785280D01*
X104330062Y-86732670D01*
X115132160Y-86732670D01*
X115137887Y-86740320D01*
X115309042Y-86845205D01*
X115317837Y-86849687D01*
X115527988Y-86936734D01*
X115537373Y-86939783D01*
X115758554Y-86992885D01*
X115768301Y-86994428D01*
X115995070Y-87012275D01*
X116004930Y-87012275D01*
X116231699Y-86994428D01*
X116241446Y-86992885D01*
X116462627Y-86939783D01*
X116472012Y-86936734D01*
X116682163Y-86849687D01*
X116690958Y-86845205D01*
X116858445Y-86742568D01*
X116867907Y-86732110D01*
X116864124Y-86723334D01*
X116012812Y-85872022D01*
X115998868Y-85864408D01*
X115997035Y-85864539D01*
X115990420Y-85868790D01*
X115138920Y-86720290D01*
X115132160Y-86732670D01*
X104330062Y-86732670D01*
X104381408Y-86563671D01*
X104411640Y-86334041D01*
X104411985Y-86319908D01*
X104413245Y-86268365D01*
X104413245Y-86268361D01*
X104413327Y-86265000D01*
X104395403Y-86046983D01*
X104394773Y-86039318D01*
X104394772Y-86039312D01*
X104394349Y-86034167D01*
X104337925Y-85809533D01*
X104326952Y-85784297D01*
X104247630Y-85601868D01*
X104247628Y-85601865D01*
X104245570Y-85597131D01*
X104185922Y-85504930D01*
X114487725Y-85504930D01*
X114505572Y-85731699D01*
X114507115Y-85741446D01*
X114560217Y-85962627D01*
X114563266Y-85972012D01*
X114650313Y-86182163D01*
X114654795Y-86190958D01*
X114757432Y-86358445D01*
X114767890Y-86367907D01*
X114776666Y-86364124D01*
X115627978Y-85512812D01*
X115634356Y-85501132D01*
X116364408Y-85501132D01*
X116364539Y-85502965D01*
X116368790Y-85509580D01*
X117220290Y-86361080D01*
X117232670Y-86367840D01*
X117240320Y-86362113D01*
X117345205Y-86190958D01*
X117349687Y-86182163D01*
X117436734Y-85972012D01*
X117439783Y-85962627D01*
X117492885Y-85741446D01*
X117494428Y-85731699D01*
X117512275Y-85504930D01*
X117512275Y-85500000D01*
X123486835Y-85500000D01*
X123505465Y-85736711D01*
X123506619Y-85741518D01*
X123506620Y-85741524D01*
X123524151Y-85814544D01*
X123560895Y-85967594D01*
X123562788Y-85972165D01*
X123562789Y-85972167D01*
X123649772Y-86182163D01*
X123651760Y-86186963D01*
X123654346Y-86191183D01*
X123773241Y-86385202D01*
X123773245Y-86385208D01*
X123775824Y-86389416D01*
X123930031Y-86569969D01*
X124110584Y-86724176D01*
X124114792Y-86726755D01*
X124114798Y-86726759D01*
X124253445Y-86811722D01*
X124313037Y-86848240D01*
X124317607Y-86850133D01*
X124317611Y-86850135D01*
X124527833Y-86937211D01*
X124532406Y-86939105D01*
X124603933Y-86956277D01*
X124758476Y-86993380D01*
X124758482Y-86993381D01*
X124763289Y-86994535D01*
X125000000Y-87013165D01*
X125236711Y-86994535D01*
X125241518Y-86993381D01*
X125241524Y-86993380D01*
X125396067Y-86956277D01*
X125467594Y-86939105D01*
X125472167Y-86937211D01*
X125682389Y-86850135D01*
X125682393Y-86850133D01*
X125686963Y-86848240D01*
X125746555Y-86811722D01*
X125885202Y-86726759D01*
X125885208Y-86726755D01*
X125889416Y-86724176D01*
X126069969Y-86569969D01*
X126224176Y-86389416D01*
X126226755Y-86385208D01*
X126226759Y-86385202D01*
X126345654Y-86191183D01*
X126348240Y-86186963D01*
X126350229Y-86182163D01*
X126437211Y-85972167D01*
X126437212Y-85972165D01*
X126439105Y-85967594D01*
X126475849Y-85814544D01*
X126493380Y-85741524D01*
X126493381Y-85741518D01*
X126494535Y-85736711D01*
X126513165Y-85500000D01*
X126494535Y-85263289D01*
X126492078Y-85253051D01*
X126455493Y-85100669D01*
X126439105Y-85032406D01*
X126428432Y-85006638D01*
X126386293Y-84904904D01*
X137236941Y-84904904D01*
X137237304Y-84909052D01*
X137237304Y-84909056D01*
X137244680Y-84993357D01*
X137263091Y-85203792D01*
X137264001Y-85207864D01*
X137264002Y-85207869D01*
X137327628Y-85492516D01*
X137328540Y-85496595D01*
X137329984Y-85500518D01*
X137329984Y-85500520D01*
X137334507Y-85512812D01*
X137432140Y-85778171D01*
X137434084Y-85781859D01*
X137434088Y-85781867D01*
X137567111Y-86034167D01*
X137572069Y-86043571D01*
X137745871Y-86288133D01*
X137950490Y-86507561D01*
X138182333Y-86697998D01*
X138437325Y-86856100D01*
X138710988Y-86979089D01*
X138822308Y-87012275D01*
X138994514Y-87063612D01*
X138994516Y-87063612D01*
X138998513Y-87064804D01*
X139002633Y-87065457D01*
X139002635Y-87065457D01*
X139121509Y-87084285D01*
X139294848Y-87111739D01*
X139337577Y-87113679D01*
X139387262Y-87115936D01*
X139387281Y-87115936D01*
X139388681Y-87116000D01*
X139576107Y-87116000D01*
X139799370Y-87101171D01*
X139803464Y-87100346D01*
X139803468Y-87100345D01*
X139944513Y-87071905D01*
X140093480Y-87041868D01*
X140377163Y-86944188D01*
X140380896Y-86942319D01*
X140380900Y-86942317D01*
X140641691Y-86811722D01*
X140641693Y-86811721D01*
X140645435Y-86809847D01*
X140825255Y-86687642D01*
X140890125Y-86643557D01*
X140890128Y-86643555D01*
X140893584Y-86641206D01*
X141117248Y-86441226D01*
X141161655Y-86389416D01*
X141309779Y-86216597D01*
X141309782Y-86216593D01*
X141312499Y-86213423D01*
X141314773Y-86209921D01*
X141314777Y-86209916D01*
X141473628Y-85965307D01*
X141473631Y-85965302D01*
X141475907Y-85961797D01*
X141604600Y-85690770D01*
X141634665Y-85597131D01*
X141695038Y-85409091D01*
X141695038Y-85409090D01*
X141696318Y-85405104D01*
X141718968Y-85279217D01*
X141748709Y-85113925D01*
X141748710Y-85113920D01*
X141749448Y-85109816D01*
X141749864Y-85100669D01*
X141758754Y-84904904D01*
X167236941Y-84904904D01*
X167237304Y-84909052D01*
X167237304Y-84909056D01*
X167244680Y-84993357D01*
X167263091Y-85203792D01*
X167264001Y-85207864D01*
X167264002Y-85207869D01*
X167327628Y-85492516D01*
X167328540Y-85496595D01*
X167329984Y-85500518D01*
X167329984Y-85500520D01*
X167334507Y-85512812D01*
X167432140Y-85778171D01*
X167434084Y-85781859D01*
X167434088Y-85781867D01*
X167567111Y-86034167D01*
X167572069Y-86043571D01*
X167745871Y-86288133D01*
X167950490Y-86507561D01*
X168182333Y-86697998D01*
X168437325Y-86856100D01*
X168710988Y-86979089D01*
X168822308Y-87012275D01*
X168994514Y-87063612D01*
X168994516Y-87063612D01*
X168998513Y-87064804D01*
X169002633Y-87065457D01*
X169002635Y-87065457D01*
X169121509Y-87084285D01*
X169294848Y-87111739D01*
X169337577Y-87113679D01*
X169387262Y-87115936D01*
X169387281Y-87115936D01*
X169388681Y-87116000D01*
X169576107Y-87116000D01*
X169799370Y-87101171D01*
X169803464Y-87100346D01*
X169803468Y-87100345D01*
X169944513Y-87071905D01*
X170093480Y-87041868D01*
X170377163Y-86944188D01*
X170380896Y-86942319D01*
X170380900Y-86942317D01*
X170641691Y-86811722D01*
X170641693Y-86811721D01*
X170645435Y-86809847D01*
X170825255Y-86687642D01*
X170890125Y-86643557D01*
X170890128Y-86643555D01*
X170893584Y-86641206D01*
X171117248Y-86441226D01*
X171161655Y-86389416D01*
X171309695Y-86216695D01*
X182257251Y-86216695D01*
X182257548Y-86221848D01*
X182257548Y-86221851D01*
X182265966Y-86367840D01*
X182270110Y-86439715D01*
X182271247Y-86444761D01*
X182271248Y-86444767D01*
X182276202Y-86466749D01*
X182319222Y-86657639D01*
X182403266Y-86864616D01*
X182405965Y-86869020D01*
X182512393Y-87042695D01*
X182519987Y-87055088D01*
X182666250Y-87223938D01*
X182838126Y-87366632D01*
X183031000Y-87479338D01*
X183239692Y-87559030D01*
X183244760Y-87560061D01*
X183244763Y-87560062D01*
X183347117Y-87580886D01*
X183458597Y-87603567D01*
X183463772Y-87603757D01*
X183463774Y-87603757D01*
X183676673Y-87611564D01*
X183676677Y-87611564D01*
X183681837Y-87611753D01*
X183686957Y-87611097D01*
X183686959Y-87611097D01*
X183898288Y-87584025D01*
X183898289Y-87584025D01*
X183903416Y-87583368D01*
X183919255Y-87578616D01*
X184112429Y-87520661D01*
X184112434Y-87520659D01*
X184117384Y-87519174D01*
X184317994Y-87420896D01*
X184499860Y-87291173D01*
X184531076Y-87260066D01*
X184593445Y-87226150D01*
X184664252Y-87231338D01*
X184700500Y-87252373D01*
X184815072Y-87347492D01*
X184838126Y-87366632D01*
X185031000Y-87479338D01*
X185239692Y-87559030D01*
X185244760Y-87560061D01*
X185244763Y-87560062D01*
X185347117Y-87580886D01*
X185458597Y-87603567D01*
X185463772Y-87603757D01*
X185463774Y-87603757D01*
X185676673Y-87611564D01*
X185676677Y-87611564D01*
X185681837Y-87611753D01*
X185686957Y-87611097D01*
X185686959Y-87611097D01*
X185898288Y-87584025D01*
X185898289Y-87584025D01*
X185903416Y-87583368D01*
X185919255Y-87578616D01*
X186112429Y-87520661D01*
X186112434Y-87520659D01*
X186117384Y-87519174D01*
X186317994Y-87420896D01*
X186499860Y-87291173D01*
X186516307Y-87274784D01*
X186614625Y-87176808D01*
X186658096Y-87133489D01*
X186674120Y-87111190D01*
X186785435Y-86956277D01*
X186788453Y-86952077D01*
X186794294Y-86940260D01*
X186885136Y-86756453D01*
X186885137Y-86756451D01*
X186887430Y-86751811D01*
X186943819Y-86566213D01*
X186950865Y-86543023D01*
X186950865Y-86543021D01*
X186952370Y-86538069D01*
X186981529Y-86316590D01*
X186982790Y-86265000D01*
X186983074Y-86253365D01*
X186983074Y-86253361D01*
X186983156Y-86250000D01*
X186964852Y-86027361D01*
X186910431Y-85810702D01*
X186821354Y-85605840D01*
X186781906Y-85544862D01*
X186702822Y-85422617D01*
X186702820Y-85422614D01*
X186700014Y-85418277D01*
X186549670Y-85253051D01*
X186545619Y-85249852D01*
X186545615Y-85249848D01*
X186378414Y-85117800D01*
X186378410Y-85117798D01*
X186374359Y-85114598D01*
X186364184Y-85108981D01*
X186314212Y-85058552D01*
X186299437Y-84989109D01*
X186324551Y-84922703D01*
X186351905Y-84896093D01*
X186369247Y-84883723D01*
X186377648Y-84873023D01*
X186370660Y-84859870D01*
X185349885Y-83839095D01*
X185315859Y-83776783D01*
X185317694Y-83751132D01*
X185984408Y-83751132D01*
X185984539Y-83752965D01*
X185988790Y-83759580D01*
X186730474Y-84501264D01*
X186742484Y-84507823D01*
X186754223Y-84498855D01*
X186785004Y-84456019D01*
X186790315Y-84447180D01*
X186884670Y-84256267D01*
X186888469Y-84246672D01*
X186950376Y-84042915D01*
X186952555Y-84032834D01*
X186980590Y-83819887D01*
X186981109Y-83813212D01*
X186982572Y-83753364D01*
X186982378Y-83746646D01*
X186964781Y-83532604D01*
X186963096Y-83522424D01*
X186911214Y-83315875D01*
X186907894Y-83306124D01*
X186822972Y-83110814D01*
X186818105Y-83101739D01*
X186753063Y-83001197D01*
X186742377Y-82991995D01*
X186732812Y-82996398D01*
X185992022Y-83737188D01*
X185984408Y-83751132D01*
X185317694Y-83751132D01*
X185320924Y-83705968D01*
X185349885Y-83660905D01*
X186373389Y-82637401D01*
X186380410Y-82624544D01*
X186373611Y-82615213D01*
X186369554Y-82612518D01*
X186183117Y-82509599D01*
X186173705Y-82505369D01*
X185972959Y-82434280D01*
X185962989Y-82431646D01*
X185753327Y-82394301D01*
X185743073Y-82393331D01*
X185530116Y-82390728D01*
X185519832Y-82391448D01*
X185309321Y-82423661D01*
X185299293Y-82426050D01*
X185096868Y-82492212D01*
X185087364Y-82496207D01*
X184974363Y-82555032D01*
X184904703Y-82568745D01*
X184838688Y-82542620D01*
X184835667Y-82539949D01*
X184833261Y-82536739D01*
X184716705Y-82449385D01*
X184580316Y-82398255D01*
X184518134Y-82391500D01*
X182721866Y-82391500D01*
X182659684Y-82398255D01*
X182523295Y-82449385D01*
X182406739Y-82536739D01*
X182319385Y-82653295D01*
X182268255Y-82789684D01*
X182261500Y-82851866D01*
X182261500Y-84648134D01*
X182268255Y-84710316D01*
X182319385Y-84846705D01*
X182406739Y-84963261D01*
X182523295Y-85050615D01*
X182531703Y-85053767D01*
X182612309Y-85083985D01*
X182669073Y-85126627D01*
X182693773Y-85193188D01*
X182678566Y-85262537D01*
X182659173Y-85289017D01*
X182560629Y-85392138D01*
X182557715Y-85396410D01*
X182557714Y-85396411D01*
X182478311Y-85512812D01*
X182434743Y-85576680D01*
X182419003Y-85610590D01*
X182362750Y-85731777D01*
X182340688Y-85779305D01*
X182280989Y-85994570D01*
X182257251Y-86216695D01*
X171309695Y-86216695D01*
X171309779Y-86216597D01*
X171309782Y-86216593D01*
X171312499Y-86213423D01*
X171314773Y-86209921D01*
X171314777Y-86209916D01*
X171473628Y-85965307D01*
X171473631Y-85965302D01*
X171475907Y-85961797D01*
X171604600Y-85690770D01*
X171634665Y-85597131D01*
X171695038Y-85409091D01*
X171695038Y-85409090D01*
X171696318Y-85405104D01*
X171718968Y-85279217D01*
X171748709Y-85113925D01*
X171748710Y-85113920D01*
X171749448Y-85109816D01*
X171749864Y-85100669D01*
X171762870Y-84814266D01*
X171762870Y-84814260D01*
X171763059Y-84810096D01*
X171754977Y-84717715D01*
X171745972Y-84614798D01*
X171736909Y-84511208D01*
X171734687Y-84501264D01*
X171672372Y-84222484D01*
X171672371Y-84222481D01*
X171671460Y-84218405D01*
X171567860Y-83936829D01*
X171565916Y-83933141D01*
X171565912Y-83933133D01*
X171429884Y-83675133D01*
X171429883Y-83675132D01*
X171427931Y-83671429D01*
X171254129Y-83426867D01*
X171049510Y-83207439D01*
X170817667Y-83017002D01*
X170562675Y-82858900D01*
X170289012Y-82735911D01*
X170075650Y-82672305D01*
X170005486Y-82651388D01*
X170005484Y-82651388D01*
X170001487Y-82650196D01*
X169997367Y-82649543D01*
X169997365Y-82649543D01*
X169839527Y-82624544D01*
X169705152Y-82603261D01*
X169662423Y-82601321D01*
X169612738Y-82599064D01*
X169612719Y-82599064D01*
X169611319Y-82599000D01*
X169423893Y-82599000D01*
X169200630Y-82613829D01*
X169196536Y-82614654D01*
X169196532Y-82614655D01*
X169083726Y-82637401D01*
X168906520Y-82673132D01*
X168622837Y-82770812D01*
X168619104Y-82772681D01*
X168619100Y-82772683D01*
X168358309Y-82903278D01*
X168354565Y-82905153D01*
X168106416Y-83073794D01*
X167882752Y-83273774D01*
X167880035Y-83276944D01*
X167880034Y-83276945D01*
X167713709Y-83471000D01*
X167687501Y-83501577D01*
X167685227Y-83505079D01*
X167685223Y-83505084D01*
X167534493Y-83737188D01*
X167524093Y-83753203D01*
X167522299Y-83756982D01*
X167522298Y-83756983D01*
X167470218Y-83866664D01*
X167395400Y-84024230D01*
X167394121Y-84028213D01*
X167394120Y-84028216D01*
X167317169Y-84267890D01*
X167303682Y-84309896D01*
X167250552Y-84605184D01*
X167250363Y-84609351D01*
X167250362Y-84609358D01*
X167238133Y-84878649D01*
X167236941Y-84904904D01*
X141758754Y-84904904D01*
X141762870Y-84814266D01*
X141762870Y-84814260D01*
X141763059Y-84810096D01*
X141754977Y-84717715D01*
X141745972Y-84614798D01*
X141736909Y-84511208D01*
X141734687Y-84501264D01*
X141672372Y-84222484D01*
X141672371Y-84222481D01*
X141671460Y-84218405D01*
X141567860Y-83936829D01*
X141565916Y-83933141D01*
X141565912Y-83933133D01*
X141429884Y-83675133D01*
X141429883Y-83675132D01*
X141427931Y-83671429D01*
X141254129Y-83426867D01*
X141049510Y-83207439D01*
X140817667Y-83017002D01*
X140562675Y-82858900D01*
X140289012Y-82735911D01*
X140075650Y-82672305D01*
X140005486Y-82651388D01*
X140005484Y-82651388D01*
X140001487Y-82650196D01*
X139997367Y-82649543D01*
X139997365Y-82649543D01*
X139839527Y-82624544D01*
X139705152Y-82603261D01*
X139662423Y-82601321D01*
X139612738Y-82599064D01*
X139612719Y-82599064D01*
X139611319Y-82599000D01*
X139423893Y-82599000D01*
X139200630Y-82613829D01*
X139196536Y-82614654D01*
X139196532Y-82614655D01*
X139083726Y-82637401D01*
X138906520Y-82673132D01*
X138622837Y-82770812D01*
X138619104Y-82772681D01*
X138619100Y-82772683D01*
X138358309Y-82903278D01*
X138354565Y-82905153D01*
X138106416Y-83073794D01*
X137882752Y-83273774D01*
X137880035Y-83276944D01*
X137880034Y-83276945D01*
X137713709Y-83471000D01*
X137687501Y-83501577D01*
X137685227Y-83505079D01*
X137685223Y-83505084D01*
X137534493Y-83737188D01*
X137524093Y-83753203D01*
X137522299Y-83756982D01*
X137522298Y-83756983D01*
X137470218Y-83866664D01*
X137395400Y-84024230D01*
X137394121Y-84028213D01*
X137394120Y-84028216D01*
X137317169Y-84267890D01*
X137303682Y-84309896D01*
X137250552Y-84605184D01*
X137250363Y-84609351D01*
X137250362Y-84609358D01*
X137238133Y-84878649D01*
X137236941Y-84904904D01*
X126386293Y-84904904D01*
X126350135Y-84817611D01*
X126350133Y-84817607D01*
X126348240Y-84813037D01*
X126305080Y-84742606D01*
X126226759Y-84614798D01*
X126226755Y-84614792D01*
X126224176Y-84610584D01*
X126069969Y-84430031D01*
X125889416Y-84275824D01*
X125885208Y-84273245D01*
X125885202Y-84273241D01*
X125691183Y-84154346D01*
X125686963Y-84151760D01*
X125682393Y-84149867D01*
X125682389Y-84149865D01*
X125472167Y-84062789D01*
X125472165Y-84062788D01*
X125467594Y-84060895D01*
X125387391Y-84041640D01*
X125241524Y-84006620D01*
X125241518Y-84006619D01*
X125236711Y-84005465D01*
X125000000Y-83986835D01*
X124763289Y-84005465D01*
X124758482Y-84006619D01*
X124758476Y-84006620D01*
X124612609Y-84041640D01*
X124532406Y-84060895D01*
X124527835Y-84062788D01*
X124527833Y-84062789D01*
X124317611Y-84149865D01*
X124317607Y-84149867D01*
X124313037Y-84151760D01*
X124308817Y-84154346D01*
X124114798Y-84273241D01*
X124114792Y-84273245D01*
X124110584Y-84275824D01*
X123930031Y-84430031D01*
X123775824Y-84610584D01*
X123773245Y-84614792D01*
X123773241Y-84614798D01*
X123694920Y-84742606D01*
X123651760Y-84813037D01*
X123649867Y-84817607D01*
X123649865Y-84817611D01*
X123571568Y-85006638D01*
X123560895Y-85032406D01*
X123544507Y-85100669D01*
X123507923Y-85253051D01*
X123505465Y-85263289D01*
X123486835Y-85500000D01*
X117512275Y-85500000D01*
X117512275Y-85495070D01*
X117494428Y-85268301D01*
X117492885Y-85258554D01*
X117439783Y-85037373D01*
X117436734Y-85027988D01*
X117349687Y-84817837D01*
X117345205Y-84809042D01*
X117242568Y-84641555D01*
X117232110Y-84632093D01*
X117223334Y-84635876D01*
X116372022Y-85487188D01*
X116364408Y-85501132D01*
X115634356Y-85501132D01*
X115635592Y-85498868D01*
X115635461Y-85497035D01*
X115631210Y-85490420D01*
X114779710Y-84638920D01*
X114767330Y-84632160D01*
X114759680Y-84637887D01*
X114654795Y-84809042D01*
X114650313Y-84817837D01*
X114563266Y-85027988D01*
X114560217Y-85037373D01*
X114507115Y-85258554D01*
X114505572Y-85268301D01*
X114487725Y-85495070D01*
X114487725Y-85504930D01*
X104185922Y-85504930D01*
X104119764Y-85402665D01*
X104114074Y-85396411D01*
X104080776Y-85359818D01*
X104029486Y-85303450D01*
X103998434Y-85239605D01*
X104006829Y-85169106D01*
X104052005Y-85114338D01*
X104078449Y-85100669D01*
X104138054Y-85078324D01*
X104153649Y-85069786D01*
X104255724Y-84993285D01*
X104268285Y-84980724D01*
X104344786Y-84878649D01*
X104353324Y-84863054D01*
X104398478Y-84742606D01*
X104402105Y-84727351D01*
X104407631Y-84676486D01*
X104408000Y-84669672D01*
X104408000Y-84267890D01*
X115132093Y-84267890D01*
X115135876Y-84276666D01*
X115987188Y-85127978D01*
X116001132Y-85135592D01*
X116002965Y-85135461D01*
X116009580Y-85131210D01*
X116861080Y-84279710D01*
X116867840Y-84267330D01*
X116862113Y-84259680D01*
X116690958Y-84154795D01*
X116682163Y-84150313D01*
X116472012Y-84063266D01*
X116462627Y-84060217D01*
X116241446Y-84007115D01*
X116231699Y-84005572D01*
X116004930Y-83987725D01*
X115995070Y-83987725D01*
X115768301Y-84005572D01*
X115758554Y-84007115D01*
X115537373Y-84060217D01*
X115527988Y-84063266D01*
X115317837Y-84150313D01*
X115309042Y-84154795D01*
X115141555Y-84257432D01*
X115132093Y-84267890D01*
X104408000Y-84267890D01*
X104408000Y-83997115D01*
X104403525Y-83981876D01*
X104402135Y-83980671D01*
X104394452Y-83979000D01*
X101610116Y-83979000D01*
X101594877Y-83983475D01*
X101593672Y-83984865D01*
X101592001Y-83992548D01*
X101592001Y-84669669D01*
X101592371Y-84676490D01*
X101597895Y-84727352D01*
X101601521Y-84742604D01*
X101646676Y-84863054D01*
X101655214Y-84878649D01*
X101731715Y-84980724D01*
X101744276Y-84993285D01*
X101846351Y-85069786D01*
X101861946Y-85078324D01*
X101921540Y-85100665D01*
X101978304Y-85143307D01*
X102003004Y-85209868D01*
X101987796Y-85279217D01*
X101968404Y-85305698D01*
X101901639Y-85375564D01*
X101898725Y-85379836D01*
X101898724Y-85379837D01*
X101825494Y-85487188D01*
X101771119Y-85566899D01*
X101673602Y-85776981D01*
X101611707Y-86000169D01*
X101587095Y-86230469D01*
X101000000Y-86230469D01*
X101000000Y-83452885D01*
X101592000Y-83452885D01*
X101596475Y-83468124D01*
X101597865Y-83469329D01*
X101605548Y-83471000D01*
X102727885Y-83471000D01*
X102743124Y-83466525D01*
X102744329Y-83465135D01*
X102746000Y-83457452D01*
X102746000Y-83452885D01*
X103254000Y-83452885D01*
X103258475Y-83468124D01*
X103259865Y-83469329D01*
X103267548Y-83471000D01*
X104389884Y-83471000D01*
X104405123Y-83466525D01*
X104406328Y-83465135D01*
X104407999Y-83457452D01*
X104407999Y-82780331D01*
X104407629Y-82773510D01*
X104402105Y-82722648D01*
X104398479Y-82707396D01*
X104353324Y-82586946D01*
X104344786Y-82571351D01*
X104268285Y-82469276D01*
X104255724Y-82456715D01*
X104153649Y-82380214D01*
X104138054Y-82371676D01*
X104017606Y-82326522D01*
X104002351Y-82322895D01*
X103951486Y-82317369D01*
X103944672Y-82317000D01*
X103272115Y-82317000D01*
X103256876Y-82321475D01*
X103255671Y-82322865D01*
X103254000Y-82330548D01*
X103254000Y-83452885D01*
X102746000Y-83452885D01*
X102746000Y-82335116D01*
X102741525Y-82319877D01*
X102740135Y-82318672D01*
X102732452Y-82317001D01*
X102055331Y-82317001D01*
X102048510Y-82317371D01*
X101997648Y-82322895D01*
X101982396Y-82326521D01*
X101861946Y-82371676D01*
X101846351Y-82380214D01*
X101744276Y-82456715D01*
X101731715Y-82469276D01*
X101655214Y-82571351D01*
X101646676Y-82586946D01*
X101601522Y-82707394D01*
X101597895Y-82722649D01*
X101592369Y-82773514D01*
X101592000Y-82780328D01*
X101592000Y-83452885D01*
X101000000Y-83452885D01*
X101000000Y-80524558D01*
X101020002Y-80456437D01*
X101073658Y-80409944D01*
X101143932Y-80399840D01*
X101208512Y-80429334D01*
X101238565Y-80467944D01*
X101261114Y-80512777D01*
X101267160Y-80524799D01*
X101269586Y-80528328D01*
X101269589Y-80528334D01*
X101409413Y-80731777D01*
X101422274Y-80750490D01*
X101606582Y-80953043D01*
X101816675Y-81128707D01*
X101820316Y-81130991D01*
X102045024Y-81271951D01*
X102045028Y-81271953D01*
X102048664Y-81274234D01*
X102116544Y-81304883D01*
X102294345Y-81385164D01*
X102294349Y-81385166D01*
X102298257Y-81386930D01*
X102302377Y-81388150D01*
X102302376Y-81388150D01*
X102556723Y-81463491D01*
X102556727Y-81463492D01*
X102560836Y-81464709D01*
X102565070Y-81465357D01*
X102565075Y-81465358D01*
X102827298Y-81505483D01*
X102827300Y-81505483D01*
X102831540Y-81506132D01*
X102970912Y-81508322D01*
X103101071Y-81510367D01*
X103101077Y-81510367D01*
X103105362Y-81510434D01*
X103377235Y-81477534D01*
X103642127Y-81408041D01*
X103646087Y-81406401D01*
X103646092Y-81406399D01*
X103768631Y-81355641D01*
X103895136Y-81303241D01*
X104131582Y-81165073D01*
X104347089Y-80996094D01*
X104374708Y-80967594D01*
X104534686Y-80802509D01*
X104537669Y-80799431D01*
X104540202Y-80795983D01*
X104540206Y-80795978D01*
X104697257Y-80582178D01*
X104699795Y-80578723D01*
X104727154Y-80528334D01*
X104742538Y-80500000D01*
X108486835Y-80500000D01*
X108505465Y-80736711D01*
X108506619Y-80741518D01*
X108506620Y-80741524D01*
X108541640Y-80887391D01*
X108560895Y-80967594D01*
X108562788Y-80972165D01*
X108562789Y-80972167D01*
X108641596Y-81162424D01*
X108651760Y-81186963D01*
X108654346Y-81191183D01*
X108773241Y-81385202D01*
X108773245Y-81385208D01*
X108775824Y-81389416D01*
X108930031Y-81569969D01*
X109110584Y-81724176D01*
X109114792Y-81726755D01*
X109114798Y-81726759D01*
X109308817Y-81845654D01*
X109313037Y-81848240D01*
X109317607Y-81850133D01*
X109317611Y-81850135D01*
X109527833Y-81937211D01*
X109532406Y-81939105D01*
X109612609Y-81958360D01*
X109758476Y-81993380D01*
X109758482Y-81993381D01*
X109763289Y-81994535D01*
X110000000Y-82013165D01*
X110236711Y-81994535D01*
X110241518Y-81993381D01*
X110241524Y-81993380D01*
X110387391Y-81958360D01*
X110467594Y-81939105D01*
X110472167Y-81937211D01*
X110682389Y-81850135D01*
X110682393Y-81850133D01*
X110686963Y-81848240D01*
X110691183Y-81845654D01*
X110885202Y-81726759D01*
X110885208Y-81726755D01*
X110889416Y-81724176D01*
X111069969Y-81569969D01*
X111224176Y-81389416D01*
X111226755Y-81385208D01*
X111226759Y-81385202D01*
X111345654Y-81191183D01*
X111348240Y-81186963D01*
X111358405Y-81162424D01*
X111437211Y-80972167D01*
X111437212Y-80972165D01*
X111439105Y-80967594D01*
X111458360Y-80887391D01*
X111491620Y-80748856D01*
X186926601Y-80748856D01*
X186933059Y-80758216D01*
X186949361Y-80772512D01*
X186955901Y-80777530D01*
X187195144Y-80937387D01*
X187202281Y-80941508D01*
X187460349Y-81068772D01*
X187467953Y-81071922D01*
X187740420Y-81164412D01*
X187748383Y-81166546D01*
X188030600Y-81222683D01*
X188038751Y-81223756D01*
X188325881Y-81242575D01*
X188334119Y-81242575D01*
X188621249Y-81223756D01*
X188629400Y-81222683D01*
X188911617Y-81166546D01*
X188919580Y-81164412D01*
X189192047Y-81071922D01*
X189199651Y-81068772D01*
X189457719Y-80941508D01*
X189464856Y-80937387D01*
X189704099Y-80777530D01*
X189710639Y-80772512D01*
X189725074Y-80759853D01*
X189733472Y-80746614D01*
X189727638Y-80736849D01*
X188342810Y-79352020D01*
X188328869Y-79344408D01*
X188327034Y-79344539D01*
X188320420Y-79348790D01*
X186934116Y-80735095D01*
X186926601Y-80748856D01*
X111491620Y-80748856D01*
X111493380Y-80741524D01*
X111493381Y-80741518D01*
X111494535Y-80736711D01*
X111513165Y-80500000D01*
X111494535Y-80263289D01*
X111439105Y-80032406D01*
X111437211Y-80027833D01*
X111350135Y-79817611D01*
X111350133Y-79817607D01*
X111348240Y-79813037D01*
X111345654Y-79808817D01*
X111226759Y-79614798D01*
X111226755Y-79614792D01*
X111224176Y-79610584D01*
X111069969Y-79430031D01*
X110889416Y-79275824D01*
X110885208Y-79273245D01*
X110885202Y-79273241D01*
X110691183Y-79154346D01*
X110686963Y-79151760D01*
X110682393Y-79149867D01*
X110682389Y-79149865D01*
X110472167Y-79062789D01*
X110472165Y-79062788D01*
X110467594Y-79060895D01*
X110387391Y-79041640D01*
X110241524Y-79006620D01*
X110241518Y-79006619D01*
X110236711Y-79005465D01*
X110167273Y-79000000D01*
X114486835Y-79000000D01*
X114505465Y-79236711D01*
X114506619Y-79241518D01*
X114506620Y-79241524D01*
X114531321Y-79344408D01*
X114560895Y-79467594D01*
X114562788Y-79472165D01*
X114562789Y-79472167D01*
X114603139Y-79569580D01*
X114651760Y-79686963D01*
X114654346Y-79691183D01*
X114773241Y-79885202D01*
X114773245Y-79885208D01*
X114775824Y-79889416D01*
X114930031Y-80069969D01*
X115110584Y-80224176D01*
X115114792Y-80226755D01*
X115114798Y-80226759D01*
X115289858Y-80334036D01*
X115313037Y-80348240D01*
X115317607Y-80350133D01*
X115317611Y-80350135D01*
X115527833Y-80437211D01*
X115532406Y-80439105D01*
X115604599Y-80456437D01*
X115758476Y-80493380D01*
X115758482Y-80493381D01*
X115763289Y-80494535D01*
X116000000Y-80513165D01*
X116236711Y-80494535D01*
X116241518Y-80493381D01*
X116241524Y-80493380D01*
X116395401Y-80456437D01*
X116467594Y-80439105D01*
X116472167Y-80437211D01*
X116682389Y-80350135D01*
X116682393Y-80350133D01*
X116686963Y-80348240D01*
X116710142Y-80334036D01*
X116885202Y-80226759D01*
X116885208Y-80226755D01*
X116889416Y-80224176D01*
X117069969Y-80069969D01*
X117224176Y-79889416D01*
X117226755Y-79885208D01*
X117226759Y-79885202D01*
X117345654Y-79691183D01*
X117348240Y-79686963D01*
X117396862Y-79569580D01*
X117437211Y-79472167D01*
X117437212Y-79472165D01*
X117439105Y-79467594D01*
X117468679Y-79344408D01*
X117493380Y-79241524D01*
X117493381Y-79241518D01*
X117494535Y-79236711D01*
X117513165Y-79000000D01*
X123486835Y-79000000D01*
X123505465Y-79236711D01*
X123506619Y-79241518D01*
X123506620Y-79241524D01*
X123531321Y-79344408D01*
X123560895Y-79467594D01*
X123562788Y-79472165D01*
X123562789Y-79472167D01*
X123603139Y-79569580D01*
X123651760Y-79686963D01*
X123654346Y-79691183D01*
X123773241Y-79885202D01*
X123773245Y-79885208D01*
X123775824Y-79889416D01*
X123930031Y-80069969D01*
X124110584Y-80224176D01*
X124114792Y-80226755D01*
X124114798Y-80226759D01*
X124289858Y-80334036D01*
X124313037Y-80348240D01*
X124317607Y-80350133D01*
X124317611Y-80350135D01*
X124527833Y-80437211D01*
X124532406Y-80439105D01*
X124604599Y-80456437D01*
X124758476Y-80493380D01*
X124758482Y-80493381D01*
X124763289Y-80494535D01*
X125000000Y-80513165D01*
X125236711Y-80494535D01*
X125241518Y-80493381D01*
X125241524Y-80493380D01*
X125395401Y-80456437D01*
X125467594Y-80439105D01*
X125472167Y-80437211D01*
X125682389Y-80350135D01*
X125682393Y-80350133D01*
X125686963Y-80348240D01*
X125710142Y-80334036D01*
X125885202Y-80226759D01*
X125885208Y-80226755D01*
X125889416Y-80224176D01*
X126069969Y-80069969D01*
X126224176Y-79889416D01*
X126226755Y-79885208D01*
X126226759Y-79885202D01*
X126345654Y-79691183D01*
X126348240Y-79686963D01*
X126396862Y-79569580D01*
X126437211Y-79472167D01*
X126437212Y-79472165D01*
X126439105Y-79467594D01*
X126468679Y-79344408D01*
X126493380Y-79241524D01*
X126493381Y-79241518D01*
X126494535Y-79236711D01*
X126513165Y-79000000D01*
X126511915Y-78984119D01*
X186067425Y-78984119D01*
X186086244Y-79271249D01*
X186087317Y-79279400D01*
X186143454Y-79561617D01*
X186145588Y-79569580D01*
X186238078Y-79842047D01*
X186241228Y-79849651D01*
X186368492Y-80107718D01*
X186372613Y-80114855D01*
X186532470Y-80354099D01*
X186537488Y-80360639D01*
X186550147Y-80375074D01*
X186563386Y-80383472D01*
X186573151Y-80377638D01*
X187957980Y-78992810D01*
X187964357Y-78981131D01*
X188694408Y-78981131D01*
X188694539Y-78982966D01*
X188698790Y-78989580D01*
X190085095Y-80375884D01*
X190098856Y-80383399D01*
X190108216Y-80376941D01*
X190122512Y-80360639D01*
X190127530Y-80354099D01*
X190287387Y-80114855D01*
X190291508Y-80107718D01*
X190418772Y-79849651D01*
X190421922Y-79842047D01*
X190514412Y-79569580D01*
X190516546Y-79561617D01*
X190572683Y-79279400D01*
X190573756Y-79271249D01*
X190592575Y-78984119D01*
X190592575Y-78975881D01*
X190573756Y-78688751D01*
X190572683Y-78680600D01*
X190516546Y-78398383D01*
X190514412Y-78390420D01*
X190421922Y-78117953D01*
X190418772Y-78110349D01*
X190291508Y-77852282D01*
X190287387Y-77845145D01*
X190127530Y-77605901D01*
X190122512Y-77599361D01*
X190109853Y-77584926D01*
X190096614Y-77576528D01*
X190086849Y-77582362D01*
X188702020Y-78967190D01*
X188694408Y-78981131D01*
X187964357Y-78981131D01*
X187965592Y-78978869D01*
X187965461Y-78977034D01*
X187961210Y-78970420D01*
X186574905Y-77584116D01*
X186561144Y-77576601D01*
X186551784Y-77583059D01*
X186537488Y-77599361D01*
X186532470Y-77605901D01*
X186372613Y-77845145D01*
X186368492Y-77852282D01*
X186241228Y-78110349D01*
X186238078Y-78117953D01*
X186145588Y-78390420D01*
X186143454Y-78398383D01*
X186087317Y-78680600D01*
X186086244Y-78688751D01*
X186067425Y-78975881D01*
X186067425Y-78984119D01*
X126511915Y-78984119D01*
X126494535Y-78763289D01*
X126480423Y-78704506D01*
X126440260Y-78537218D01*
X126439105Y-78532406D01*
X126435320Y-78523268D01*
X126350135Y-78317611D01*
X126350133Y-78317607D01*
X126348240Y-78313037D01*
X126228692Y-78117953D01*
X126226759Y-78114798D01*
X126226755Y-78114792D01*
X126224176Y-78110584D01*
X126069969Y-77930031D01*
X125889416Y-77775824D01*
X125885208Y-77773245D01*
X125885202Y-77773241D01*
X125691183Y-77654346D01*
X125686963Y-77651760D01*
X125682393Y-77649867D01*
X125682389Y-77649865D01*
X125472167Y-77562789D01*
X125472165Y-77562788D01*
X125467594Y-77560895D01*
X125347142Y-77531977D01*
X125241524Y-77506620D01*
X125241518Y-77506619D01*
X125236711Y-77505465D01*
X125000000Y-77486835D01*
X124763289Y-77505465D01*
X124758482Y-77506619D01*
X124758476Y-77506620D01*
X124652858Y-77531977D01*
X124532406Y-77560895D01*
X124527835Y-77562788D01*
X124527833Y-77562789D01*
X124317611Y-77649865D01*
X124317607Y-77649867D01*
X124313037Y-77651760D01*
X124308817Y-77654346D01*
X124114798Y-77773241D01*
X124114792Y-77773245D01*
X124110584Y-77775824D01*
X123930031Y-77930031D01*
X123775824Y-78110584D01*
X123773245Y-78114792D01*
X123773241Y-78114798D01*
X123771308Y-78117953D01*
X123651760Y-78313037D01*
X123649867Y-78317607D01*
X123649865Y-78317611D01*
X123564680Y-78523268D01*
X123560895Y-78532406D01*
X123559740Y-78537218D01*
X123519578Y-78704506D01*
X123505465Y-78763289D01*
X123486835Y-79000000D01*
X117513165Y-79000000D01*
X117494535Y-78763289D01*
X117480423Y-78704506D01*
X117440260Y-78537218D01*
X117439105Y-78532406D01*
X117435320Y-78523268D01*
X117350135Y-78317611D01*
X117350133Y-78317607D01*
X117348240Y-78313037D01*
X117228692Y-78117953D01*
X117226759Y-78114798D01*
X117226755Y-78114792D01*
X117224176Y-78110584D01*
X117069969Y-77930031D01*
X116889416Y-77775824D01*
X116885208Y-77773245D01*
X116885202Y-77773241D01*
X116691183Y-77654346D01*
X116686963Y-77651760D01*
X116682393Y-77649867D01*
X116682389Y-77649865D01*
X116472167Y-77562789D01*
X116472165Y-77562788D01*
X116467594Y-77560895D01*
X116347142Y-77531977D01*
X116241524Y-77506620D01*
X116241518Y-77506619D01*
X116236711Y-77505465D01*
X116000000Y-77486835D01*
X115763289Y-77505465D01*
X115758482Y-77506619D01*
X115758476Y-77506620D01*
X115652858Y-77531977D01*
X115532406Y-77560895D01*
X115527835Y-77562788D01*
X115527833Y-77562789D01*
X115317611Y-77649865D01*
X115317607Y-77649867D01*
X115313037Y-77651760D01*
X115308817Y-77654346D01*
X115114798Y-77773241D01*
X115114792Y-77773245D01*
X115110584Y-77775824D01*
X114930031Y-77930031D01*
X114775824Y-78110584D01*
X114773245Y-78114792D01*
X114773241Y-78114798D01*
X114771308Y-78117953D01*
X114651760Y-78313037D01*
X114649867Y-78317607D01*
X114649865Y-78317611D01*
X114564680Y-78523268D01*
X114560895Y-78532406D01*
X114559740Y-78537218D01*
X114519578Y-78704506D01*
X114505465Y-78763289D01*
X114486835Y-79000000D01*
X110167273Y-79000000D01*
X110000000Y-78986835D01*
X109763289Y-79005465D01*
X109758482Y-79006619D01*
X109758476Y-79006620D01*
X109612609Y-79041640D01*
X109532406Y-79060895D01*
X109527835Y-79062788D01*
X109527833Y-79062789D01*
X109317611Y-79149865D01*
X109317607Y-79149867D01*
X109313037Y-79151760D01*
X109308817Y-79154346D01*
X109114798Y-79273241D01*
X109114792Y-79273245D01*
X109110584Y-79275824D01*
X108930031Y-79430031D01*
X108775824Y-79610584D01*
X108773245Y-79614792D01*
X108773241Y-79614798D01*
X108654346Y-79808817D01*
X108651760Y-79813037D01*
X108649867Y-79817607D01*
X108649865Y-79817611D01*
X108562789Y-80027833D01*
X108560895Y-80032406D01*
X108505465Y-80263289D01*
X108486835Y-80500000D01*
X104742538Y-80500000D01*
X104828418Y-80341830D01*
X104828419Y-80341828D01*
X104830468Y-80338054D01*
X104927269Y-80081877D01*
X104988407Y-79814933D01*
X104999452Y-79691183D01*
X105012531Y-79544627D01*
X105012531Y-79544625D01*
X105012751Y-79542161D01*
X105013193Y-79500000D01*
X105008423Y-79430031D01*
X104994859Y-79231055D01*
X104994858Y-79231049D01*
X104994567Y-79226778D01*
X104939032Y-78958612D01*
X104847617Y-78700465D01*
X104722013Y-78457112D01*
X104712040Y-78442921D01*
X104567008Y-78236562D01*
X104564545Y-78233057D01*
X104378125Y-78032445D01*
X104374810Y-78029731D01*
X104374806Y-78029728D01*
X104169523Y-77861706D01*
X104166205Y-77858990D01*
X103932704Y-77715901D01*
X103928768Y-77714173D01*
X103685873Y-77607549D01*
X103685869Y-77607548D01*
X103681945Y-77605825D01*
X103418566Y-77530800D01*
X103414324Y-77530196D01*
X103414318Y-77530195D01*
X103213834Y-77501662D01*
X103147443Y-77492213D01*
X103003589Y-77491460D01*
X102877877Y-77490802D01*
X102877871Y-77490802D01*
X102873591Y-77490780D01*
X102869347Y-77491339D01*
X102869343Y-77491339D01*
X102764993Y-77505077D01*
X102602078Y-77526525D01*
X102597938Y-77527658D01*
X102597936Y-77527658D01*
X102525008Y-77547609D01*
X102337928Y-77598788D01*
X102333980Y-77600472D01*
X102089982Y-77704546D01*
X102089978Y-77704548D01*
X102086030Y-77706232D01*
X101969750Y-77775824D01*
X101854725Y-77844664D01*
X101854721Y-77844667D01*
X101851043Y-77846868D01*
X101637318Y-78018094D01*
X101448808Y-78216742D01*
X101289002Y-78439136D01*
X101286998Y-78442921D01*
X101237355Y-78536681D01*
X101187802Y-78587524D01*
X101118628Y-78603506D01*
X101051794Y-78579553D01*
X101008520Y-78523268D01*
X101000000Y-78477722D01*
X101000000Y-77213386D01*
X186926528Y-77213386D01*
X186932362Y-77223151D01*
X188317190Y-78607980D01*
X188331131Y-78615592D01*
X188332966Y-78615461D01*
X188339580Y-78611210D01*
X189725884Y-77224905D01*
X189733399Y-77211144D01*
X189726941Y-77201784D01*
X189710639Y-77187488D01*
X189704099Y-77182470D01*
X189464856Y-77022613D01*
X189457719Y-77018492D01*
X189199651Y-76891228D01*
X189192047Y-76888078D01*
X188919580Y-76795588D01*
X188911617Y-76793454D01*
X188629400Y-76737317D01*
X188621249Y-76736244D01*
X188334119Y-76717425D01*
X188325881Y-76717425D01*
X188038751Y-76736244D01*
X188030600Y-76737317D01*
X187748383Y-76793454D01*
X187740420Y-76795588D01*
X187467953Y-76888078D01*
X187460349Y-76891228D01*
X187202282Y-77018492D01*
X187195145Y-77022613D01*
X186955901Y-77182470D01*
X186949361Y-77187488D01*
X186934926Y-77200147D01*
X186926528Y-77213386D01*
X101000000Y-77213386D01*
X101000000Y-74648134D01*
X113391500Y-74648134D01*
X113398255Y-74710316D01*
X113449385Y-74846705D01*
X113536739Y-74963261D01*
X113653295Y-75050615D01*
X113789684Y-75101745D01*
X113851866Y-75108500D01*
X116148134Y-75108500D01*
X116210316Y-75101745D01*
X116346705Y-75050615D01*
X116463261Y-74963261D01*
X116550615Y-74846705D01*
X116601745Y-74710316D01*
X116608500Y-74648134D01*
X124391500Y-74648134D01*
X124398255Y-74710316D01*
X124449385Y-74846705D01*
X124536739Y-74963261D01*
X124653295Y-75050615D01*
X124789684Y-75101745D01*
X124851866Y-75108500D01*
X127148134Y-75108500D01*
X127210316Y-75101745D01*
X127346705Y-75050615D01*
X127463261Y-74963261D01*
X127550615Y-74846705D01*
X127601745Y-74710316D01*
X127608500Y-74648134D01*
X127608500Y-72351866D01*
X127601745Y-72289684D01*
X127550615Y-72153295D01*
X127463261Y-72036739D01*
X127346705Y-71949385D01*
X127210316Y-71898255D01*
X127148134Y-71891500D01*
X124851866Y-71891500D01*
X124789684Y-71898255D01*
X124653295Y-71949385D01*
X124536739Y-72036739D01*
X124449385Y-72153295D01*
X124398255Y-72289684D01*
X124391500Y-72351866D01*
X124391500Y-74648134D01*
X116608500Y-74648134D01*
X116608500Y-73198134D01*
X117841500Y-73198134D01*
X117848255Y-73260316D01*
X117899385Y-73396705D01*
X117986739Y-73513261D01*
X118103295Y-73600615D01*
X118239684Y-73651745D01*
X118301866Y-73658500D01*
X119698134Y-73658500D01*
X119760316Y-73651745D01*
X119896705Y-73600615D01*
X120013261Y-73513261D01*
X120100615Y-73396705D01*
X120151745Y-73260316D01*
X120158500Y-73198134D01*
X120158500Y-72775084D01*
X120178502Y-72706963D01*
X120232158Y-72660470D01*
X120302432Y-72650366D01*
X120367012Y-72679860D01*
X120406623Y-72744068D01*
X120443272Y-72888372D01*
X120445689Y-72893615D01*
X120482389Y-72973223D01*
X120532411Y-73081731D01*
X120655296Y-73255609D01*
X120807809Y-73404181D01*
X120812605Y-73407386D01*
X120812608Y-73407388D01*
X120884088Y-73455149D01*
X120984843Y-73522471D01*
X120990146Y-73524749D01*
X120990149Y-73524751D01*
X121175163Y-73604239D01*
X121180470Y-73606519D01*
X121256316Y-73623681D01*
X121382501Y-73652234D01*
X121382506Y-73652235D01*
X121388138Y-73653509D01*
X121393909Y-73653736D01*
X121393911Y-73653736D01*
X121455252Y-73656146D01*
X121600891Y-73661869D01*
X121606600Y-73661041D01*
X121606604Y-73661041D01*
X121805890Y-73632145D01*
X121805894Y-73632144D01*
X121811605Y-73631316D01*
X122013223Y-73562876D01*
X122198993Y-73458840D01*
X122362693Y-73322693D01*
X122498840Y-73158993D01*
X122602876Y-72973223D01*
X122671316Y-72771605D01*
X122687431Y-72660470D01*
X122701337Y-72564561D01*
X122701337Y-72564559D01*
X122701869Y-72560891D01*
X122703463Y-72500000D01*
X122689852Y-72351866D01*
X122684510Y-72293730D01*
X122684509Y-72293727D01*
X122683981Y-72287976D01*
X122626186Y-72083052D01*
X122600694Y-72031358D01*
X122534570Y-71897273D01*
X122532015Y-71892092D01*
X122404622Y-71721491D01*
X122248271Y-71576963D01*
X122068201Y-71463347D01*
X121870441Y-71384449D01*
X121864781Y-71383323D01*
X121864777Y-71383322D01*
X121667282Y-71344038D01*
X121667280Y-71344038D01*
X121661615Y-71342911D01*
X121655840Y-71342835D01*
X121655836Y-71342835D01*
X121599458Y-71342097D01*
X121557016Y-71341542D01*
X121489164Y-71320650D01*
X121443377Y-71266391D01*
X121433195Y-71227082D01*
X121414510Y-71023730D01*
X121414509Y-71023727D01*
X121413981Y-71017976D01*
X121356186Y-70813052D01*
X121262015Y-70622092D01*
X121134622Y-70451491D01*
X120978271Y-70306963D01*
X120798201Y-70193347D01*
X120600441Y-70114449D01*
X120594781Y-70113323D01*
X120594777Y-70113322D01*
X120397282Y-70074038D01*
X120397280Y-70074038D01*
X120391615Y-70072911D01*
X120385840Y-70072835D01*
X120385836Y-70072835D01*
X120279161Y-70071439D01*
X120178716Y-70070124D01*
X120173019Y-70071103D01*
X120173018Y-70071103D01*
X119974564Y-70105203D01*
X119974561Y-70105204D01*
X119968874Y-70106181D01*
X119769116Y-70179875D01*
X119586134Y-70288739D01*
X119426054Y-70429125D01*
X119294238Y-70596333D01*
X119291549Y-70601444D01*
X119291547Y-70601447D01*
X119237085Y-70704961D01*
X119195100Y-70784762D01*
X119193386Y-70790283D01*
X119193384Y-70790287D01*
X119140494Y-70960623D01*
X119131961Y-70988102D01*
X119106936Y-71199544D01*
X119107441Y-71207256D01*
X119107239Y-71208160D01*
X119107163Y-71211080D01*
X119106589Y-71211065D01*
X119091941Y-71276538D01*
X119041443Y-71326442D01*
X118981712Y-71341500D01*
X118301866Y-71341500D01*
X118239684Y-71348255D01*
X118103295Y-71399385D01*
X117986739Y-71486739D01*
X117899385Y-71603295D01*
X117848255Y-71739684D01*
X117841500Y-71801866D01*
X117841500Y-73198134D01*
X116608500Y-73198134D01*
X116608500Y-72351866D01*
X116601745Y-72289684D01*
X116550615Y-72153295D01*
X116463261Y-72036739D01*
X116346705Y-71949385D01*
X116210316Y-71898255D01*
X116148134Y-71891500D01*
X113851866Y-71891500D01*
X113789684Y-71898255D01*
X113653295Y-71949385D01*
X113536739Y-72036739D01*
X113449385Y-72153295D01*
X113398255Y-72289684D01*
X113391500Y-72351866D01*
X113391500Y-74648134D01*
X101000000Y-74648134D01*
X101000000Y-63340000D01*
X113386526Y-63340000D01*
X113406391Y-63592403D01*
X113465495Y-63838591D01*
X113562384Y-64072502D01*
X113694672Y-64288376D01*
X113859102Y-64480898D01*
X114051624Y-64645328D01*
X114267498Y-64777616D01*
X114272068Y-64779509D01*
X114272072Y-64779511D01*
X114496836Y-64872611D01*
X114501409Y-64874505D01*
X114586032Y-64894821D01*
X114742784Y-64932454D01*
X114742790Y-64932455D01*
X114747597Y-64933609D01*
X115000000Y-64953474D01*
X115252403Y-64933609D01*
X115257210Y-64932455D01*
X115257216Y-64932454D01*
X115413968Y-64894821D01*
X115498591Y-64874505D01*
X115503164Y-64872611D01*
X115727928Y-64779511D01*
X115727932Y-64779509D01*
X115732502Y-64777616D01*
X115948376Y-64645328D01*
X116140898Y-64480898D01*
X116305328Y-64288376D01*
X116437616Y-64072502D01*
X116534505Y-63838591D01*
X116593609Y-63592403D01*
X116613474Y-63340000D01*
X124386526Y-63340000D01*
X124406391Y-63592403D01*
X124465495Y-63838591D01*
X124562384Y-64072502D01*
X124694672Y-64288376D01*
X124859102Y-64480898D01*
X125051624Y-64645328D01*
X125267498Y-64777616D01*
X125272068Y-64779509D01*
X125272072Y-64779511D01*
X125496836Y-64872611D01*
X125501409Y-64874505D01*
X125586032Y-64894821D01*
X125742784Y-64932454D01*
X125742790Y-64932455D01*
X125747597Y-64933609D01*
X126000000Y-64953474D01*
X126252403Y-64933609D01*
X126257210Y-64932455D01*
X126257216Y-64932454D01*
X126413968Y-64894821D01*
X126498591Y-64874505D01*
X126503164Y-64872611D01*
X126727928Y-64779511D01*
X126727932Y-64779509D01*
X126732502Y-64777616D01*
X126948376Y-64645328D01*
X127140898Y-64480898D01*
X127305328Y-64288376D01*
X127437616Y-64072502D01*
X127534505Y-63838591D01*
X127593609Y-63592403D01*
X127613474Y-63340000D01*
X127593609Y-63087597D01*
X127534505Y-62841409D01*
X127437616Y-62607498D01*
X127305328Y-62391624D01*
X127140898Y-62199102D01*
X126948376Y-62034672D01*
X126732502Y-61902384D01*
X126727932Y-61900491D01*
X126727928Y-61900489D01*
X126503164Y-61807389D01*
X126503162Y-61807388D01*
X126498591Y-61805495D01*
X126413968Y-61785179D01*
X126257216Y-61747546D01*
X126257210Y-61747545D01*
X126252403Y-61746391D01*
X126000000Y-61726526D01*
X125747597Y-61746391D01*
X125742790Y-61747545D01*
X125742784Y-61747546D01*
X125586032Y-61785179D01*
X125501409Y-61805495D01*
X125496838Y-61807388D01*
X125496836Y-61807389D01*
X125272072Y-61900489D01*
X125272068Y-61900491D01*
X125267498Y-61902384D01*
X125051624Y-62034672D01*
X124859102Y-62199102D01*
X124694672Y-62391624D01*
X124562384Y-62607498D01*
X124465495Y-62841409D01*
X124406391Y-63087597D01*
X124386526Y-63340000D01*
X116613474Y-63340000D01*
X116593609Y-63087597D01*
X116534505Y-62841409D01*
X116437616Y-62607498D01*
X116305328Y-62391624D01*
X116140898Y-62199102D01*
X115948376Y-62034672D01*
X115732502Y-61902384D01*
X115727932Y-61900491D01*
X115727928Y-61900489D01*
X115503164Y-61807389D01*
X115503162Y-61807388D01*
X115498591Y-61805495D01*
X115413968Y-61785179D01*
X115257216Y-61747546D01*
X115257210Y-61747545D01*
X115252403Y-61746391D01*
X115000000Y-61726526D01*
X114747597Y-61746391D01*
X114742790Y-61747545D01*
X114742784Y-61747546D01*
X114586032Y-61785179D01*
X114501409Y-61805495D01*
X114496838Y-61807388D01*
X114496836Y-61807389D01*
X114272072Y-61900489D01*
X114272068Y-61900491D01*
X114267498Y-61902384D01*
X114051624Y-62034672D01*
X113859102Y-62199102D01*
X113694672Y-62391624D01*
X113562384Y-62607498D01*
X113465495Y-62841409D01*
X113406391Y-63087597D01*
X113386526Y-63340000D01*
X101000000Y-63340000D01*
X101000000Y-54132703D01*
X101890743Y-54132703D01*
X101928268Y-54417734D01*
X102004129Y-54695036D01*
X102116923Y-54959476D01*
X102264561Y-55206161D01*
X102444313Y-55430528D01*
X102652851Y-55628423D01*
X102886317Y-55796186D01*
X102890112Y-55798195D01*
X102890113Y-55798196D01*
X102911869Y-55809715D01*
X103140392Y-55930712D01*
X103410373Y-56029511D01*
X103691264Y-56090755D01*
X103719841Y-56093004D01*
X103914282Y-56108307D01*
X103914291Y-56108307D01*
X103916739Y-56108500D01*
X104072271Y-56108500D01*
X104074407Y-56108354D01*
X104074418Y-56108354D01*
X104282548Y-56094165D01*
X104282554Y-56094164D01*
X104286825Y-56093873D01*
X104291020Y-56093004D01*
X104291022Y-56093004D01*
X104427583Y-56064724D01*
X104568342Y-56035574D01*
X104839343Y-55939607D01*
X105094812Y-55807750D01*
X105098313Y-55805289D01*
X105098317Y-55805287D01*
X105212418Y-55725095D01*
X105330023Y-55642441D01*
X105540622Y-55446740D01*
X105722713Y-55224268D01*
X105872927Y-54979142D01*
X105988483Y-54715898D01*
X106067244Y-54439406D01*
X106107751Y-54154784D01*
X106107845Y-54136951D01*
X106107867Y-54132703D01*
X193890743Y-54132703D01*
X193928268Y-54417734D01*
X194004129Y-54695036D01*
X194116923Y-54959476D01*
X194264561Y-55206161D01*
X194444313Y-55430528D01*
X194652851Y-55628423D01*
X194886317Y-55796186D01*
X194890112Y-55798195D01*
X194890113Y-55798196D01*
X194911869Y-55809715D01*
X195140392Y-55930712D01*
X195410373Y-56029511D01*
X195691264Y-56090755D01*
X195719841Y-56093004D01*
X195914282Y-56108307D01*
X195914291Y-56108307D01*
X195916739Y-56108500D01*
X196072271Y-56108500D01*
X196074407Y-56108354D01*
X196074418Y-56108354D01*
X196282548Y-56094165D01*
X196282554Y-56094164D01*
X196286825Y-56093873D01*
X196291020Y-56093004D01*
X196291022Y-56093004D01*
X196427583Y-56064724D01*
X196568342Y-56035574D01*
X196839343Y-55939607D01*
X197094812Y-55807750D01*
X197098313Y-55805289D01*
X197098317Y-55805287D01*
X197212418Y-55725095D01*
X197330023Y-55642441D01*
X197540622Y-55446740D01*
X197722713Y-55224268D01*
X197872927Y-54979142D01*
X197988483Y-54715898D01*
X198067244Y-54439406D01*
X198107751Y-54154784D01*
X198107845Y-54136951D01*
X198109235Y-53871583D01*
X198109235Y-53871576D01*
X198109257Y-53867297D01*
X198071732Y-53582266D01*
X197995871Y-53304964D01*
X197883077Y-53040524D01*
X197735439Y-52793839D01*
X197555687Y-52569472D01*
X197347149Y-52371577D01*
X197113683Y-52203814D01*
X197091843Y-52192250D01*
X197068654Y-52179972D01*
X196859608Y-52069288D01*
X196589627Y-51970489D01*
X196308736Y-51909245D01*
X196277685Y-51906801D01*
X196085718Y-51891693D01*
X196085709Y-51891693D01*
X196083261Y-51891500D01*
X195927729Y-51891500D01*
X195925593Y-51891646D01*
X195925582Y-51891646D01*
X195717452Y-51905835D01*
X195717446Y-51905836D01*
X195713175Y-51906127D01*
X195708980Y-51906996D01*
X195708978Y-51906996D01*
X195572416Y-51935277D01*
X195431658Y-51964426D01*
X195160657Y-52060393D01*
X194905188Y-52192250D01*
X194901687Y-52194711D01*
X194901683Y-52194713D01*
X194891594Y-52201804D01*
X194669977Y-52357559D01*
X194459378Y-52553260D01*
X194277287Y-52775732D01*
X194127073Y-53020858D01*
X194011517Y-53284102D01*
X193932756Y-53560594D01*
X193892249Y-53845216D01*
X193892227Y-53849505D01*
X193892226Y-53849512D01*
X193890765Y-54128417D01*
X193890743Y-54132703D01*
X106107867Y-54132703D01*
X106109235Y-53871583D01*
X106109235Y-53871576D01*
X106109257Y-53867297D01*
X106071732Y-53582266D01*
X105995871Y-53304964D01*
X105883077Y-53040524D01*
X105735439Y-52793839D01*
X105555687Y-52569472D01*
X105347149Y-52371577D01*
X105113683Y-52203814D01*
X105091843Y-52192250D01*
X105068654Y-52179972D01*
X104859608Y-52069288D01*
X104589627Y-51970489D01*
X104308736Y-51909245D01*
X104277685Y-51906801D01*
X104085718Y-51891693D01*
X104085709Y-51891693D01*
X104083261Y-51891500D01*
X103927729Y-51891500D01*
X103925593Y-51891646D01*
X103925582Y-51891646D01*
X103717452Y-51905835D01*
X103717446Y-51905836D01*
X103713175Y-51906127D01*
X103708980Y-51906996D01*
X103708978Y-51906996D01*
X103572416Y-51935277D01*
X103431658Y-51964426D01*
X103160657Y-52060393D01*
X102905188Y-52192250D01*
X102901687Y-52194711D01*
X102901683Y-52194713D01*
X102891594Y-52201804D01*
X102669977Y-52357559D01*
X102459378Y-52553260D01*
X102277287Y-52775732D01*
X102127073Y-53020858D01*
X102011517Y-53284102D01*
X101932756Y-53560594D01*
X101892249Y-53845216D01*
X101892227Y-53849505D01*
X101892226Y-53849512D01*
X101890765Y-54128417D01*
X101890743Y-54132703D01*
X101000000Y-54132703D01*
X101000000Y-51126000D01*
X101020002Y-51057879D01*
X101073658Y-51011386D01*
X101126000Y-51000000D01*
X198874000Y-51000000D01*
X198942121Y-51020002D01*
G37*
%TD.AperFunction*%
%TD*%
M02*
