%TF.GenerationSoftware,KiCad,Pcbnew,(6.0.7)*%
%TF.CreationDate,2023-10-27T20:15:15+01:00*%
%TF.ProjectId,slide_tester,736c6964-655f-4746-9573-7465722e6b69,rev?*%
%TF.SameCoordinates,Original*%
%TF.FileFunction,Drillmap*%
%TF.FilePolarity,Positive*%
%FSLAX45Y45*%
G04 Gerber Fmt 4.5, Leading zero omitted, Abs format (unit mm)*
G04 Created by KiCad (PCBNEW (6.0.7)) date 2023-10-27 20:15:15*
%MOMM*%
%LPD*%
G01*
G04 APERTURE LIST*
%ADD10C,0.100000*%
%ADD11C,0.200000*%
%ADD12C,0.320000*%
%ADD13C,0.350000*%
G04 APERTURE END LIST*
D10*
X20000000Y-12000000D02*
X10000000Y-12000000D01*
X10000000Y-5000000D01*
X20000000Y-5000000D01*
X20000000Y-12000000D01*
D11*
D12*
X10240000Y-5240000D02*
X10560000Y-5560000D01*
X10560000Y-5240000D02*
X10240000Y-5560000D01*
X10240000Y-11440000D02*
X10560000Y-11760000D01*
X10560000Y-11440000D02*
X10240000Y-11760000D01*
X19440000Y-5240000D02*
X19760000Y-5560000D01*
X19760000Y-5240000D02*
X19440000Y-5560000D01*
X19440000Y-11440000D02*
X19760000Y-11760000D01*
X19760000Y-11440000D02*
X19440000Y-11760000D01*
D13*
X14125000Y-8485750D02*
G75*
G03*
X14125000Y-8485750I-175000J0D01*
G01*
X17125000Y-8485750D02*
G75*
G03*
X17125000Y-8485750I-175000J0D01*
G01*
D11*
X10252619Y-12315476D02*
X10252619Y-12115476D01*
X10300238Y-12115476D01*
X10328810Y-12125000D01*
X10347857Y-12144048D01*
X10357381Y-12163095D01*
X10366905Y-12201190D01*
X10366905Y-12229762D01*
X10357381Y-12267857D01*
X10347857Y-12286905D01*
X10328810Y-12305952D01*
X10300238Y-12315476D01*
X10252619Y-12315476D01*
X10452619Y-12315476D02*
X10452619Y-12182143D01*
X10452619Y-12220238D02*
X10462143Y-12201190D01*
X10471667Y-12191667D01*
X10490714Y-12182143D01*
X10509762Y-12182143D01*
X10576429Y-12315476D02*
X10576429Y-12182143D01*
X10576429Y-12115476D02*
X10566905Y-12125000D01*
X10576429Y-12134524D01*
X10585952Y-12125000D01*
X10576429Y-12115476D01*
X10576429Y-12134524D01*
X10700238Y-12315476D02*
X10681190Y-12305952D01*
X10671667Y-12286905D01*
X10671667Y-12115476D01*
X10805000Y-12315476D02*
X10785952Y-12305952D01*
X10776429Y-12286905D01*
X10776429Y-12115476D01*
X11033571Y-12315476D02*
X11033571Y-12115476D01*
X11100238Y-12258333D01*
X11166905Y-12115476D01*
X11166905Y-12315476D01*
X11347857Y-12315476D02*
X11347857Y-12210714D01*
X11338333Y-12191667D01*
X11319286Y-12182143D01*
X11281190Y-12182143D01*
X11262143Y-12191667D01*
X11347857Y-12305952D02*
X11328809Y-12315476D01*
X11281190Y-12315476D01*
X11262143Y-12305952D01*
X11252619Y-12286905D01*
X11252619Y-12267857D01*
X11262143Y-12248809D01*
X11281190Y-12239286D01*
X11328809Y-12239286D01*
X11347857Y-12229762D01*
X11443095Y-12182143D02*
X11443095Y-12382143D01*
X11443095Y-12191667D02*
X11462143Y-12182143D01*
X11500238Y-12182143D01*
X11519286Y-12191667D01*
X11528809Y-12201190D01*
X11538333Y-12220238D01*
X11538333Y-12277381D01*
X11528809Y-12296428D01*
X11519286Y-12305952D01*
X11500238Y-12315476D01*
X11462143Y-12315476D01*
X11443095Y-12305952D01*
X11624048Y-12296428D02*
X11633571Y-12305952D01*
X11624048Y-12315476D01*
X11614524Y-12305952D01*
X11624048Y-12296428D01*
X11624048Y-12315476D01*
X11624048Y-12191667D02*
X11633571Y-12201190D01*
X11624048Y-12210714D01*
X11614524Y-12201190D01*
X11624048Y-12191667D01*
X11624048Y-12210714D01*
X9795000Y-12545000D02*
X9995000Y-12745000D01*
X9995000Y-12545000D02*
X9795000Y-12745000D01*
X10233571Y-12535476D02*
X10357381Y-12535476D01*
X10290714Y-12611667D01*
X10319286Y-12611667D01*
X10338333Y-12621190D01*
X10347857Y-12630714D01*
X10357381Y-12649762D01*
X10357381Y-12697381D01*
X10347857Y-12716428D01*
X10338333Y-12725952D01*
X10319286Y-12735476D01*
X10262143Y-12735476D01*
X10243095Y-12725952D01*
X10233571Y-12716428D01*
X10443095Y-12716428D02*
X10452619Y-12725952D01*
X10443095Y-12735476D01*
X10433571Y-12725952D01*
X10443095Y-12716428D01*
X10443095Y-12735476D01*
X10528810Y-12554524D02*
X10538333Y-12545000D01*
X10557381Y-12535476D01*
X10605000Y-12535476D01*
X10624048Y-12545000D01*
X10633571Y-12554524D01*
X10643095Y-12573571D01*
X10643095Y-12592619D01*
X10633571Y-12621190D01*
X10519286Y-12735476D01*
X10643095Y-12735476D01*
X10766905Y-12535476D02*
X10785952Y-12535476D01*
X10805000Y-12545000D01*
X10814524Y-12554524D01*
X10824048Y-12573571D01*
X10833571Y-12611667D01*
X10833571Y-12659286D01*
X10824048Y-12697381D01*
X10814524Y-12716428D01*
X10805000Y-12725952D01*
X10785952Y-12735476D01*
X10766905Y-12735476D01*
X10747857Y-12725952D01*
X10738333Y-12716428D01*
X10728810Y-12697381D01*
X10719286Y-12659286D01*
X10719286Y-12611667D01*
X10728810Y-12573571D01*
X10738333Y-12554524D01*
X10747857Y-12545000D01*
X10766905Y-12535476D01*
X10957381Y-12535476D02*
X10976429Y-12535476D01*
X10995476Y-12545000D01*
X11005000Y-12554524D01*
X11014524Y-12573571D01*
X11024048Y-12611667D01*
X11024048Y-12659286D01*
X11014524Y-12697381D01*
X11005000Y-12716428D01*
X10995476Y-12725952D01*
X10976429Y-12735476D01*
X10957381Y-12735476D01*
X10938333Y-12725952D01*
X10928810Y-12716428D01*
X10919286Y-12697381D01*
X10909762Y-12659286D01*
X10909762Y-12611667D01*
X10919286Y-12573571D01*
X10928810Y-12554524D01*
X10938333Y-12545000D01*
X10957381Y-12535476D01*
X11109762Y-12735476D02*
X11109762Y-12602143D01*
X11109762Y-12621190D02*
X11119286Y-12611667D01*
X11138333Y-12602143D01*
X11166905Y-12602143D01*
X11185952Y-12611667D01*
X11195476Y-12630714D01*
X11195476Y-12735476D01*
X11195476Y-12630714D02*
X11205000Y-12611667D01*
X11224048Y-12602143D01*
X11252619Y-12602143D01*
X11271667Y-12611667D01*
X11281190Y-12630714D01*
X11281190Y-12735476D01*
X11376428Y-12735476D02*
X11376428Y-12602143D01*
X11376428Y-12621190D02*
X11385952Y-12611667D01*
X11405000Y-12602143D01*
X11433571Y-12602143D01*
X11452619Y-12611667D01*
X11462143Y-12630714D01*
X11462143Y-12735476D01*
X11462143Y-12630714D02*
X11471667Y-12611667D01*
X11490714Y-12602143D01*
X11519286Y-12602143D01*
X11538333Y-12611667D01*
X11547857Y-12630714D01*
X11547857Y-12735476D01*
X11938333Y-12525952D02*
X11766905Y-12783095D01*
X12195476Y-12535476D02*
X12214524Y-12535476D01*
X12233571Y-12545000D01*
X12243095Y-12554524D01*
X12252619Y-12573571D01*
X12262143Y-12611667D01*
X12262143Y-12659286D01*
X12252619Y-12697381D01*
X12243095Y-12716428D01*
X12233571Y-12725952D01*
X12214524Y-12735476D01*
X12195476Y-12735476D01*
X12176428Y-12725952D01*
X12166905Y-12716428D01*
X12157381Y-12697381D01*
X12147857Y-12659286D01*
X12147857Y-12611667D01*
X12157381Y-12573571D01*
X12166905Y-12554524D01*
X12176428Y-12545000D01*
X12195476Y-12535476D01*
X12347857Y-12716428D02*
X12357381Y-12725952D01*
X12347857Y-12735476D01*
X12338333Y-12725952D01*
X12347857Y-12716428D01*
X12347857Y-12735476D01*
X12547857Y-12735476D02*
X12433571Y-12735476D01*
X12490714Y-12735476D02*
X12490714Y-12535476D01*
X12471667Y-12564048D01*
X12452619Y-12583095D01*
X12433571Y-12592619D01*
X12624048Y-12554524D02*
X12633571Y-12545000D01*
X12652619Y-12535476D01*
X12700238Y-12535476D01*
X12719286Y-12545000D01*
X12728809Y-12554524D01*
X12738333Y-12573571D01*
X12738333Y-12592619D01*
X12728809Y-12621190D01*
X12614524Y-12735476D01*
X12738333Y-12735476D01*
X12909762Y-12535476D02*
X12871667Y-12535476D01*
X12852619Y-12545000D01*
X12843095Y-12554524D01*
X12824048Y-12583095D01*
X12814524Y-12621190D01*
X12814524Y-12697381D01*
X12824048Y-12716428D01*
X12833571Y-12725952D01*
X12852619Y-12735476D01*
X12890714Y-12735476D01*
X12909762Y-12725952D01*
X12919286Y-12716428D01*
X12928809Y-12697381D01*
X12928809Y-12649762D01*
X12919286Y-12630714D01*
X12909762Y-12621190D01*
X12890714Y-12611667D01*
X12852619Y-12611667D01*
X12833571Y-12621190D01*
X12824048Y-12630714D01*
X12814524Y-12649762D01*
X13052619Y-12535476D02*
X13071667Y-12535476D01*
X13090714Y-12545000D01*
X13100238Y-12554524D01*
X13109762Y-12573571D01*
X13119286Y-12611667D01*
X13119286Y-12659286D01*
X13109762Y-12697381D01*
X13100238Y-12716428D01*
X13090714Y-12725952D01*
X13071667Y-12735476D01*
X13052619Y-12735476D01*
X13033571Y-12725952D01*
X13024048Y-12716428D01*
X13014524Y-12697381D01*
X13005000Y-12659286D01*
X13005000Y-12611667D01*
X13014524Y-12573571D01*
X13024048Y-12554524D01*
X13033571Y-12545000D01*
X13052619Y-12535476D01*
X13195476Y-12535476D02*
X13195476Y-12573571D01*
X13271667Y-12535476D02*
X13271667Y-12573571D01*
X13566905Y-12811667D02*
X13557381Y-12802143D01*
X13538333Y-12773571D01*
X13528809Y-12754524D01*
X13519286Y-12725952D01*
X13509762Y-12678333D01*
X13509762Y-12640238D01*
X13519286Y-12592619D01*
X13528809Y-12564048D01*
X13538333Y-12545000D01*
X13557381Y-12516428D01*
X13566905Y-12506905D01*
X13728809Y-12602143D02*
X13728809Y-12735476D01*
X13681190Y-12525952D02*
X13633571Y-12668809D01*
X13757381Y-12668809D01*
X13985952Y-12735476D02*
X13985952Y-12535476D01*
X14071667Y-12735476D02*
X14071667Y-12630714D01*
X14062143Y-12611667D01*
X14043095Y-12602143D01*
X14014524Y-12602143D01*
X13995476Y-12611667D01*
X13985952Y-12621190D01*
X14195476Y-12735476D02*
X14176428Y-12725952D01*
X14166905Y-12716428D01*
X14157381Y-12697381D01*
X14157381Y-12640238D01*
X14166905Y-12621190D01*
X14176428Y-12611667D01*
X14195476Y-12602143D01*
X14224048Y-12602143D01*
X14243095Y-12611667D01*
X14252619Y-12621190D01*
X14262143Y-12640238D01*
X14262143Y-12697381D01*
X14252619Y-12716428D01*
X14243095Y-12725952D01*
X14224048Y-12735476D01*
X14195476Y-12735476D01*
X14376428Y-12735476D02*
X14357381Y-12725952D01*
X14347857Y-12706905D01*
X14347857Y-12535476D01*
X14528809Y-12725952D02*
X14509762Y-12735476D01*
X14471667Y-12735476D01*
X14452619Y-12725952D01*
X14443095Y-12706905D01*
X14443095Y-12630714D01*
X14452619Y-12611667D01*
X14471667Y-12602143D01*
X14509762Y-12602143D01*
X14528809Y-12611667D01*
X14538333Y-12630714D01*
X14538333Y-12649762D01*
X14443095Y-12668809D01*
X14614524Y-12725952D02*
X14633571Y-12735476D01*
X14671667Y-12735476D01*
X14690714Y-12725952D01*
X14700238Y-12706905D01*
X14700238Y-12697381D01*
X14690714Y-12678333D01*
X14671667Y-12668809D01*
X14643095Y-12668809D01*
X14624048Y-12659286D01*
X14614524Y-12640238D01*
X14614524Y-12630714D01*
X14624048Y-12611667D01*
X14643095Y-12602143D01*
X14671667Y-12602143D01*
X14690714Y-12611667D01*
X14766905Y-12811667D02*
X14776428Y-12802143D01*
X14795476Y-12773571D01*
X14805000Y-12754524D01*
X14814524Y-12725952D01*
X14824048Y-12678333D01*
X14824048Y-12640238D01*
X14814524Y-12592619D01*
X14805000Y-12564048D01*
X14795476Y-12545000D01*
X14776428Y-12516428D01*
X14766905Y-12506905D01*
X15128809Y-12811667D02*
X15119286Y-12802143D01*
X15100238Y-12773571D01*
X15090714Y-12754524D01*
X15081190Y-12725952D01*
X15071667Y-12678333D01*
X15071667Y-12640238D01*
X15081190Y-12592619D01*
X15090714Y-12564048D01*
X15100238Y-12545000D01*
X15119286Y-12516428D01*
X15128809Y-12506905D01*
X15205000Y-12602143D02*
X15205000Y-12735476D01*
X15205000Y-12621190D02*
X15214524Y-12611667D01*
X15233571Y-12602143D01*
X15262143Y-12602143D01*
X15281190Y-12611667D01*
X15290714Y-12630714D01*
X15290714Y-12735476D01*
X15414524Y-12735476D02*
X15395476Y-12725952D01*
X15385952Y-12716428D01*
X15376428Y-12697381D01*
X15376428Y-12640238D01*
X15385952Y-12621190D01*
X15395476Y-12611667D01*
X15414524Y-12602143D01*
X15443095Y-12602143D01*
X15462143Y-12611667D01*
X15471667Y-12621190D01*
X15481190Y-12640238D01*
X15481190Y-12697381D01*
X15471667Y-12716428D01*
X15462143Y-12725952D01*
X15443095Y-12735476D01*
X15414524Y-12735476D01*
X15538333Y-12602143D02*
X15614524Y-12602143D01*
X15566905Y-12535476D02*
X15566905Y-12706905D01*
X15576428Y-12725952D01*
X15595476Y-12735476D01*
X15614524Y-12735476D01*
X15833571Y-12602143D02*
X15833571Y-12802143D01*
X15833571Y-12611667D02*
X15852619Y-12602143D01*
X15890714Y-12602143D01*
X15909762Y-12611667D01*
X15919286Y-12621190D01*
X15928809Y-12640238D01*
X15928809Y-12697381D01*
X15919286Y-12716428D01*
X15909762Y-12725952D01*
X15890714Y-12735476D01*
X15852619Y-12735476D01*
X15833571Y-12725952D01*
X16043095Y-12735476D02*
X16024048Y-12725952D01*
X16014524Y-12706905D01*
X16014524Y-12535476D01*
X16205000Y-12735476D02*
X16205000Y-12630714D01*
X16195476Y-12611667D01*
X16176428Y-12602143D01*
X16138333Y-12602143D01*
X16119286Y-12611667D01*
X16205000Y-12725952D02*
X16185952Y-12735476D01*
X16138333Y-12735476D01*
X16119286Y-12725952D01*
X16109762Y-12706905D01*
X16109762Y-12687857D01*
X16119286Y-12668809D01*
X16138333Y-12659286D01*
X16185952Y-12659286D01*
X16205000Y-12649762D01*
X16271667Y-12602143D02*
X16347857Y-12602143D01*
X16300238Y-12535476D02*
X16300238Y-12706905D01*
X16309762Y-12725952D01*
X16328809Y-12735476D01*
X16347857Y-12735476D01*
X16490714Y-12725952D02*
X16471667Y-12735476D01*
X16433571Y-12735476D01*
X16414524Y-12725952D01*
X16405000Y-12706905D01*
X16405000Y-12630714D01*
X16414524Y-12611667D01*
X16433571Y-12602143D01*
X16471667Y-12602143D01*
X16490714Y-12611667D01*
X16500238Y-12630714D01*
X16500238Y-12649762D01*
X16405000Y-12668809D01*
X16671667Y-12735476D02*
X16671667Y-12535476D01*
X16671667Y-12725952D02*
X16652619Y-12735476D01*
X16614524Y-12735476D01*
X16595476Y-12725952D01*
X16585952Y-12716428D01*
X16576428Y-12697381D01*
X16576428Y-12640238D01*
X16585952Y-12621190D01*
X16595476Y-12611667D01*
X16614524Y-12602143D01*
X16652619Y-12602143D01*
X16671667Y-12611667D01*
X16747857Y-12811667D02*
X16757381Y-12802143D01*
X16776428Y-12773571D01*
X16785952Y-12754524D01*
X16795476Y-12725952D01*
X16805000Y-12678333D01*
X16805000Y-12640238D01*
X16795476Y-12592619D01*
X16785952Y-12564048D01*
X16776428Y-12545000D01*
X16757381Y-12516428D01*
X16747857Y-12506905D01*
X9995000Y-12965000D02*
G75*
G03*
X9995000Y-12965000I-100000J0D01*
G01*
X10233571Y-12855476D02*
X10357381Y-12855476D01*
X10290714Y-12931667D01*
X10319286Y-12931667D01*
X10338333Y-12941190D01*
X10347857Y-12950714D01*
X10357381Y-12969762D01*
X10357381Y-13017381D01*
X10347857Y-13036428D01*
X10338333Y-13045952D01*
X10319286Y-13055476D01*
X10262143Y-13055476D01*
X10243095Y-13045952D01*
X10233571Y-13036428D01*
X10443095Y-13036428D02*
X10452619Y-13045952D01*
X10443095Y-13055476D01*
X10433571Y-13045952D01*
X10443095Y-13036428D01*
X10443095Y-13055476D01*
X10633571Y-12855476D02*
X10538333Y-12855476D01*
X10528810Y-12950714D01*
X10538333Y-12941190D01*
X10557381Y-12931667D01*
X10605000Y-12931667D01*
X10624048Y-12941190D01*
X10633571Y-12950714D01*
X10643095Y-12969762D01*
X10643095Y-13017381D01*
X10633571Y-13036428D01*
X10624048Y-13045952D01*
X10605000Y-13055476D01*
X10557381Y-13055476D01*
X10538333Y-13045952D01*
X10528810Y-13036428D01*
X10766905Y-12855476D02*
X10785952Y-12855476D01*
X10805000Y-12865000D01*
X10814524Y-12874524D01*
X10824048Y-12893571D01*
X10833571Y-12931667D01*
X10833571Y-12979286D01*
X10824048Y-13017381D01*
X10814524Y-13036428D01*
X10805000Y-13045952D01*
X10785952Y-13055476D01*
X10766905Y-13055476D01*
X10747857Y-13045952D01*
X10738333Y-13036428D01*
X10728810Y-13017381D01*
X10719286Y-12979286D01*
X10719286Y-12931667D01*
X10728810Y-12893571D01*
X10738333Y-12874524D01*
X10747857Y-12865000D01*
X10766905Y-12855476D01*
X10957381Y-12855476D02*
X10976429Y-12855476D01*
X10995476Y-12865000D01*
X11005000Y-12874524D01*
X11014524Y-12893571D01*
X11024048Y-12931667D01*
X11024048Y-12979286D01*
X11014524Y-13017381D01*
X11005000Y-13036428D01*
X10995476Y-13045952D01*
X10976429Y-13055476D01*
X10957381Y-13055476D01*
X10938333Y-13045952D01*
X10928810Y-13036428D01*
X10919286Y-13017381D01*
X10909762Y-12979286D01*
X10909762Y-12931667D01*
X10919286Y-12893571D01*
X10928810Y-12874524D01*
X10938333Y-12865000D01*
X10957381Y-12855476D01*
X11109762Y-13055476D02*
X11109762Y-12922143D01*
X11109762Y-12941190D02*
X11119286Y-12931667D01*
X11138333Y-12922143D01*
X11166905Y-12922143D01*
X11185952Y-12931667D01*
X11195476Y-12950714D01*
X11195476Y-13055476D01*
X11195476Y-12950714D02*
X11205000Y-12931667D01*
X11224048Y-12922143D01*
X11252619Y-12922143D01*
X11271667Y-12931667D01*
X11281190Y-12950714D01*
X11281190Y-13055476D01*
X11376428Y-13055476D02*
X11376428Y-12922143D01*
X11376428Y-12941190D02*
X11385952Y-12931667D01*
X11405000Y-12922143D01*
X11433571Y-12922143D01*
X11452619Y-12931667D01*
X11462143Y-12950714D01*
X11462143Y-13055476D01*
X11462143Y-12950714D02*
X11471667Y-12931667D01*
X11490714Y-12922143D01*
X11519286Y-12922143D01*
X11538333Y-12931667D01*
X11547857Y-12950714D01*
X11547857Y-13055476D01*
X11938333Y-12845952D02*
X11766905Y-13103095D01*
X12195476Y-12855476D02*
X12214524Y-12855476D01*
X12233571Y-12865000D01*
X12243095Y-12874524D01*
X12252619Y-12893571D01*
X12262143Y-12931667D01*
X12262143Y-12979286D01*
X12252619Y-13017381D01*
X12243095Y-13036428D01*
X12233571Y-13045952D01*
X12214524Y-13055476D01*
X12195476Y-13055476D01*
X12176428Y-13045952D01*
X12166905Y-13036428D01*
X12157381Y-13017381D01*
X12147857Y-12979286D01*
X12147857Y-12931667D01*
X12157381Y-12893571D01*
X12166905Y-12874524D01*
X12176428Y-12865000D01*
X12195476Y-12855476D01*
X12347857Y-13036428D02*
X12357381Y-13045952D01*
X12347857Y-13055476D01*
X12338333Y-13045952D01*
X12347857Y-13036428D01*
X12347857Y-13055476D01*
X12547857Y-13055476D02*
X12433571Y-13055476D01*
X12490714Y-13055476D02*
X12490714Y-12855476D01*
X12471667Y-12884048D01*
X12452619Y-12903095D01*
X12433571Y-12912619D01*
X12614524Y-12855476D02*
X12738333Y-12855476D01*
X12671667Y-12931667D01*
X12700238Y-12931667D01*
X12719286Y-12941190D01*
X12728809Y-12950714D01*
X12738333Y-12969762D01*
X12738333Y-13017381D01*
X12728809Y-13036428D01*
X12719286Y-13045952D01*
X12700238Y-13055476D01*
X12643095Y-13055476D01*
X12624048Y-13045952D01*
X12614524Y-13036428D01*
X12805000Y-12855476D02*
X12938333Y-12855476D01*
X12852619Y-13055476D01*
X13043095Y-12941190D02*
X13024048Y-12931667D01*
X13014524Y-12922143D01*
X13005000Y-12903095D01*
X13005000Y-12893571D01*
X13014524Y-12874524D01*
X13024048Y-12865000D01*
X13043095Y-12855476D01*
X13081190Y-12855476D01*
X13100238Y-12865000D01*
X13109762Y-12874524D01*
X13119286Y-12893571D01*
X13119286Y-12903095D01*
X13109762Y-12922143D01*
X13100238Y-12931667D01*
X13081190Y-12941190D01*
X13043095Y-12941190D01*
X13024048Y-12950714D01*
X13014524Y-12960238D01*
X13005000Y-12979286D01*
X13005000Y-13017381D01*
X13014524Y-13036428D01*
X13024048Y-13045952D01*
X13043095Y-13055476D01*
X13081190Y-13055476D01*
X13100238Y-13045952D01*
X13109762Y-13036428D01*
X13119286Y-13017381D01*
X13119286Y-12979286D01*
X13109762Y-12960238D01*
X13100238Y-12950714D01*
X13081190Y-12941190D01*
X13195476Y-12855476D02*
X13195476Y-12893571D01*
X13271667Y-12855476D02*
X13271667Y-12893571D01*
X13566905Y-13131667D02*
X13557381Y-13122143D01*
X13538333Y-13093571D01*
X13528809Y-13074524D01*
X13519286Y-13045952D01*
X13509762Y-12998333D01*
X13509762Y-12960238D01*
X13519286Y-12912619D01*
X13528809Y-12884048D01*
X13538333Y-12865000D01*
X13557381Y-12836428D01*
X13566905Y-12826905D01*
X13633571Y-12874524D02*
X13643095Y-12865000D01*
X13662143Y-12855476D01*
X13709762Y-12855476D01*
X13728809Y-12865000D01*
X13738333Y-12874524D01*
X13747857Y-12893571D01*
X13747857Y-12912619D01*
X13738333Y-12941190D01*
X13624048Y-13055476D01*
X13747857Y-13055476D01*
X13985952Y-13055476D02*
X13985952Y-12855476D01*
X14071667Y-13055476D02*
X14071667Y-12950714D01*
X14062143Y-12931667D01*
X14043095Y-12922143D01*
X14014524Y-12922143D01*
X13995476Y-12931667D01*
X13985952Y-12941190D01*
X14195476Y-13055476D02*
X14176428Y-13045952D01*
X14166905Y-13036428D01*
X14157381Y-13017381D01*
X14157381Y-12960238D01*
X14166905Y-12941190D01*
X14176428Y-12931667D01*
X14195476Y-12922143D01*
X14224048Y-12922143D01*
X14243095Y-12931667D01*
X14252619Y-12941190D01*
X14262143Y-12960238D01*
X14262143Y-13017381D01*
X14252619Y-13036428D01*
X14243095Y-13045952D01*
X14224048Y-13055476D01*
X14195476Y-13055476D01*
X14376428Y-13055476D02*
X14357381Y-13045952D01*
X14347857Y-13026905D01*
X14347857Y-12855476D01*
X14528809Y-13045952D02*
X14509762Y-13055476D01*
X14471667Y-13055476D01*
X14452619Y-13045952D01*
X14443095Y-13026905D01*
X14443095Y-12950714D01*
X14452619Y-12931667D01*
X14471667Y-12922143D01*
X14509762Y-12922143D01*
X14528809Y-12931667D01*
X14538333Y-12950714D01*
X14538333Y-12969762D01*
X14443095Y-12988809D01*
X14614524Y-13045952D02*
X14633571Y-13055476D01*
X14671667Y-13055476D01*
X14690714Y-13045952D01*
X14700238Y-13026905D01*
X14700238Y-13017381D01*
X14690714Y-12998333D01*
X14671667Y-12988809D01*
X14643095Y-12988809D01*
X14624048Y-12979286D01*
X14614524Y-12960238D01*
X14614524Y-12950714D01*
X14624048Y-12931667D01*
X14643095Y-12922143D01*
X14671667Y-12922143D01*
X14690714Y-12931667D01*
X14766905Y-13131667D02*
X14776428Y-13122143D01*
X14795476Y-13093571D01*
X14805000Y-13074524D01*
X14814524Y-13045952D01*
X14824048Y-12998333D01*
X14824048Y-12960238D01*
X14814524Y-12912619D01*
X14805000Y-12884048D01*
X14795476Y-12865000D01*
X14776428Y-12836428D01*
X14766905Y-12826905D01*
X15128809Y-13131667D02*
X15119286Y-13122143D01*
X15100238Y-13093571D01*
X15090714Y-13074524D01*
X15081190Y-13045952D01*
X15071667Y-12998333D01*
X15071667Y-12960238D01*
X15081190Y-12912619D01*
X15090714Y-12884048D01*
X15100238Y-12865000D01*
X15119286Y-12836428D01*
X15128809Y-12826905D01*
X15205000Y-12922143D02*
X15205000Y-13055476D01*
X15205000Y-12941190D02*
X15214524Y-12931667D01*
X15233571Y-12922143D01*
X15262143Y-12922143D01*
X15281190Y-12931667D01*
X15290714Y-12950714D01*
X15290714Y-13055476D01*
X15414524Y-13055476D02*
X15395476Y-13045952D01*
X15385952Y-13036428D01*
X15376428Y-13017381D01*
X15376428Y-12960238D01*
X15385952Y-12941190D01*
X15395476Y-12931667D01*
X15414524Y-12922143D01*
X15443095Y-12922143D01*
X15462143Y-12931667D01*
X15471667Y-12941190D01*
X15481190Y-12960238D01*
X15481190Y-13017381D01*
X15471667Y-13036428D01*
X15462143Y-13045952D01*
X15443095Y-13055476D01*
X15414524Y-13055476D01*
X15538333Y-12922143D02*
X15614524Y-12922143D01*
X15566905Y-12855476D02*
X15566905Y-13026905D01*
X15576428Y-13045952D01*
X15595476Y-13055476D01*
X15614524Y-13055476D01*
X15833571Y-12922143D02*
X15833571Y-13122143D01*
X15833571Y-12931667D02*
X15852619Y-12922143D01*
X15890714Y-12922143D01*
X15909762Y-12931667D01*
X15919286Y-12941190D01*
X15928809Y-12960238D01*
X15928809Y-13017381D01*
X15919286Y-13036428D01*
X15909762Y-13045952D01*
X15890714Y-13055476D01*
X15852619Y-13055476D01*
X15833571Y-13045952D01*
X16043095Y-13055476D02*
X16024048Y-13045952D01*
X16014524Y-13026905D01*
X16014524Y-12855476D01*
X16205000Y-13055476D02*
X16205000Y-12950714D01*
X16195476Y-12931667D01*
X16176428Y-12922143D01*
X16138333Y-12922143D01*
X16119286Y-12931667D01*
X16205000Y-13045952D02*
X16185952Y-13055476D01*
X16138333Y-13055476D01*
X16119286Y-13045952D01*
X16109762Y-13026905D01*
X16109762Y-13007857D01*
X16119286Y-12988809D01*
X16138333Y-12979286D01*
X16185952Y-12979286D01*
X16205000Y-12969762D01*
X16271667Y-12922143D02*
X16347857Y-12922143D01*
X16300238Y-12855476D02*
X16300238Y-13026905D01*
X16309762Y-13045952D01*
X16328809Y-13055476D01*
X16347857Y-13055476D01*
X16490714Y-13045952D02*
X16471667Y-13055476D01*
X16433571Y-13055476D01*
X16414524Y-13045952D01*
X16405000Y-13026905D01*
X16405000Y-12950714D01*
X16414524Y-12931667D01*
X16433571Y-12922143D01*
X16471667Y-12922143D01*
X16490714Y-12931667D01*
X16500238Y-12950714D01*
X16500238Y-12969762D01*
X16405000Y-12988809D01*
X16671667Y-13055476D02*
X16671667Y-12855476D01*
X16671667Y-13045952D02*
X16652619Y-13055476D01*
X16614524Y-13055476D01*
X16595476Y-13045952D01*
X16585952Y-13036428D01*
X16576428Y-13017381D01*
X16576428Y-12960238D01*
X16585952Y-12941190D01*
X16595476Y-12931667D01*
X16614524Y-12922143D01*
X16652619Y-12922143D01*
X16671667Y-12931667D01*
X16747857Y-13131667D02*
X16757381Y-13122143D01*
X16776428Y-13093571D01*
X16785952Y-13074524D01*
X16795476Y-13045952D01*
X16805000Y-12998333D01*
X16805000Y-12960238D01*
X16795476Y-12912619D01*
X16785952Y-12884048D01*
X16776428Y-12865000D01*
X16757381Y-12836428D01*
X16747857Y-12826905D01*
M02*
