M48
; DRILL file {KiCad (6.0.7)} date Fri Oct 27 20:15:14 2023
; FORMAT={-:-/ absolute / metric / decimal}
; #@! TF.CreationDate,2023-10-27T20:15:14+01:00
; #@! TF.GenerationSoftware,Kicad,Pcbnew,(6.0.7)
; #@! TF.FileFunction,Plated,1,2,PTH
FMAT,2
METRIC
; #@! TA.AperFunction,Plated,PTH,ComponentDrill
T1C0.750
; #@! TA.AperFunction,Plated,PTH,ComponentDrill
T2C0.900
; #@! TA.AperFunction,Plated,PTH,ComponentDrill
T3C0.920
; #@! TA.AperFunction,Plated,PTH,ComponentDrill
T4C1.000
; #@! TA.AperFunction,Plated,PTH,ComponentDrill
T5C1.100
; #@! TA.AperFunction,Plated,PTH,ComponentDrill
T6C1.200
; #@! TA.AperFunction,Plated,PTH,ComponentDrill
T7C2.000
; #@! TA.AperFunction,Plated,PTH,ComponentDrill
T8C2.330
%
G90
G05
T1
X115.46Y-99.0
X116.73Y-97.73
X118.0Y-99.0
X119.0Y-72.5
X120.27Y-71.23
X121.54Y-72.5
X123.46Y-99.0
X124.73Y-97.73
X126.0Y-99.0
T2
X103.0Y-83.725
X103.0Y-86.265
X190.0Y-96.46
X190.0Y-99.0
T3
X183.62Y-83.75
X183.62Y-86.25
X185.62Y-83.75
X185.62Y-86.25
T4
X110.0Y-80.5
X110.0Y-89.5
X116.0Y-79.0
X116.0Y-85.5
X116.0Y-92.0
X116.0Y-105.0
X125.0Y-79.0
X125.0Y-85.5
X125.0Y-92.0
X125.0Y-105.0
X184.0Y-97.0
X184.0Y-106.0
T5
X115.0Y-63.34
X115.0Y-73.5
X126.0Y-63.34
X126.0Y-73.5
T6
X139.5Y-111.557
X152.3Y-111.557
T7
X103.0Y-79.5
X103.0Y-90.5
T8
X188.33Y-78.98
X188.33Y-91.02
T0
M30
