%TF.GenerationSoftware,KiCad,Pcbnew,(6.0.7)*%
%TF.CreationDate,2023-10-27T20:14:28+01:00*%
%TF.ProjectId,slide_tester,736c6964-655f-4746-9573-7465722e6b69,rev?*%
%TF.SameCoordinates,Original*%
%TF.FileFunction,Copper,L1,Top*%
%TF.FilePolarity,Positive*%
%FSLAX46Y46*%
G04 Gerber Fmt 4.6, Leading zero omitted, Abs format (unit mm)*
G04 Created by KiCad (PCBNEW (6.0.7)) date 2023-10-27 20:14:28*
%MOMM*%
%LPD*%
G01*
G04 APERTURE LIST*
%TA.AperFunction,ComponentPad*%
%ADD10R,1.700000X1.700000*%
%TD*%
%TA.AperFunction,ComponentPad*%
%ADD11C,1.700000*%
%TD*%
%TA.AperFunction,ComponentPad*%
%ADD12C,3.500000*%
%TD*%
%TA.AperFunction,SMDPad,CuDef*%
%ADD13R,29.000000X4.000000*%
%TD*%
%TA.AperFunction,ComponentPad*%
%ADD14C,2.000000*%
%TD*%
%TA.AperFunction,ComponentPad*%
%ADD15R,1.300000X1.300000*%
%TD*%
%TA.AperFunction,ComponentPad*%
%ADD16C,1.300000*%
%TD*%
%TA.AperFunction,ComponentPad*%
%ADD17R,1.800000X1.800000*%
%TD*%
%TA.AperFunction,ComponentPad*%
%ADD18C,1.800000*%
%TD*%
%TA.AperFunction,ComponentPad*%
%ADD19R,3.000000X3.000000*%
%TD*%
%TA.AperFunction,ComponentPad*%
%ADD20C,3.000000*%
%TD*%
%TA.AperFunction,ComponentPad*%
%ADD21R,2.200000X2.200000*%
%TD*%
%TA.AperFunction,ComponentPad*%
%ADD22O,2.200000X2.200000*%
%TD*%
%TA.AperFunction,Conductor*%
%ADD23C,0.500000*%
%TD*%
G04 APERTURE END LIST*
D10*
%TO.P,J1,1,VBUS*%
%TO.N,Net-(D2-Pad2)*%
X183422500Y-83750000D03*
D11*
%TO.P,J1,2,D-*%
%TO.N,Net-(J1-Pad2)*%
X183422500Y-86250000D03*
%TO.P,J1,3,D+*%
X185422500Y-86250000D03*
%TO.P,J1,4,GND*%
%TO.N,GND*%
X185422500Y-83750000D03*
D12*
%TO.P,J1,5,Shield*%
X188132500Y-78980000D03*
X188132500Y-91020000D03*
%TD*%
D13*
%TO.P,J3,1,Pin_1*%
%TO.N,Net-(J3-Pad1)*%
X84500000Y-90500000D03*
D14*
X92500000Y-90500000D03*
%TD*%
D13*
%TO.P,J2,1,Pin_1*%
%TO.N,Net-(D3-Pad1)*%
X84500000Y-79500000D03*
D14*
X92500000Y-79500000D03*
%TD*%
%TO.P,R6,1*%
%TO.N,Net-(D2-Pad1)*%
X116000000Y-79000000D03*
%TO.P,R6,2*%
%TO.N,Net-(Q3-Pad2)*%
X125000000Y-79000000D03*
%TD*%
%TO.P,R3,1*%
%TO.N,Net-(D2-Pad1)*%
X125000000Y-85500000D03*
%TO.P,R3,2*%
%TO.N,GND*%
X116000000Y-85500000D03*
%TD*%
D15*
%TO.P,Q2,1,C*%
%TO.N,Net-(BT1-Pad1)*%
X115460000Y-99000000D03*
D16*
%TO.P,Q2,2,B*%
%TO.N,Net-(Q1-Pad1)*%
X116730000Y-97730000D03*
%TO.P,Q2,3,E*%
%TO.N,Net-(Q1-Pad2)*%
X118000000Y-99000000D03*
%TD*%
D15*
%TO.P,Q3,1,C*%
%TO.N,Net-(D3-Pad1)*%
X119000000Y-72500000D03*
D16*
%TO.P,Q3,2,B*%
%TO.N,Net-(Q3-Pad2)*%
X120270000Y-71230000D03*
%TO.P,Q3,3,E*%
%TO.N,Net-(BT1-Pad1)*%
X121540000Y-72500000D03*
%TD*%
D14*
%TO.P,R2,1*%
%TO.N,Net-(D2-Pad1)*%
X125000000Y-92000000D03*
%TO.P,R2,2*%
%TO.N,Net-(Q1-Pad2)*%
X116000000Y-92000000D03*
%TD*%
%TO.P,R4,1*%
%TO.N,Net-(J3-Pad1)*%
X110000000Y-89500000D03*
%TO.P,R4,2*%
%TO.N,Net-(D4-Pad2)*%
X110000000Y-80500000D03*
%TD*%
%TO.P,R1,1*%
%TO.N,Net-(D2-Pad2)*%
X183500000Y-97500000D03*
%TO.P,R1,2*%
%TO.N,Net-(D1-Pad2)*%
X183500000Y-106500000D03*
%TD*%
D17*
%TO.P,D1,1,K*%
%TO.N,GND*%
X189000000Y-96633513D03*
D18*
%TO.P,D1,2,A*%
%TO.N,Net-(D1-Pad2)*%
X189000000Y-99173513D03*
%TD*%
D19*
%TO.P,BT1,1,+*%
%TO.N,Net-(BT1-Pad1)*%
X139500000Y-111557500D03*
D20*
%TO.P,BT1,2,-*%
%TO.N,GND*%
X152300000Y-111557500D03*
%TD*%
D14*
%TO.P,R5,1*%
%TO.N,Net-(Q1-Pad1)*%
X125000000Y-105000000D03*
%TO.P,R5,2*%
%TO.N,GND*%
X116000000Y-105000000D03*
%TD*%
D21*
%TO.P,D3,1,K*%
%TO.N,Net-(D3-Pad1)*%
X115000000Y-73500000D03*
D22*
%TO.P,D3,2,A*%
%TO.N,Net-(D2-Pad1)*%
X115000000Y-63340000D03*
%TD*%
D21*
%TO.P,D2,1,K*%
%TO.N,Net-(D2-Pad1)*%
X126000000Y-73500000D03*
D22*
%TO.P,D2,2,A*%
%TO.N,Net-(D2-Pad2)*%
X126000000Y-63340000D03*
%TD*%
D17*
%TO.P,D4,1,K*%
%TO.N,GND*%
X103000000Y-83725000D03*
D18*
%TO.P,D4,2,A*%
%TO.N,Net-(D4-Pad2)*%
X103000000Y-86265000D03*
%TD*%
D15*
%TO.P,Q1,1,C*%
%TO.N,Net-(Q1-Pad1)*%
X123460000Y-99000000D03*
D16*
%TO.P,Q1,2,B*%
%TO.N,Net-(Q1-Pad2)*%
X124730000Y-97730000D03*
%TO.P,Q1,3,E*%
%TO.N,Net-(D2-Pad1)*%
X126000000Y-99000000D03*
%TD*%
D23*
%TO.N,Net-(J1-Pad2)*%
X183422500Y-86250000D02*
X185422500Y-86250000D01*
%TO.N,Net-(D2-Pad2)*%
X188000000Y-86740000D02*
X183500000Y-91240000D01*
X188000000Y-82750000D02*
X188000000Y-86740000D01*
X183500000Y-91240000D02*
X183500000Y-97500000D01*
X186750000Y-81500000D02*
X188000000Y-82750000D01*
X184500000Y-81500000D02*
X186750000Y-81500000D01*
X183422500Y-82577500D02*
X184500000Y-81500000D01*
X183422500Y-83750000D02*
X183422500Y-82577500D01*
X178870000Y-83750000D02*
X183422500Y-83750000D01*
X126160000Y-63500000D02*
X158620000Y-63500000D01*
X126000000Y-63340000D02*
X126160000Y-63500000D01*
X158620000Y-63500000D02*
X178870000Y-83750000D01*
%TO.N,Net-(D1-Pad2)*%
X189000000Y-101000000D02*
X189000000Y-99173513D01*
X183500000Y-106500000D02*
X189000000Y-101000000D01*
%TO.N,Net-(D2-Pad1)*%
X126000000Y-73500000D02*
X127000000Y-74500000D01*
X115000000Y-63340000D02*
X118840000Y-63340000D01*
X116000000Y-79000000D02*
X118500000Y-79000000D01*
X127000000Y-74500000D02*
X127000000Y-83500000D01*
X118500000Y-79000000D02*
X125000000Y-85500000D01*
X127000000Y-83500000D02*
X125000000Y-85500000D01*
X126000000Y-93000000D02*
X126000000Y-99000000D01*
X125000000Y-92000000D02*
X126000000Y-93000000D01*
X118840000Y-63340000D02*
X126000000Y-70500000D01*
X125000000Y-85500000D02*
X125000000Y-92000000D01*
X126000000Y-70500000D02*
X126000000Y-73500000D01*
%TO.N,Net-(D4-Pad2)*%
X110000000Y-84500000D02*
X110000000Y-80500000D01*
X103000000Y-86265000D02*
X108235000Y-86265000D01*
X108235000Y-86265000D02*
X110000000Y-84500000D01*
%TO.N,Net-(D3-Pad1)*%
X119000000Y-72500000D02*
X116000000Y-72500000D01*
X116000000Y-72500000D02*
X115000000Y-73500000D01*
X107080000Y-79500000D02*
X92500000Y-79500000D01*
X113080000Y-73500000D02*
X107080000Y-79500000D01*
X115000000Y-73500000D02*
X113080000Y-73500000D01*
%TO.N,Net-(J3-Pad1)*%
X109000000Y-90500000D02*
X92500000Y-90500000D01*
X110000000Y-89500000D02*
X109000000Y-90500000D01*
%TO.N,Net-(Q1-Pad1)*%
X116730000Y-97730000D02*
X116730000Y-99770000D01*
X121460000Y-101000000D02*
X123460000Y-99000000D01*
X123460000Y-99000000D02*
X125000000Y-100540000D01*
X116730000Y-99770000D02*
X117960000Y-101000000D01*
X117960000Y-101000000D02*
X121460000Y-101000000D01*
X125000000Y-100540000D02*
X125000000Y-105000000D01*
%TO.N,Net-(Q1-Pad2)*%
X118000000Y-99000000D02*
X119270000Y-97730000D01*
X119270000Y-97730000D02*
X124730000Y-97730000D01*
X116000000Y-92000000D02*
X118000000Y-94000000D01*
X118000000Y-95540000D02*
X118000000Y-99000000D01*
X118000000Y-94000000D02*
X118000000Y-95540000D01*
%TO.N,Net-(BT1-Pad1)*%
X121540000Y-72500000D02*
X121540000Y-73460000D01*
X115460000Y-100460000D02*
X115460000Y-99000000D01*
X114000000Y-97540000D02*
X115460000Y-99000000D01*
X126557500Y-111557500D02*
X139500000Y-111557500D01*
X115500000Y-100500000D02*
X126557500Y-111557500D01*
X116000000Y-75500000D02*
X114000000Y-77500000D01*
X119500000Y-75500000D02*
X116000000Y-75500000D01*
X114000000Y-77500000D02*
X114000000Y-97540000D01*
X121540000Y-73460000D02*
X119500000Y-75500000D01*
%TO.N,Net-(Q3-Pad2)*%
X123500000Y-77500000D02*
X123500000Y-72000000D01*
X125000000Y-79000000D02*
X123500000Y-77500000D01*
X123500000Y-72000000D02*
X122730000Y-71230000D01*
X122730000Y-71230000D02*
X120270000Y-71230000D01*
%TD*%
M02*
