%TF.GenerationSoftware,KiCad,Pcbnew,(6.0.7)*%
%TF.CreationDate,2023-10-27T20:14:29+01:00*%
%TF.ProjectId,slide_tester,736c6964-655f-4746-9573-7465722e6b69,rev?*%
%TF.SameCoordinates,Original*%
%TF.FileFunction,Soldermask,Top*%
%TF.FilePolarity,Negative*%
%FSLAX46Y46*%
G04 Gerber Fmt 4.6, Leading zero omitted, Abs format (unit mm)*
G04 Created by KiCad (PCBNEW (6.0.7)) date 2023-10-27 20:14:29*
%MOMM*%
%LPD*%
G01*
G04 APERTURE LIST*
%ADD10R,1.700000X1.700000*%
%ADD11C,1.700000*%
%ADD12C,3.500000*%
%ADD13R,29.000000X4.000000*%
%ADD14C,2.000000*%
%ADD15R,1.300000X1.300000*%
%ADD16C,1.300000*%
%ADD17C,3.200000*%
%ADD18R,1.800000X1.800000*%
%ADD19C,1.800000*%
%ADD20R,3.000000X3.000000*%
%ADD21C,3.000000*%
%ADD22R,2.200000X2.200000*%
%ADD23O,2.200000X2.200000*%
G04 APERTURE END LIST*
D10*
%TO.C,J1*%
X183422500Y-83750000D03*
D11*
X183422500Y-86250000D03*
X185422500Y-86250000D03*
X185422500Y-83750000D03*
D12*
X188132500Y-78980000D03*
X188132500Y-91020000D03*
%TD*%
D13*
%TO.C,J3*%
X84500000Y-90500000D03*
D14*
X92500000Y-90500000D03*
%TD*%
D13*
%TO.C,J2*%
X84500000Y-79500000D03*
D14*
X92500000Y-79500000D03*
%TD*%
%TO.C,R6*%
X116000000Y-79000000D03*
X125000000Y-79000000D03*
%TD*%
%TO.C,R3*%
X125000000Y-85500000D03*
X116000000Y-85500000D03*
%TD*%
D15*
%TO.C,Q2*%
X115460000Y-99000000D03*
D16*
X116730000Y-97730000D03*
X118000000Y-99000000D03*
%TD*%
D15*
%TO.C,Q3*%
X119000000Y-72500000D03*
D16*
X120270000Y-71230000D03*
X121540000Y-72500000D03*
%TD*%
D17*
%TO.C,REF\u002A\u002A*%
X196000000Y-116000000D03*
%TD*%
%TO.C,REF\u002A\u002A*%
X104000000Y-54000000D03*
%TD*%
%TO.C,REF\u002A\u002A*%
X104000000Y-116000000D03*
%TD*%
D14*
%TO.C,R2*%
X125000000Y-92000000D03*
X116000000Y-92000000D03*
%TD*%
%TO.C,R4*%
X110000000Y-89500000D03*
X110000000Y-80500000D03*
%TD*%
%TO.C,R1*%
X183500000Y-97500000D03*
X183500000Y-106500000D03*
%TD*%
D17*
%TO.C,REF\u002A\u002A*%
X196000000Y-54000000D03*
%TD*%
D18*
%TO.C,D1*%
X189000000Y-96633513D03*
D19*
X189000000Y-99173513D03*
%TD*%
D12*
%TO.C,BT1*%
X169500000Y-84857500D03*
X139500000Y-84857500D03*
D20*
X139500000Y-111557500D03*
D21*
X152300000Y-111557500D03*
%TD*%
D14*
%TO.C,R5*%
X125000000Y-105000000D03*
X116000000Y-105000000D03*
%TD*%
D22*
%TO.C,D3*%
X115000000Y-73500000D03*
D23*
X115000000Y-63340000D03*
%TD*%
D22*
%TO.C,D2*%
X126000000Y-73500000D03*
D23*
X126000000Y-63340000D03*
%TD*%
D18*
%TO.C,D4*%
X103000000Y-83725000D03*
D19*
X103000000Y-86265000D03*
%TD*%
D15*
%TO.C,Q1*%
X123460000Y-99000000D03*
D16*
X124730000Y-97730000D03*
X126000000Y-99000000D03*
%TD*%
M02*
