%TF.GenerationSoftware,KiCad,Pcbnew,(6.0.7)*%
%TF.CreationDate,2023-10-27T20:14:33+01:00*%
%TF.ProjectId,slide_tester,736c6964-655f-4746-9573-7465722e6b69,rev?*%
%TF.SameCoordinates,Original*%
%TF.FileFunction,Drillmap*%
%TF.FilePolarity,Positive*%
%FSLAX45Y45*%
G04 Gerber Fmt 4.5, Leading zero omitted, Abs format (unit mm)*
G04 Created by KiCad (PCBNEW (6.0.7)) date 2023-10-27 20:14:33*
%MOMM*%
%LPD*%
G01*
G04 APERTURE LIST*
%ADD10C,0.100000*%
%ADD11C,0.200000*%
%ADD12C,0.320000*%
%ADD13C,0.350000*%
G04 APERTURE END LIST*
D10*
X20000000Y-12000000D02*
X10000000Y-12000000D01*
X10000000Y-9250000D01*
X7000000Y-9250000D01*
X7000000Y-8850000D01*
X10000000Y-8850000D01*
X10000000Y-8150000D01*
X7000000Y-8150000D01*
X7000000Y-7750000D01*
X10000000Y-7750000D01*
X10000000Y-5000000D01*
X20000000Y-5000000D01*
X20000000Y-12000000D01*
D11*
D12*
X10240000Y-5240000D02*
X10560000Y-5560000D01*
X10560000Y-5240000D02*
X10240000Y-5560000D01*
X10240000Y-11440000D02*
X10560000Y-11760000D01*
X10560000Y-11440000D02*
X10240000Y-11760000D01*
X19440000Y-5240000D02*
X19760000Y-5560000D01*
X19760000Y-5240000D02*
X19440000Y-5560000D01*
X19440000Y-11440000D02*
X19760000Y-11760000D01*
X19760000Y-11440000D02*
X19440000Y-11760000D01*
D13*
X14125000Y-8485750D02*
G75*
G03*
X14125000Y-8485750I-175000J0D01*
G01*
X17125000Y-8485750D02*
G75*
G03*
X17125000Y-8485750I-175000J0D01*
G01*
D11*
X7252619Y-12315476D02*
X7252619Y-12115476D01*
X7300238Y-12115476D01*
X7328809Y-12125000D01*
X7347857Y-12144048D01*
X7357381Y-12163095D01*
X7366905Y-12201190D01*
X7366905Y-12229762D01*
X7357381Y-12267857D01*
X7347857Y-12286905D01*
X7328809Y-12305952D01*
X7300238Y-12315476D01*
X7252619Y-12315476D01*
X7452619Y-12315476D02*
X7452619Y-12182143D01*
X7452619Y-12220238D02*
X7462143Y-12201190D01*
X7471667Y-12191667D01*
X7490714Y-12182143D01*
X7509762Y-12182143D01*
X7576428Y-12315476D02*
X7576428Y-12182143D01*
X7576428Y-12115476D02*
X7566905Y-12125000D01*
X7576428Y-12134524D01*
X7585952Y-12125000D01*
X7576428Y-12115476D01*
X7576428Y-12134524D01*
X7700238Y-12315476D02*
X7681190Y-12305952D01*
X7671667Y-12286905D01*
X7671667Y-12115476D01*
X7805000Y-12315476D02*
X7785952Y-12305952D01*
X7776428Y-12286905D01*
X7776428Y-12115476D01*
X8033571Y-12315476D02*
X8033571Y-12115476D01*
X8100238Y-12258333D01*
X8166905Y-12115476D01*
X8166905Y-12315476D01*
X8347857Y-12315476D02*
X8347857Y-12210714D01*
X8338333Y-12191667D01*
X8319286Y-12182143D01*
X8281190Y-12182143D01*
X8262143Y-12191667D01*
X8347857Y-12305952D02*
X8328809Y-12315476D01*
X8281190Y-12315476D01*
X8262143Y-12305952D01*
X8252619Y-12286905D01*
X8252619Y-12267857D01*
X8262143Y-12248809D01*
X8281190Y-12239286D01*
X8328809Y-12239286D01*
X8347857Y-12229762D01*
X8443095Y-12182143D02*
X8443095Y-12382143D01*
X8443095Y-12191667D02*
X8462143Y-12182143D01*
X8500238Y-12182143D01*
X8519286Y-12191667D01*
X8528810Y-12201190D01*
X8538333Y-12220238D01*
X8538333Y-12277381D01*
X8528810Y-12296428D01*
X8519286Y-12305952D01*
X8500238Y-12315476D01*
X8462143Y-12315476D01*
X8443095Y-12305952D01*
X8624048Y-12296428D02*
X8633571Y-12305952D01*
X8624048Y-12315476D01*
X8614524Y-12305952D01*
X8624048Y-12296428D01*
X8624048Y-12315476D01*
X8624048Y-12191667D02*
X8633571Y-12201190D01*
X8624048Y-12210714D01*
X8614524Y-12201190D01*
X8624048Y-12191667D01*
X8624048Y-12210714D01*
X6795000Y-12545000D02*
X6995000Y-12745000D01*
X6995000Y-12545000D02*
X6795000Y-12745000D01*
X7233571Y-12535476D02*
X7357381Y-12535476D01*
X7290714Y-12611667D01*
X7319286Y-12611667D01*
X7338333Y-12621190D01*
X7347857Y-12630714D01*
X7357381Y-12649762D01*
X7357381Y-12697381D01*
X7347857Y-12716428D01*
X7338333Y-12725952D01*
X7319286Y-12735476D01*
X7262143Y-12735476D01*
X7243095Y-12725952D01*
X7233571Y-12716428D01*
X7443095Y-12716428D02*
X7452619Y-12725952D01*
X7443095Y-12735476D01*
X7433571Y-12725952D01*
X7443095Y-12716428D01*
X7443095Y-12735476D01*
X7528809Y-12554524D02*
X7538333Y-12545000D01*
X7557381Y-12535476D01*
X7605000Y-12535476D01*
X7624048Y-12545000D01*
X7633571Y-12554524D01*
X7643095Y-12573571D01*
X7643095Y-12592619D01*
X7633571Y-12621190D01*
X7519286Y-12735476D01*
X7643095Y-12735476D01*
X7766905Y-12535476D02*
X7785952Y-12535476D01*
X7805000Y-12545000D01*
X7814524Y-12554524D01*
X7824048Y-12573571D01*
X7833571Y-12611667D01*
X7833571Y-12659286D01*
X7824048Y-12697381D01*
X7814524Y-12716428D01*
X7805000Y-12725952D01*
X7785952Y-12735476D01*
X7766905Y-12735476D01*
X7747857Y-12725952D01*
X7738333Y-12716428D01*
X7728809Y-12697381D01*
X7719286Y-12659286D01*
X7719286Y-12611667D01*
X7728809Y-12573571D01*
X7738333Y-12554524D01*
X7747857Y-12545000D01*
X7766905Y-12535476D01*
X7957381Y-12535476D02*
X7976428Y-12535476D01*
X7995476Y-12545000D01*
X8005000Y-12554524D01*
X8014524Y-12573571D01*
X8024048Y-12611667D01*
X8024048Y-12659286D01*
X8014524Y-12697381D01*
X8005000Y-12716428D01*
X7995476Y-12725952D01*
X7976428Y-12735476D01*
X7957381Y-12735476D01*
X7938333Y-12725952D01*
X7928809Y-12716428D01*
X7919286Y-12697381D01*
X7909762Y-12659286D01*
X7909762Y-12611667D01*
X7919286Y-12573571D01*
X7928809Y-12554524D01*
X7938333Y-12545000D01*
X7957381Y-12535476D01*
X8109762Y-12735476D02*
X8109762Y-12602143D01*
X8109762Y-12621190D02*
X8119286Y-12611667D01*
X8138333Y-12602143D01*
X8166905Y-12602143D01*
X8185952Y-12611667D01*
X8195476Y-12630714D01*
X8195476Y-12735476D01*
X8195476Y-12630714D02*
X8205000Y-12611667D01*
X8224048Y-12602143D01*
X8252619Y-12602143D01*
X8271667Y-12611667D01*
X8281190Y-12630714D01*
X8281190Y-12735476D01*
X8376428Y-12735476D02*
X8376428Y-12602143D01*
X8376428Y-12621190D02*
X8385952Y-12611667D01*
X8405000Y-12602143D01*
X8433571Y-12602143D01*
X8452619Y-12611667D01*
X8462143Y-12630714D01*
X8462143Y-12735476D01*
X8462143Y-12630714D02*
X8471667Y-12611667D01*
X8490714Y-12602143D01*
X8519286Y-12602143D01*
X8538333Y-12611667D01*
X8547857Y-12630714D01*
X8547857Y-12735476D01*
X8938333Y-12525952D02*
X8766905Y-12783095D01*
X9195476Y-12535476D02*
X9214524Y-12535476D01*
X9233571Y-12545000D01*
X9243095Y-12554524D01*
X9252619Y-12573571D01*
X9262143Y-12611667D01*
X9262143Y-12659286D01*
X9252619Y-12697381D01*
X9243095Y-12716428D01*
X9233571Y-12725952D01*
X9214524Y-12735476D01*
X9195476Y-12735476D01*
X9176429Y-12725952D01*
X9166905Y-12716428D01*
X9157381Y-12697381D01*
X9147857Y-12659286D01*
X9147857Y-12611667D01*
X9157381Y-12573571D01*
X9166905Y-12554524D01*
X9176429Y-12545000D01*
X9195476Y-12535476D01*
X9347857Y-12716428D02*
X9357381Y-12725952D01*
X9347857Y-12735476D01*
X9338333Y-12725952D01*
X9347857Y-12716428D01*
X9347857Y-12735476D01*
X9547857Y-12735476D02*
X9433571Y-12735476D01*
X9490714Y-12735476D02*
X9490714Y-12535476D01*
X9471667Y-12564048D01*
X9452619Y-12583095D01*
X9433571Y-12592619D01*
X9624048Y-12554524D02*
X9633571Y-12545000D01*
X9652619Y-12535476D01*
X9700238Y-12535476D01*
X9719286Y-12545000D01*
X9728810Y-12554524D01*
X9738333Y-12573571D01*
X9738333Y-12592619D01*
X9728810Y-12621190D01*
X9614524Y-12735476D01*
X9738333Y-12735476D01*
X9909762Y-12535476D02*
X9871667Y-12535476D01*
X9852619Y-12545000D01*
X9843095Y-12554524D01*
X9824048Y-12583095D01*
X9814524Y-12621190D01*
X9814524Y-12697381D01*
X9824048Y-12716428D01*
X9833571Y-12725952D01*
X9852619Y-12735476D01*
X9890714Y-12735476D01*
X9909762Y-12725952D01*
X9919286Y-12716428D01*
X9928810Y-12697381D01*
X9928810Y-12649762D01*
X9919286Y-12630714D01*
X9909762Y-12621190D01*
X9890714Y-12611667D01*
X9852619Y-12611667D01*
X9833571Y-12621190D01*
X9824048Y-12630714D01*
X9814524Y-12649762D01*
X10052619Y-12535476D02*
X10071667Y-12535476D01*
X10090714Y-12545000D01*
X10100238Y-12554524D01*
X10109762Y-12573571D01*
X10119286Y-12611667D01*
X10119286Y-12659286D01*
X10109762Y-12697381D01*
X10100238Y-12716428D01*
X10090714Y-12725952D01*
X10071667Y-12735476D01*
X10052619Y-12735476D01*
X10033571Y-12725952D01*
X10024048Y-12716428D01*
X10014524Y-12697381D01*
X10005000Y-12659286D01*
X10005000Y-12611667D01*
X10014524Y-12573571D01*
X10024048Y-12554524D01*
X10033571Y-12545000D01*
X10052619Y-12535476D01*
X10195476Y-12535476D02*
X10195476Y-12573571D01*
X10271667Y-12535476D02*
X10271667Y-12573571D01*
X10566905Y-12811667D02*
X10557381Y-12802143D01*
X10538333Y-12773571D01*
X10528810Y-12754524D01*
X10519286Y-12725952D01*
X10509762Y-12678333D01*
X10509762Y-12640238D01*
X10519286Y-12592619D01*
X10528810Y-12564048D01*
X10538333Y-12545000D01*
X10557381Y-12516428D01*
X10566905Y-12506905D01*
X10728810Y-12602143D02*
X10728810Y-12735476D01*
X10681190Y-12525952D02*
X10633571Y-12668809D01*
X10757381Y-12668809D01*
X10985952Y-12735476D02*
X10985952Y-12535476D01*
X11071667Y-12735476D02*
X11071667Y-12630714D01*
X11062143Y-12611667D01*
X11043095Y-12602143D01*
X11014524Y-12602143D01*
X10995476Y-12611667D01*
X10985952Y-12621190D01*
X11195476Y-12735476D02*
X11176429Y-12725952D01*
X11166905Y-12716428D01*
X11157381Y-12697381D01*
X11157381Y-12640238D01*
X11166905Y-12621190D01*
X11176429Y-12611667D01*
X11195476Y-12602143D01*
X11224048Y-12602143D01*
X11243095Y-12611667D01*
X11252619Y-12621190D01*
X11262143Y-12640238D01*
X11262143Y-12697381D01*
X11252619Y-12716428D01*
X11243095Y-12725952D01*
X11224048Y-12735476D01*
X11195476Y-12735476D01*
X11376428Y-12735476D02*
X11357381Y-12725952D01*
X11347857Y-12706905D01*
X11347857Y-12535476D01*
X11528809Y-12725952D02*
X11509762Y-12735476D01*
X11471667Y-12735476D01*
X11452619Y-12725952D01*
X11443095Y-12706905D01*
X11443095Y-12630714D01*
X11452619Y-12611667D01*
X11471667Y-12602143D01*
X11509762Y-12602143D01*
X11528809Y-12611667D01*
X11538333Y-12630714D01*
X11538333Y-12649762D01*
X11443095Y-12668809D01*
X11614524Y-12725952D02*
X11633571Y-12735476D01*
X11671667Y-12735476D01*
X11690714Y-12725952D01*
X11700238Y-12706905D01*
X11700238Y-12697381D01*
X11690714Y-12678333D01*
X11671667Y-12668809D01*
X11643095Y-12668809D01*
X11624048Y-12659286D01*
X11614524Y-12640238D01*
X11614524Y-12630714D01*
X11624048Y-12611667D01*
X11643095Y-12602143D01*
X11671667Y-12602143D01*
X11690714Y-12611667D01*
X11766905Y-12811667D02*
X11776428Y-12802143D01*
X11795476Y-12773571D01*
X11805000Y-12754524D01*
X11814524Y-12725952D01*
X11824048Y-12678333D01*
X11824048Y-12640238D01*
X11814524Y-12592619D01*
X11805000Y-12564048D01*
X11795476Y-12545000D01*
X11776428Y-12516428D01*
X11766905Y-12506905D01*
X12128809Y-12811667D02*
X12119286Y-12802143D01*
X12100238Y-12773571D01*
X12090714Y-12754524D01*
X12081190Y-12725952D01*
X12071667Y-12678333D01*
X12071667Y-12640238D01*
X12081190Y-12592619D01*
X12090714Y-12564048D01*
X12100238Y-12545000D01*
X12119286Y-12516428D01*
X12128809Y-12506905D01*
X12205000Y-12602143D02*
X12205000Y-12735476D01*
X12205000Y-12621190D02*
X12214524Y-12611667D01*
X12233571Y-12602143D01*
X12262143Y-12602143D01*
X12281190Y-12611667D01*
X12290714Y-12630714D01*
X12290714Y-12735476D01*
X12414524Y-12735476D02*
X12395476Y-12725952D01*
X12385952Y-12716428D01*
X12376428Y-12697381D01*
X12376428Y-12640238D01*
X12385952Y-12621190D01*
X12395476Y-12611667D01*
X12414524Y-12602143D01*
X12443095Y-12602143D01*
X12462143Y-12611667D01*
X12471667Y-12621190D01*
X12481190Y-12640238D01*
X12481190Y-12697381D01*
X12471667Y-12716428D01*
X12462143Y-12725952D01*
X12443095Y-12735476D01*
X12414524Y-12735476D01*
X12538333Y-12602143D02*
X12614524Y-12602143D01*
X12566905Y-12535476D02*
X12566905Y-12706905D01*
X12576428Y-12725952D01*
X12595476Y-12735476D01*
X12614524Y-12735476D01*
X12833571Y-12602143D02*
X12833571Y-12802143D01*
X12833571Y-12611667D02*
X12852619Y-12602143D01*
X12890714Y-12602143D01*
X12909762Y-12611667D01*
X12919286Y-12621190D01*
X12928809Y-12640238D01*
X12928809Y-12697381D01*
X12919286Y-12716428D01*
X12909762Y-12725952D01*
X12890714Y-12735476D01*
X12852619Y-12735476D01*
X12833571Y-12725952D01*
X13043095Y-12735476D02*
X13024048Y-12725952D01*
X13014524Y-12706905D01*
X13014524Y-12535476D01*
X13205000Y-12735476D02*
X13205000Y-12630714D01*
X13195476Y-12611667D01*
X13176428Y-12602143D01*
X13138333Y-12602143D01*
X13119286Y-12611667D01*
X13205000Y-12725952D02*
X13185952Y-12735476D01*
X13138333Y-12735476D01*
X13119286Y-12725952D01*
X13109762Y-12706905D01*
X13109762Y-12687857D01*
X13119286Y-12668809D01*
X13138333Y-12659286D01*
X13185952Y-12659286D01*
X13205000Y-12649762D01*
X13271667Y-12602143D02*
X13347857Y-12602143D01*
X13300238Y-12535476D02*
X13300238Y-12706905D01*
X13309762Y-12725952D01*
X13328809Y-12735476D01*
X13347857Y-12735476D01*
X13490714Y-12725952D02*
X13471667Y-12735476D01*
X13433571Y-12735476D01*
X13414524Y-12725952D01*
X13405000Y-12706905D01*
X13405000Y-12630714D01*
X13414524Y-12611667D01*
X13433571Y-12602143D01*
X13471667Y-12602143D01*
X13490714Y-12611667D01*
X13500238Y-12630714D01*
X13500238Y-12649762D01*
X13405000Y-12668809D01*
X13671667Y-12735476D02*
X13671667Y-12535476D01*
X13671667Y-12725952D02*
X13652619Y-12735476D01*
X13614524Y-12735476D01*
X13595476Y-12725952D01*
X13585952Y-12716428D01*
X13576428Y-12697381D01*
X13576428Y-12640238D01*
X13585952Y-12621190D01*
X13595476Y-12611667D01*
X13614524Y-12602143D01*
X13652619Y-12602143D01*
X13671667Y-12611667D01*
X13747857Y-12811667D02*
X13757381Y-12802143D01*
X13776428Y-12773571D01*
X13785952Y-12754524D01*
X13795476Y-12725952D01*
X13805000Y-12678333D01*
X13805000Y-12640238D01*
X13795476Y-12592619D01*
X13785952Y-12564048D01*
X13776428Y-12545000D01*
X13757381Y-12516428D01*
X13747857Y-12506905D01*
X6995000Y-12965000D02*
G75*
G03*
X6995000Y-12965000I-100000J0D01*
G01*
X7233571Y-12855476D02*
X7357381Y-12855476D01*
X7290714Y-12931667D01*
X7319286Y-12931667D01*
X7338333Y-12941190D01*
X7347857Y-12950714D01*
X7357381Y-12969762D01*
X7357381Y-13017381D01*
X7347857Y-13036428D01*
X7338333Y-13045952D01*
X7319286Y-13055476D01*
X7262143Y-13055476D01*
X7243095Y-13045952D01*
X7233571Y-13036428D01*
X7443095Y-13036428D02*
X7452619Y-13045952D01*
X7443095Y-13055476D01*
X7433571Y-13045952D01*
X7443095Y-13036428D01*
X7443095Y-13055476D01*
X7633571Y-12855476D02*
X7538333Y-12855476D01*
X7528809Y-12950714D01*
X7538333Y-12941190D01*
X7557381Y-12931667D01*
X7605000Y-12931667D01*
X7624048Y-12941190D01*
X7633571Y-12950714D01*
X7643095Y-12969762D01*
X7643095Y-13017381D01*
X7633571Y-13036428D01*
X7624048Y-13045952D01*
X7605000Y-13055476D01*
X7557381Y-13055476D01*
X7538333Y-13045952D01*
X7528809Y-13036428D01*
X7766905Y-12855476D02*
X7785952Y-12855476D01*
X7805000Y-12865000D01*
X7814524Y-12874524D01*
X7824048Y-12893571D01*
X7833571Y-12931667D01*
X7833571Y-12979286D01*
X7824048Y-13017381D01*
X7814524Y-13036428D01*
X7805000Y-13045952D01*
X7785952Y-13055476D01*
X7766905Y-13055476D01*
X7747857Y-13045952D01*
X7738333Y-13036428D01*
X7728809Y-13017381D01*
X7719286Y-12979286D01*
X7719286Y-12931667D01*
X7728809Y-12893571D01*
X7738333Y-12874524D01*
X7747857Y-12865000D01*
X7766905Y-12855476D01*
X7957381Y-12855476D02*
X7976428Y-12855476D01*
X7995476Y-12865000D01*
X8005000Y-12874524D01*
X8014524Y-12893571D01*
X8024048Y-12931667D01*
X8024048Y-12979286D01*
X8014524Y-13017381D01*
X8005000Y-13036428D01*
X7995476Y-13045952D01*
X7976428Y-13055476D01*
X7957381Y-13055476D01*
X7938333Y-13045952D01*
X7928809Y-13036428D01*
X7919286Y-13017381D01*
X7909762Y-12979286D01*
X7909762Y-12931667D01*
X7919286Y-12893571D01*
X7928809Y-12874524D01*
X7938333Y-12865000D01*
X7957381Y-12855476D01*
X8109762Y-13055476D02*
X8109762Y-12922143D01*
X8109762Y-12941190D02*
X8119286Y-12931667D01*
X8138333Y-12922143D01*
X8166905Y-12922143D01*
X8185952Y-12931667D01*
X8195476Y-12950714D01*
X8195476Y-13055476D01*
X8195476Y-12950714D02*
X8205000Y-12931667D01*
X8224048Y-12922143D01*
X8252619Y-12922143D01*
X8271667Y-12931667D01*
X8281190Y-12950714D01*
X8281190Y-13055476D01*
X8376428Y-13055476D02*
X8376428Y-12922143D01*
X8376428Y-12941190D02*
X8385952Y-12931667D01*
X8405000Y-12922143D01*
X8433571Y-12922143D01*
X8452619Y-12931667D01*
X8462143Y-12950714D01*
X8462143Y-13055476D01*
X8462143Y-12950714D02*
X8471667Y-12931667D01*
X8490714Y-12922143D01*
X8519286Y-12922143D01*
X8538333Y-12931667D01*
X8547857Y-12950714D01*
X8547857Y-13055476D01*
X8938333Y-12845952D02*
X8766905Y-13103095D01*
X9195476Y-12855476D02*
X9214524Y-12855476D01*
X9233571Y-12865000D01*
X9243095Y-12874524D01*
X9252619Y-12893571D01*
X9262143Y-12931667D01*
X9262143Y-12979286D01*
X9252619Y-13017381D01*
X9243095Y-13036428D01*
X9233571Y-13045952D01*
X9214524Y-13055476D01*
X9195476Y-13055476D01*
X9176429Y-13045952D01*
X9166905Y-13036428D01*
X9157381Y-13017381D01*
X9147857Y-12979286D01*
X9147857Y-12931667D01*
X9157381Y-12893571D01*
X9166905Y-12874524D01*
X9176429Y-12865000D01*
X9195476Y-12855476D01*
X9347857Y-13036428D02*
X9357381Y-13045952D01*
X9347857Y-13055476D01*
X9338333Y-13045952D01*
X9347857Y-13036428D01*
X9347857Y-13055476D01*
X9547857Y-13055476D02*
X9433571Y-13055476D01*
X9490714Y-13055476D02*
X9490714Y-12855476D01*
X9471667Y-12884048D01*
X9452619Y-12903095D01*
X9433571Y-12912619D01*
X9614524Y-12855476D02*
X9738333Y-12855476D01*
X9671667Y-12931667D01*
X9700238Y-12931667D01*
X9719286Y-12941190D01*
X9728810Y-12950714D01*
X9738333Y-12969762D01*
X9738333Y-13017381D01*
X9728810Y-13036428D01*
X9719286Y-13045952D01*
X9700238Y-13055476D01*
X9643095Y-13055476D01*
X9624048Y-13045952D01*
X9614524Y-13036428D01*
X9805000Y-12855476D02*
X9938333Y-12855476D01*
X9852619Y-13055476D01*
X10043095Y-12941190D02*
X10024048Y-12931667D01*
X10014524Y-12922143D01*
X10005000Y-12903095D01*
X10005000Y-12893571D01*
X10014524Y-12874524D01*
X10024048Y-12865000D01*
X10043095Y-12855476D01*
X10081190Y-12855476D01*
X10100238Y-12865000D01*
X10109762Y-12874524D01*
X10119286Y-12893571D01*
X10119286Y-12903095D01*
X10109762Y-12922143D01*
X10100238Y-12931667D01*
X10081190Y-12941190D01*
X10043095Y-12941190D01*
X10024048Y-12950714D01*
X10014524Y-12960238D01*
X10005000Y-12979286D01*
X10005000Y-13017381D01*
X10014524Y-13036428D01*
X10024048Y-13045952D01*
X10043095Y-13055476D01*
X10081190Y-13055476D01*
X10100238Y-13045952D01*
X10109762Y-13036428D01*
X10119286Y-13017381D01*
X10119286Y-12979286D01*
X10109762Y-12960238D01*
X10100238Y-12950714D01*
X10081190Y-12941190D01*
X10195476Y-12855476D02*
X10195476Y-12893571D01*
X10271667Y-12855476D02*
X10271667Y-12893571D01*
X10566905Y-13131667D02*
X10557381Y-13122143D01*
X10538333Y-13093571D01*
X10528810Y-13074524D01*
X10519286Y-13045952D01*
X10509762Y-12998333D01*
X10509762Y-12960238D01*
X10519286Y-12912619D01*
X10528810Y-12884048D01*
X10538333Y-12865000D01*
X10557381Y-12836428D01*
X10566905Y-12826905D01*
X10633571Y-12874524D02*
X10643095Y-12865000D01*
X10662143Y-12855476D01*
X10709762Y-12855476D01*
X10728810Y-12865000D01*
X10738333Y-12874524D01*
X10747857Y-12893571D01*
X10747857Y-12912619D01*
X10738333Y-12941190D01*
X10624048Y-13055476D01*
X10747857Y-13055476D01*
X10985952Y-13055476D02*
X10985952Y-12855476D01*
X11071667Y-13055476D02*
X11071667Y-12950714D01*
X11062143Y-12931667D01*
X11043095Y-12922143D01*
X11014524Y-12922143D01*
X10995476Y-12931667D01*
X10985952Y-12941190D01*
X11195476Y-13055476D02*
X11176429Y-13045952D01*
X11166905Y-13036428D01*
X11157381Y-13017381D01*
X11157381Y-12960238D01*
X11166905Y-12941190D01*
X11176429Y-12931667D01*
X11195476Y-12922143D01*
X11224048Y-12922143D01*
X11243095Y-12931667D01*
X11252619Y-12941190D01*
X11262143Y-12960238D01*
X11262143Y-13017381D01*
X11252619Y-13036428D01*
X11243095Y-13045952D01*
X11224048Y-13055476D01*
X11195476Y-13055476D01*
X11376428Y-13055476D02*
X11357381Y-13045952D01*
X11347857Y-13026905D01*
X11347857Y-12855476D01*
X11528809Y-13045952D02*
X11509762Y-13055476D01*
X11471667Y-13055476D01*
X11452619Y-13045952D01*
X11443095Y-13026905D01*
X11443095Y-12950714D01*
X11452619Y-12931667D01*
X11471667Y-12922143D01*
X11509762Y-12922143D01*
X11528809Y-12931667D01*
X11538333Y-12950714D01*
X11538333Y-12969762D01*
X11443095Y-12988809D01*
X11614524Y-13045952D02*
X11633571Y-13055476D01*
X11671667Y-13055476D01*
X11690714Y-13045952D01*
X11700238Y-13026905D01*
X11700238Y-13017381D01*
X11690714Y-12998333D01*
X11671667Y-12988809D01*
X11643095Y-12988809D01*
X11624048Y-12979286D01*
X11614524Y-12960238D01*
X11614524Y-12950714D01*
X11624048Y-12931667D01*
X11643095Y-12922143D01*
X11671667Y-12922143D01*
X11690714Y-12931667D01*
X11766905Y-13131667D02*
X11776428Y-13122143D01*
X11795476Y-13093571D01*
X11805000Y-13074524D01*
X11814524Y-13045952D01*
X11824048Y-12998333D01*
X11824048Y-12960238D01*
X11814524Y-12912619D01*
X11805000Y-12884048D01*
X11795476Y-12865000D01*
X11776428Y-12836428D01*
X11766905Y-12826905D01*
X12128809Y-13131667D02*
X12119286Y-13122143D01*
X12100238Y-13093571D01*
X12090714Y-13074524D01*
X12081190Y-13045952D01*
X12071667Y-12998333D01*
X12071667Y-12960238D01*
X12081190Y-12912619D01*
X12090714Y-12884048D01*
X12100238Y-12865000D01*
X12119286Y-12836428D01*
X12128809Y-12826905D01*
X12205000Y-12922143D02*
X12205000Y-13055476D01*
X12205000Y-12941190D02*
X12214524Y-12931667D01*
X12233571Y-12922143D01*
X12262143Y-12922143D01*
X12281190Y-12931667D01*
X12290714Y-12950714D01*
X12290714Y-13055476D01*
X12414524Y-13055476D02*
X12395476Y-13045952D01*
X12385952Y-13036428D01*
X12376428Y-13017381D01*
X12376428Y-12960238D01*
X12385952Y-12941190D01*
X12395476Y-12931667D01*
X12414524Y-12922143D01*
X12443095Y-12922143D01*
X12462143Y-12931667D01*
X12471667Y-12941190D01*
X12481190Y-12960238D01*
X12481190Y-13017381D01*
X12471667Y-13036428D01*
X12462143Y-13045952D01*
X12443095Y-13055476D01*
X12414524Y-13055476D01*
X12538333Y-12922143D02*
X12614524Y-12922143D01*
X12566905Y-12855476D02*
X12566905Y-13026905D01*
X12576428Y-13045952D01*
X12595476Y-13055476D01*
X12614524Y-13055476D01*
X12833571Y-12922143D02*
X12833571Y-13122143D01*
X12833571Y-12931667D02*
X12852619Y-12922143D01*
X12890714Y-12922143D01*
X12909762Y-12931667D01*
X12919286Y-12941190D01*
X12928809Y-12960238D01*
X12928809Y-13017381D01*
X12919286Y-13036428D01*
X12909762Y-13045952D01*
X12890714Y-13055476D01*
X12852619Y-13055476D01*
X12833571Y-13045952D01*
X13043095Y-13055476D02*
X13024048Y-13045952D01*
X13014524Y-13026905D01*
X13014524Y-12855476D01*
X13205000Y-13055476D02*
X13205000Y-12950714D01*
X13195476Y-12931667D01*
X13176428Y-12922143D01*
X13138333Y-12922143D01*
X13119286Y-12931667D01*
X13205000Y-13045952D02*
X13185952Y-13055476D01*
X13138333Y-13055476D01*
X13119286Y-13045952D01*
X13109762Y-13026905D01*
X13109762Y-13007857D01*
X13119286Y-12988809D01*
X13138333Y-12979286D01*
X13185952Y-12979286D01*
X13205000Y-12969762D01*
X13271667Y-12922143D02*
X13347857Y-12922143D01*
X13300238Y-12855476D02*
X13300238Y-13026905D01*
X13309762Y-13045952D01*
X13328809Y-13055476D01*
X13347857Y-13055476D01*
X13490714Y-13045952D02*
X13471667Y-13055476D01*
X13433571Y-13055476D01*
X13414524Y-13045952D01*
X13405000Y-13026905D01*
X13405000Y-12950714D01*
X13414524Y-12931667D01*
X13433571Y-12922143D01*
X13471667Y-12922143D01*
X13490714Y-12931667D01*
X13500238Y-12950714D01*
X13500238Y-12969762D01*
X13405000Y-12988809D01*
X13671667Y-13055476D02*
X13671667Y-12855476D01*
X13671667Y-13045952D02*
X13652619Y-13055476D01*
X13614524Y-13055476D01*
X13595476Y-13045952D01*
X13585952Y-13036428D01*
X13576428Y-13017381D01*
X13576428Y-12960238D01*
X13585952Y-12941190D01*
X13595476Y-12931667D01*
X13614524Y-12922143D01*
X13652619Y-12922143D01*
X13671667Y-12931667D01*
X13747857Y-13131667D02*
X13757381Y-13122143D01*
X13776428Y-13093571D01*
X13785952Y-13074524D01*
X13795476Y-13045952D01*
X13805000Y-12998333D01*
X13805000Y-12960238D01*
X13795476Y-12912619D01*
X13785952Y-12884048D01*
X13776428Y-12865000D01*
X13757381Y-12836428D01*
X13747857Y-12826905D01*
M02*
